<svg xmlns="http://www.w3.org/2000/svg" width="894" height="874" viewBox="0 0 894 874" fill="none"><path fill-rule="evenodd" clip-rule="evenodd" d="M769.694 285.296C755.23 323.941 740.699 362.764 724.786 401.372L724.778 401.391L724.77 401.411C713.715 427.918 701.045 456.696 678.2 479.444C667.304 490.439 652.133 501.212 633.53 503.024C611.007 505.273 590.075 493.564 577.22 478.78C564.982 464.706 558.797 447.81 553.404 433.075C553.179 432.461 552.956 431.851 552.733 431.245L552.724 431.219L552.714 431.192L521.446 344.458C521.446 344.458 521.445 344.458 521.445 344.458C521.294 344.443 521.161 344.46 521.069 344.485C505.127 368.193 498.408 396.954 493.203 426.464L493.201 426.476L493.199 426.488C482.074 488.689 475.369 551.431 473.119 614.355L473.118 614.38L473.117 614.406C472.64 626.068 472.002 641.058 466.005 653.969L466.002 653.974C464.455 657.3 461.971 659.988 459.017 661.87C456.068 663.747 452.694 664.801 449.279 665.022C445.863 665.242 442.398 664.631 439.247 663.189C436.094 661.746 433.275 659.476 431.25 656.477L431.246 656.471L431.241 656.464C410.686 625.931 396.578 592.509 382.894 560.089C382.459 559.06 382.025 558.031 381.591 557.004C367.368 523.329 353.366 490.787 332.721 461.476C321.902 446.323 309.54 433.32 292.999 428.484C271.274 422.253 246.416 431.422 224.772 444.969L224.767 444.972C186.853 468.673 157.244 501.516 131.493 536.707C58.4358 637.344 19.8176 754.01 20.0006 872.985L0.000671202 873.015C-0.189141 749.612 39.8835 628.848 115.322 524.939L115.333 524.924L115.344 524.908C141.825 488.718 173.204 453.619 214.165 428.013C236.974 413.739 268.264 400.57 298.54 409.266L298.561 409.272L298.581 409.278C321.875 416.077 337.581 433.858 349.02 449.884L349.038 449.91L349.056 449.935C371.126 481.262 385.879 515.751 400.015 549.223C400.355 550.027 400.695 550.832 401.034 551.635C414.891 584.455 428.296 616.204 447.656 645.033C447.736 645.054 447.852 645.072 447.99 645.063C448.026 645.061 448.059 645.057 448.09 645.052C451.933 636.437 452.638 625.706 453.133 613.617C455.417 549.76 462.222 486.091 473.509 422.977C478.771 393.144 486.053 360.508 504.741 332.927L504.778 332.872L504.816 332.817C506.943 329.767 509.894 327.495 513.173 326.103C516.449 324.711 520.035 324.2 523.539 324.568C527.042 324.937 530.472 326.188 533.398 328.306C536.333 330.431 538.702 333.393 540.003 336.963L540.014 336.995L571.509 424.356L571.529 424.409L571.722 424.935C577.472 440.609 582.535 454.413 592.312 465.657C602.1 476.912 617.092 484.569 631.551 483.122L631.566 483.12L631.581 483.119C643.604 481.952 654.686 474.764 664.014 465.346L664.039 465.321L664.065 465.296C683.77 445.685 695.173 420.416 706.302 393.733C721.669 356.448 735.911 318.404 750.219 280.182C785.795 185.145 821.781 89.0115 876.5 0.731689L893.5 11.2685C839.881 97.7737 804.984 191.008 769.694 285.296Z" fill="#CEB6FA"></path></svg>