<svg xmlns="http://www.w3.org/2000/svg" width="632" height="656" viewBox="0 0 632 656" fill="none"><path d="M9.00053 655C8.85182 564.14 40.24 475.136 99.4719 398.459C120.306 371.7 144.632 346.229 176.094 327.745C193.827 317.314 216.227 308.94 236.97 314.539C252.867 318.9 264.067 330.446 272.948 342.141C307.029 387.607 318.831 442.661 351.648 488.474C352.384 489.499 353.454 490.334 354.736 490.885C356.018 491.436 357.462 491.682 358.905 491.595C360.348 491.507 361.732 491.09 362.902 490.389C364.072 489.689 364.981 488.734 365.527 487.631C369.531 479.529 370.073 469.817 370.465 460.823C372.273 413.294 377.662 365.904 386.602 318.925C390.787 296.625 396.387 273.558 410.266 254.306C411.042 253.26 412.167 252.42 413.506 251.885C414.846 251.351 416.344 251.144 417.823 251.29C419.301 251.436 420.697 251.929 421.845 252.71C422.992 253.491 423.843 254.526 424.296 255.694L449.435 321.229C453.981 332.874 458.467 344.767 467.499 354.529C476.531 364.291 490.862 371.551 505.615 370.164C517.838 369.049 528.315 362.309 536.384 354.653C553.364 338.771 562.968 318.503 571.82 298.558C615.023 200.045 646.244 97.1209 707 5" stroke="#FD7B43" stroke-width="18" stroke-miterlimit="10"></path></svg>