<svg xmlns="http://www.w3.org/2000/svg" width="880" height="398" viewBox="0 0 880 398" fill="none"><path opacity="0.1" d="M15.0015 391.924C51.2328 293.038 126.899 210.977 233.098 155.399C270.367 136.079 311.569 119.8 359.062 114.471C385.835 111.454 417.73 112.864 441.913 128.694C460.417 140.901 470.058 158.718 476.686 175.607C501.881 241.058 494.848 306.475 518.294 371.71C518.821 373.17 519.849 374.58 521.262 375.782C522.674 376.984 524.415 377.929 526.288 378.512C528.162 379.094 530.093 379.29 531.864 379.078C533.635 378.866 535.177 378.254 536.314 377.311C544.663 370.379 549.247 360.071 553.351 350.473C574.706 299.631 600.568 250.621 630.789 203.726C645.06 181.438 661.44 158.98 686.84 144.56C688.248 143.787 690.017 143.401 691.939 143.449C693.86 143.496 695.851 143.975 697.676 144.828C699.501 145.681 701.082 146.873 702.231 148.261C703.381 149.649 704.049 151.175 704.158 152.657L709.917 235.736C711.041 250.536 711.989 265.577 719.583 280.435C727.177 295.293 742.524 309.918 761.876 315.336C777.895 319.863 793.945 317.453 807.294 312.915C835.293 303.616 855.653 286.083 874.925 268.547C969.456 181.693 1050.49 84.4163 1164.82 12.7566" stroke="white" stroke-width="30" stroke-miterlimit="10"></path></svg>