<svg xmlns="http://www.w3.org/2000/svg" width="722" height="380" viewBox="0 0 722 380" fill="none"><path fill-rule="evenodd" clip-rule="evenodd" d="M744.218 253.002C769.37 229.892 793.872 205.605 818.199 181.491C835.837 164.008 853.382 146.616 871.017 129.831C913.483 89.4091 957.856 51.0781 1009.61 18.6411L997.924 6.13963e-06C944.379 33.5609 898.787 73.0245 855.849 113.896C837.402 131.454 819.687 149.024 802.065 166.501C778.187 190.183 754.48 213.695 729.357 236.779C711.641 252.899 694.389 267.563 671.02 275.325L670.984 275.337L670.947 275.35C659.939 279.092 647.552 280.772 635.649 277.408L635.636 277.404L635.624 277.401C621.12 273.34 609.279 262.148 603.501 250.844C597.723 239.538 596.849 228.034 595.798 214.187L595.778 213.922L595.773 213.85L590.474 137.407L590.473 137.385L590.471 137.363C590.171 133.27 588.399 129.761 586.199 127.104C583.986 124.431 581.169 122.386 578.19 120.993C575.201 119.595 571.879 118.773 568.519 118.69C565.189 118.608 561.562 119.252 558.255 121.069L558.187 121.106L558.12 121.144C532.246 135.834 515.956 158.514 502.675 179.254C474.508 222.964 450.395 268.654 430.48 316.061C426.826 324.608 423.679 331.229 418.949 335.673C418.944 335.672 418.94 335.67 418.935 335.669C412.784 309.724 411.41 283.241 409.975 255.562V255.561L409.872 253.585C408.361 224.511 406.653 194.15 398.401 164.063L398.392 164.03L398.382 163.997C394.049 148.574 386.772 130.014 370.108 117.785L370.089 117.771L370.07 117.758C348.42 102.01 319.913 103.304 298.369 107.657C259.555 115.479 225.564 133.233 195.201 153.073L195.184 153.084L195.167 153.095C109.797 209.337 31.8915 276.338 6.87747e-06 372.269L20.8766 379.21C50.3209 290.639 122.805 227.114 207.253 171.478C236.462 152.394 267.764 136.266 302.721 129.223L302.727 129.221C322.769 125.172 343.248 125.466 357.111 135.535C367.59 143.236 373.19 155.678 377.194 169.918C384.717 197.365 386.378 225.415 387.902 254.727C387.95 255.653 387.998 256.58 388.046 257.508V257.508C389.495 285.503 391.005 314.693 398.215 343.564L397.975 343.65C398.221 344.33 398.504 344.985 398.819 345.615C399.791 348.322 401.378 350.697 403.331 352.616C405.669 354.913 408.54 356.573 411.621 357.491C414.702 358.409 418.037 358.598 421.289 357.914C421.799 357.807 422.307 357.678 422.81 357.528C425.902 357.054 429.157 355.846 431.938 353.54L431.944 353.535C441.929 345.246 447.033 333.307 450.662 324.82L450.723 324.679L450.736 324.646L450.75 324.614C470.167 278.387 493.685 233.818 521.175 191.16L521.184 191.146L521.192 191.133C534.037 171.072 547.739 152.599 568.223 140.712C568.349 140.735 568.498 140.773 568.659 140.833L573.83 215.443L573.833 215.479L573.836 215.516C573.878 216.066 573.919 216.621 573.961 217.181C574.931 230.115 576.088 245.548 583.912 260.856C592.121 276.918 608.548 292.663 629.685 298.584C647.268 303.548 664.42 300.799 677.989 296.192C706.17 286.823 726.409 269.207 744.179 253.037L744.198 253.02L744.218 253.002ZM417.97 336.428C417.947 336.42 417.925 336.413 417.903 336.407C417.645 336.33 417.264 336.28 416.765 336.385C416.258 336.491 415.538 336.784 414.846 337.464L414.913 337.532L416.875 336.823L417.97 336.428Z" fill="#FD7B43"></path></svg>