<svg xmlns="http://www.w3.org/2000/svg" width="121" height="35" viewBox="0 0 121 35" fill="none"><path d="M19.5532 16.4002C19.5532 12.9929 22.5229 11.3438 22.6361 11.2336C20.9238 8.92525 18.4113 8.59454 17.4979 8.48541C15.3272 8.26494 13.1576 9.69468 12.13 9.69468C10.9869 9.69468 9.27455 8.48541 7.44788 8.48541C5.04968 8.48541 2.87897 9.80492 1.62271 11.8927C-0.8898 16.0706 0.93799 22.2261 3.33619 25.6346C4.59133 27.2837 5.96301 29.1533 7.78968 29.0419C9.61635 28.9328 10.3022 27.9429 12.4729 27.9429C14.6425 27.9429 15.2129 29.043 17.155 29.043C19.096 29.043 20.3522 27.3939 21.4942 25.7448C22.8647 23.8763 23.4363 22.0068 23.4363 21.8965C23.322 21.7874 19.5532 20.4679 19.5532 16.4002ZM16.1554 5.60699C17.0866 4.50462 17.7848 3.10271 17.6683 1.60059C16.2719 1.7008 14.4105 2.40231 13.4792 3.50469C12.5491 4.40551 11.7344 5.90764 11.9664 7.31066C13.4792 7.41087 15.1087 6.60915 16.1554 5.60699Z" fill="white"></path><path d="M45.8168 30.3759H43.242L41.8376 26.3338H36.9206L35.6338 30.3759H33.1753L38.0911 16.6519H41.1349L45.8168 30.3759ZM41.3687 24.6302L40.083 21.0146C39.9655 20.6961 39.7316 19.7385 39.2627 18.4624C39.0709 19.324 38.8368 20.1758 38.5611 21.0146L37.2743 24.6324H41.3699L41.3687 24.6302ZM57.3103 25.3372C57.3103 27.1255 56.8503 28.4662 55.8152 29.5842C54.8965 30.4783 53.8626 30.9259 52.4828 30.9259C51.1042 30.9259 50.0691 30.4783 49.495 29.4728V34.9502H47.0813V23.7716C47.0813 22.6537 47.0813 21.5368 46.9661 20.3064H49.0351L49.1504 21.9833C49.9549 20.754 51.1042 20.0837 52.7122 20.0837C53.9767 20.0837 55.0118 20.5302 55.8152 21.5368C56.8503 22.431 57.3103 23.6603 57.3103 25.3372ZM54.8965 25.3372C54.8965 24.3306 54.666 23.4365 54.2072 22.8775C53.7473 22.2072 53.058 21.872 52.1382 21.872C51.563 21.872 50.9889 22.0947 50.529 22.431C50.0702 22.765 49.7244 23.3251 49.6103 23.8841C49.495 24.2182 49.495 24.4431 49.495 24.5544V26.3427C49.495 27.1255 49.7244 27.6845 50.1843 28.2435C50.6431 28.8025 51.3336 29.0252 52.0229 29.0252C52.9427 29.0252 53.632 28.6911 54.092 28.0197C54.666 27.3493 54.8965 26.4552 54.8965 25.3361V25.3372ZM69.9518 25.3372C69.9518 27.1255 69.493 28.4662 68.4579 29.5842C67.5381 30.4783 66.5041 30.9259 65.1243 30.9259C63.7457 30.9259 62.7117 30.4783 62.1366 29.4728V34.9502H59.7228V23.7716C59.7228 22.6537 59.7228 21.5368 59.6087 20.3064H61.6767L61.7919 21.9833C62.5965 20.754 63.7457 20.0837 65.3549 20.0837C66.6193 20.0837 67.6533 20.5302 68.4579 21.5368C69.4919 22.431 69.9518 23.6603 69.9518 25.3372ZM67.5381 25.3372C67.5381 24.3306 67.3087 23.4365 66.8487 22.8775C66.3899 22.2072 65.6995 21.872 64.7797 21.872C64.2056 21.872 63.6305 22.0947 63.1705 22.431C62.7117 22.765 62.3671 23.3251 62.2518 23.8841C62.1366 24.2182 62.1366 24.4431 62.1366 24.5544V26.3427C62.1366 27.1255 62.3671 27.6845 62.8259 28.2435C63.2858 28.8025 63.9751 29.0252 64.6655 29.0252C65.5843 29.0252 66.2736 28.6911 66.7335 28.0197C67.3087 27.3493 67.5392 26.4552 67.5392 25.3361L67.5381 25.3372ZM83.7425 27.2391C83.7425 28.4784 83.277 29.4917 82.4624 30.2801C81.5314 31.182 80.1348 31.5194 78.3892 31.5194C76.7599 31.5194 75.4797 31.1809 74.5487 30.6175L75.1306 28.7034C76.178 29.2668 77.3418 29.6053 78.6219 29.6053C79.5529 29.6053 80.2512 29.3793 80.7167 29.0419C81.1822 28.5909 81.415 28.1399 81.415 27.4651C81.415 26.9017 81.1822 26.3383 80.8331 26.0009C80.3676 25.5499 79.6693 25.2125 78.7383 24.874C76.0616 23.9732 74.7815 22.5089 74.7815 20.7073C74.7815 19.4679 75.247 18.5671 76.178 17.7787C77.109 16.9904 78.2728 16.6519 79.9021 16.6519C81.2986 16.6519 82.346 16.8779 83.277 17.3278L82.6951 19.243C81.8805 18.792 80.9495 18.5671 79.7857 18.5671C78.9711 18.5671 78.2728 18.792 77.8073 19.1305C77.4581 19.4679 77.2254 19.9189 77.2254 20.4812C77.2254 21.0447 77.4581 21.4945 77.9237 21.9455C78.2728 22.284 79.0874 22.6214 80.1348 23.0724C81.2257 23.4532 82.2191 24.0683 83.0443 24.874C83.4966 25.5811 83.7386 26.401 83.7425 27.2391ZM91.7872 21.9533H89.0064V26.7514C89.0064 27.9239 89.4898 28.5631 90.4578 28.5631C90.9423 28.5631 91.3049 28.5631 91.5466 28.4562L91.6674 30.1621C91.184 30.3759 90.5786 30.3759 89.7315 30.3759C88.7647 30.3759 87.9176 30.1621 87.4342 29.6298C86.8288 29.0953 86.5871 28.2435 86.5871 26.9641V21.9533H84.8929V20.2474H86.5871V18.4357L89.0064 17.7954V20.2474H91.7883V21.9533H91.7872ZM103.281 25.1758C103.281 26.6623 102.825 27.935 101.915 28.8904C100.894 29.8447 99.6438 30.3759 98.0514 30.3759C96.4602 30.3759 95.2091 29.8447 94.3005 28.8904C93.3918 27.935 92.9364 26.7681 92.9364 25.2827C92.9364 23.7972 93.3918 22.5234 94.4135 21.5691C95.3232 20.6137 96.6873 20.0837 98.2786 20.0837C99.8698 20.0837 101.121 20.6137 102.03 21.5691C102.825 22.5234 103.281 23.6903 103.281 25.1769V25.1758ZM100.78 25.2827C100.78 24.3273 100.552 23.5846 100.097 22.9476C99.6426 22.2049 98.847 21.7807 97.9373 21.7807C97.0286 21.7807 96.233 22.2049 95.7776 22.9476C95.3232 23.5846 95.0961 24.4331 95.0961 25.2827C95.0961 26.2369 95.3232 26.9797 95.7787 27.6166C96.233 28.3593 97.0286 28.7835 97.9384 28.7835C98.847 28.7835 99.5296 28.3604 100.098 27.6166C100.552 26.9797 100.78 26.1312 100.78 25.2827ZM110.176 22.3586C109.95 22.3586 109.725 22.2495 109.387 22.2495C108.598 22.2495 107.922 22.5746 107.471 23.1169C107.102 23.7008 106.907 24.3768 106.908 25.0666V30.3759H104.542V23.442C104.542 22.2506 104.542 21.2751 104.43 20.2997H106.457L106.569 22.2495H106.682C106.908 21.6003 107.359 21.058 107.809 20.6249C108.373 20.2997 108.936 20.0837 109.499 20.0837H110.063V22.3586H110.175H110.176ZM120.519 24.7515C120.519 25.1758 120.519 25.4942 120.408 25.7069H113.541C113.541 26.6623 113.873 27.405 114.537 27.935C115.174 28.4174 115.952 28.6783 116.752 28.6778C117.749 28.6778 118.746 28.572 119.522 28.2535L119.854 29.7389C118.858 30.1632 117.751 30.3759 116.42 30.3759C114.87 30.3759 113.541 29.9516 112.655 28.9962C111.768 28.1477 111.325 26.8739 111.325 25.3885C111.325 23.903 111.768 22.6303 112.544 21.6749C113.43 20.6137 114.648 20.0826 116.199 20.0826C117.639 20.0826 118.857 20.6137 119.522 21.6749C120.297 22.5234 120.519 23.5846 120.519 24.7515ZM118.415 24.2215C118.415 23.5846 118.303 23.0545 117.971 22.5234C117.528 21.8865 116.975 21.5691 116.199 21.5691C115.424 21.5691 114.87 21.8865 114.427 22.4176C114.095 22.8419 113.873 23.4788 113.762 24.1157H118.414V24.2215H118.415Z" fill="white"></path><path d="M35.4512 10.0503H33.0906V2.75853H35.526C36.2404 2.75853 36.854 2.90451 37.3667 3.19646C37.8794 3.48604 38.2723 3.90261 38.5452 4.44617C38.8206 4.98736 38.9582 5.63654 38.9582 6.39373C38.9582 7.15329 38.8194 7.80603 38.5417 8.35197C38.2663 8.8979 37.8676 9.31803 37.3454 9.61236C36.8232 9.90432 36.1918 10.0503 35.4512 10.0503ZM34.1908 9.08898H35.3907C35.9461 9.08898 36.4078 8.98454 36.7757 8.77566C37.1436 8.56441 37.4189 8.2594 37.6017 7.86063C37.7845 7.45949 37.8759 6.97052 37.8759 6.39373C37.8759 5.82169 37.7845 5.33628 37.6017 4.93751C37.4213 4.53874 37.1519 4.23611 36.7935 4.0296C36.4351 3.8231 35.99 3.71985 35.4583 3.71985H34.1908V9.08898ZM42.5445 10.1607C42.0318 10.1607 41.5844 10.0432 41.2022 9.80818C40.82 9.5732 40.5233 9.24445 40.3121 8.82194C40.1008 8.39944 39.9952 7.90573 39.9952 7.3408C39.9952 6.77351 40.1008 6.27742 40.3121 5.85254C40.5233 5.42767 40.82 5.09773 41.2022 4.86274C41.5844 4.62776 42.0318 4.51026 42.5445 4.51026C43.0572 4.51026 43.5046 4.62776 43.8868 4.86274C44.2689 5.09773 44.5656 5.42767 44.7769 5.85254C44.9881 6.27742 45.0938 6.77351 45.0938 7.3408C45.0938 7.90573 44.9881 8.39944 44.7769 8.82194C44.5656 9.24445 44.2689 9.5732 43.8868 9.80818C43.5046 10.0432 43.0572 10.1607 42.5445 10.1607ZM42.548 9.267C42.8804 9.267 43.1557 9.17917 43.3741 9.00353C43.5924 8.82788 43.7538 8.59408 43.8583 8.30212C43.9651 8.01017 44.0185 7.68854 44.0185 7.33724C44.0185 6.98832 43.9651 6.66788 43.8583 6.37593C43.7538 6.0816 43.5924 5.84542 43.3741 5.6674C43.1557 5.48938 42.8804 5.40037 42.548 5.40037C42.2134 5.40037 41.9357 5.48938 41.7149 5.6674C41.4965 5.84542 41.3339 6.0816 41.2271 6.37593C41.1227 6.66788 41.0705 6.98832 41.0705 7.33724C41.0705 7.68854 41.1227 8.01017 41.2271 8.30212C41.3339 8.59408 41.4965 8.82788 41.7149 9.00353C41.9357 9.17917 42.2134 9.267 42.548 9.267ZM47.3012 10.0503L45.6919 4.58147H46.7921L47.8638 8.59764H47.9172L48.9924 4.58147H50.0926L51.1607 8.57983H51.2141L52.2787 4.58147H53.3789L51.7731 10.0503H50.6872L49.5763 6.10177H49.4944L48.3836 10.0503H47.3012ZM55.4537 6.80318V10.0503H54.3892V4.58147H55.411V5.47158H55.4786C55.6044 5.182 55.8015 4.94938 56.0697 4.77373C56.3403 4.59809 56.6809 4.51026 57.0915 4.51026C57.4642 4.51026 57.7905 4.58859 58.0706 4.74525C58.3507 4.89954 58.5679 5.12978 58.7222 5.43597C58.8765 5.74217 58.9536 6.12076 58.9536 6.57175V10.0503H57.8891V6.69993C57.8891 6.30353 57.7858 5.99377 57.5793 5.77065C57.3728 5.54516 57.0891 5.43241 56.7284 5.43241C56.4815 5.43241 56.2619 5.48582 56.0697 5.59263C55.8798 5.69945 55.7291 5.8561 55.6175 6.06261C55.5083 6.26674 55.4537 6.5136 55.4537 6.80318ZM61.4459 2.75853V10.0503H60.3814V2.75853H61.4459ZM65.1817 10.1607C64.669 10.1607 64.2216 10.0432 63.8394 9.80818C63.4573 9.5732 63.1606 9.24445 62.9493 8.82194C62.7381 8.39944 62.6324 7.90573 62.6324 7.3408C62.6324 6.77351 62.7381 6.27742 62.9493 5.85254C63.1606 5.42767 63.4573 5.09773 63.8394 4.86274C64.2216 4.62776 64.669 4.51026 65.1817 4.51026C65.6944 4.51026 66.1418 4.62776 66.524 4.86274C66.9061 5.09773 67.2028 5.42767 67.4141 5.85254C67.6254 6.27742 67.731 6.77351 67.731 7.3408C67.731 7.90573 67.6254 8.39944 67.4141 8.82194C67.2028 9.24445 66.9061 9.5732 66.524 9.80818C66.1418 10.0432 65.6944 10.1607 65.1817 10.1607ZM65.1853 9.267C65.5176 9.267 65.7929 9.17917 66.0113 9.00353C66.2297 8.82788 66.3911 8.59408 66.4955 8.30212C66.6023 8.01017 66.6557 7.68854 66.6557 7.33724C66.6557 6.98832 66.6023 6.66788 66.4955 6.37593C66.3911 6.0816 66.2297 5.84542 66.0113 5.6674C65.7929 5.48938 65.5176 5.40037 65.1853 5.40037C64.8506 5.40037 64.5729 5.48938 64.3521 5.6674C64.1338 5.84542 63.9712 6.0816 63.8643 6.37593C63.7599 6.66788 63.7077 6.98832 63.7077 7.33724C63.7077 7.68854 63.7599 8.01017 63.8643 8.30212C63.9712 8.59408 64.1338 8.82788 64.3521 9.00353C64.5729 9.17917 64.8506 9.267 65.1853 9.267ZM70.5108 10.1713C70.1642 10.1713 69.8509 10.1073 69.5708 9.97908C69.2907 9.84854 69.0688 9.65983 68.905 9.41298C68.7436 9.16612 68.6629 8.86348 68.6629 8.50507C68.6629 8.19649 68.7223 7.94252 68.8409 7.74313C68.9596 7.54375 69.1198 7.3859 69.3216 7.2696C69.5234 7.15329 69.7489 7.06546 69.9981 7.00612C70.2473 6.94678 70.5013 6.90168 70.76 6.87083C71.0876 6.83285 71.3534 6.80199 71.5576 6.77826C71.7617 6.75215 71.91 6.71061 72.0026 6.65364C72.0952 6.59667 72.1415 6.5041 72.1415 6.37593V6.351C72.1415 6.04006 72.0536 5.79914 71.878 5.62824C71.7047 5.45734 71.446 5.37189 71.1018 5.37189C70.7434 5.37189 70.4609 5.4514 70.2544 5.61043C70.0503 5.76709 69.9091 5.94155 69.8307 6.13382L68.8303 5.90595C68.9489 5.57364 69.1222 5.30542 69.3501 5.10129C69.5803 4.89479 69.845 4.74525 70.1441 4.65268C70.4431 4.55773 70.7576 4.51026 71.0876 4.51026C71.3059 4.51026 71.5374 4.53637 71.7819 4.58859C72.0287 4.63844 72.259 4.73101 72.4726 4.8663C72.6886 5.0016 72.8654 5.19505 73.0031 5.44665C73.1408 5.69589 73.2096 6.01988 73.2096 6.41865V10.0503H72.1699V9.3026H72.1272C72.0584 9.44027 71.9551 9.57557 71.8175 9.70849C71.6798 9.84141 71.503 9.95179 71.287 10.0396C71.071 10.1274 70.8122 10.1713 70.5108 10.1713ZM70.7422 9.31684C71.0365 9.31684 71.2881 9.25869 71.497 9.14238C71.7083 9.02608 71.8685 8.87416 71.9777 8.68665C72.0892 8.49676 72.145 8.29381 72.145 8.07781V7.37285C72.107 7.41083 72.0335 7.44643 71.9243 7.47966C71.8175 7.51052 71.6952 7.53782 71.5576 7.56155C71.4199 7.58291 71.2858 7.60309 71.1552 7.62208C71.0247 7.63869 70.9155 7.65294 70.8277 7.6648C70.6212 7.69091 70.4325 7.73483 70.2616 7.79654C70.093 7.85825 69.9577 7.94726 69.8557 8.06357C69.756 8.17751 69.7061 8.32942 69.7061 8.51931C69.7061 8.78278 69.8034 8.98216 69.9981 9.11746C70.1927 9.25038 70.4408 9.31684 70.7422 9.31684ZM76.6748 10.1571C76.2333 10.1571 75.8393 10.0444 75.4927 9.81886C75.1485 9.591 74.878 9.267 74.6809 8.84687C74.4863 8.42436 74.389 7.91759 74.389 7.32656C74.389 6.73553 74.4875 6.22995 74.6845 5.80982C74.8839 5.38969 75.1569 5.06806 75.5034 4.84494C75.8499 4.62182 76.2428 4.51026 76.6819 4.51026C77.0213 4.51026 77.2943 4.56723 77.5008 4.68116C77.7097 4.79272 77.8711 4.92327 77.985 5.07281C78.1013 5.22235 78.1915 5.35408 78.2556 5.46802H78.3197V2.75853H79.3843V10.0503H78.3446V9.19935H78.2556C78.1915 9.31566 78.099 9.44858 77.9779 9.59812C77.8592 9.74766 77.6954 9.87821 77.4866 9.98977C77.2777 10.1013 77.0071 10.1571 76.6748 10.1571ZM76.9098 9.2492C77.216 9.2492 77.4747 9.16849 77.6859 9.00709C77.8996 8.84331 78.061 8.61663 78.1702 8.32704C78.2817 8.03746 78.3375 7.70041 78.3375 7.31588C78.3375 6.9361 78.2829 6.6038 78.1737 6.31896C78.0645 6.03413 77.9043 5.81219 77.6931 5.65316C77.4818 5.49413 77.2207 5.41461 76.9098 5.41461C76.5893 5.41461 76.3223 5.49769 76.1087 5.66384C75.895 5.82999 75.7336 6.05668 75.6245 6.34388C75.5176 6.63109 75.4642 6.95509 75.4642 7.31588C75.4642 7.68142 75.5188 8.01017 75.628 8.30212C75.7372 8.59408 75.8986 8.8255 76.1122 8.99641C76.3282 9.16493 76.5941 9.2492 76.9098 9.2492ZM85.8607 10.1607C85.348 10.1607 84.9006 10.0432 84.5184 9.80818C84.1363 9.5732 83.8396 9.24445 83.6283 8.82194C83.4171 8.39944 83.3114 7.90573 83.3114 7.3408C83.3114 6.77351 83.4171 6.27742 83.6283 5.85254C83.8396 5.42767 84.1363 5.09773 84.5184 4.86274C84.9006 4.62776 85.348 4.51026 85.8607 4.51026C86.3734 4.51026 86.8208 4.62776 87.203 4.86274C87.5851 5.09773 87.8818 5.42767 88.0931 5.85254C88.3043 6.27742 88.41 6.77351 88.41 7.3408C88.41 7.90573 88.3043 8.39944 88.0931 8.82194C87.8818 9.24445 87.5851 9.5732 87.203 9.80818C86.8208 10.0432 86.3734 10.1607 85.8607 10.1607ZM85.8643 9.267C86.1966 9.267 86.4719 9.17917 86.6903 9.00353C86.9086 8.82788 87.0701 8.59408 87.1745 8.30212C87.2813 8.01017 87.3347 7.68854 87.3347 7.33724C87.3347 6.98832 87.2813 6.66788 87.1745 6.37593C87.0701 6.0816 86.9086 5.84542 86.6903 5.6674C86.4719 5.48938 86.1966 5.40037 85.8643 5.40037C85.5296 5.40037 85.2519 5.48938 85.0311 5.6674C84.8127 5.84542 84.6501 6.0816 84.5433 6.37593C84.4389 6.66788 84.3867 6.98832 84.3867 7.33724C84.3867 7.68854 84.4389 8.01017 84.5433 8.30212C84.6501 8.59408 84.8127 8.82788 85.0311 9.00353C85.2519 9.17917 85.5296 9.267 85.8643 9.267ZM90.6628 6.80318V10.0503H89.5983V4.58147H90.6201V5.47158H90.6877C90.8136 5.182 91.0106 4.94938 91.2788 4.77373C91.5494 4.59809 91.89 4.51026 92.3006 4.51026C92.6733 4.51026 92.9997 4.58859 93.2797 4.74525C93.5598 4.89954 93.777 5.12978 93.9313 5.43597C94.0856 5.74217 94.1627 6.12076 94.1627 6.57175V10.0503H93.0982V6.69993C93.0982 6.30353 92.9949 5.99377 92.7884 5.77065C92.5819 5.54516 92.2983 5.43241 91.9375 5.43241C91.6906 5.43241 91.471 5.48582 91.2788 5.59263C91.0889 5.69945 90.9382 5.8561 90.8266 6.06261C90.7174 6.26674 90.6628 6.5136 90.6628 6.80318ZM100.797 4.58147V5.43597H97.8095V4.58147H100.797ZM98.6106 3.27123H99.6752V8.44454C99.6752 8.65104 99.706 8.80652 99.7677 8.91095C99.8295 9.01302 99.909 9.08304 100.006 9.12102C100.106 9.15662 100.214 9.17443 100.33 9.17443C100.416 9.17443 100.491 9.16849 100.555 9.15662C100.619 9.14476 100.669 9.13526 100.704 9.12814L100.896 10.0076C100.835 10.0313 100.747 10.055 100.633 10.0788C100.519 10.1049 100.377 10.1191 100.206 10.1215C99.9256 10.1262 99.6645 10.0764 99.4224 9.97196C99.1803 9.86752 98.9844 9.70612 98.8349 9.48774C98.6854 9.26937 98.6106 8.99522 98.6106 8.66529V3.27123ZM103.156 6.80318V10.0503H102.092V2.75853H103.142V5.47158H103.21C103.338 5.17725 103.534 4.94345 103.797 4.77017C104.061 4.5969 104.405 4.51026 104.83 4.51026C105.205 4.51026 105.532 4.5874 105.812 4.74169C106.095 4.89597 106.313 5.12622 106.468 5.43241C106.624 5.73624 106.703 6.11602 106.703 6.57175V10.0503H105.638V6.69993C105.638 6.29878 105.535 5.98784 105.328 5.76709C105.122 5.54397 104.835 5.43241 104.467 5.43241C104.215 5.43241 103.99 5.48582 103.79 5.59263C103.593 5.69945 103.438 5.8561 103.324 6.06261C103.212 6.26674 103.156 6.5136 103.156 6.80318ZM110.48 10.1607C109.941 10.1607 109.477 10.0455 109.088 9.8153C108.701 9.58269 108.402 9.25632 108.191 8.83619C107.982 8.41368 107.878 7.91878 107.878 7.35149C107.878 6.79131 107.982 6.2976 108.191 5.87035C108.402 5.44309 108.696 5.1096 109.074 4.86986C109.454 4.63013 109.897 4.51026 110.405 4.51026C110.714 4.51026 111.013 4.56129 111.303 4.66336C111.592 4.76543 111.852 4.92564 112.082 5.14402C112.313 5.36239 112.494 5.64604 112.627 5.99496C112.76 6.34151 112.827 6.76283 112.827 7.25891V7.63632H108.479V6.83878H111.783C111.783 6.5587 111.726 6.31065 111.612 6.09465C111.498 5.87628 111.338 5.70419 111.132 5.57839C110.928 5.45259 110.688 5.38969 110.413 5.38969C110.113 5.38969 109.852 5.46327 109.629 5.61043C109.409 5.75523 109.238 5.94512 109.117 6.1801C108.998 6.41272 108.939 6.66551 108.939 6.93848V7.56155C108.939 7.92709 109.003 8.23803 109.131 8.49438C109.261 8.75074 109.443 8.94656 109.676 9.08186C109.908 9.21478 110.18 9.28124 110.491 9.28124C110.693 9.28124 110.877 9.25276 111.043 9.19579C111.209 9.13645 111.352 9.04862 111.474 8.93232C111.595 8.81601 111.687 8.67241 111.751 8.50151L112.759 8.68309C112.678 8.97979 112.533 9.2397 112.324 9.46282C112.118 9.68357 111.858 9.85566 111.545 9.97908C111.234 10.1001 110.879 10.1607 110.48 10.1607Z" fill="white"></path></svg>