<svg xmlns="http://www.w3.org/2000/svg" width="1727" height="927" viewBox="0 0 1727 927" fill="none"><path fill-rule="evenodd" clip-rule="evenodd" d="M1714.02 27.8478C1721.54 26.8834 1726.87 20.0087 1725.93 12.4927C1724.98 4.97667 1718.12 -0.334455 1710.6 0.629939C1265.5 57.7177 1148.12 424.226 1104.21 581.747C1058.03 415.122 977.664 308.078 878.891 251.392C770.68 189.288 642.971 189.117 519.697 233.418C273.785 321.79 40.7886 588.531 0.38466 911.311C-0.556841 918.832 4.7756 925.676 12.295 926.597C19.8144 927.517 26.6733 922.166 27.6148 914.645C66.7466 602.028 292.875 344.064 528.916 259.239C646.619 216.94 765.595 218.047 865.181 275.2C964.76 332.349 1047.54 447.028 1089.71 637.205C1090.9 642.578 1095.09 646.501 1100.14 647.607C1107.25 649.504 1114.65 645.421 1116.82 638.315C1119.47 629.615 1122.41 619.011 1125.78 606.817C1166.26 460.376 1270.09 84.7854 1714.02 27.8478Z" fill="#7633EF"></path></svg>