<svg xmlns="http://www.w3.org/2000/svg" width="142" height="35" viewBox="0 0 142 35" fill="none"><path d="M71.194 20.1156C68.3319 20.1156 65.9934 22.269 65.9934 25.2284C65.9934 28.1758 68.3319 30.3413 71.194 30.3413C74.0562 30.3413 76.3946 28.1758 76.3946 25.2284C76.3946 22.269 74.0562 20.1156 71.194 20.1156ZM71.194 28.3322C69.6229 28.3322 68.271 27.057 68.271 25.2284C68.271 23.3878 69.6229 22.1247 71.194 22.1247C72.7652 22.1247 74.1171 23.3878 74.1171 25.2284C74.1171 27.057 72.753 28.3322 71.194 28.3322ZM59.8429 20.1156C56.9807 20.1156 54.6423 22.269 54.6423 25.2284C54.6423 28.1758 56.9807 30.3413 59.8429 30.3413C62.705 30.3413 65.0435 28.1758 65.0435 25.2284C65.0435 22.269 62.705 20.1156 59.8429 20.1156ZM59.8429 28.3322C58.2717 28.3322 56.9198 27.057 56.9198 25.2284C56.9198 23.3878 58.2717 22.1247 59.8429 22.1247C61.414 22.1247 62.7659 23.3878 62.7659 25.2284C62.7659 27.057 61.414 28.3322 59.8429 28.3322ZM46.3482 21.6916V23.857H51.6096C51.4513 25.072 51.0372 25.9743 50.4161 26.5878C49.6488 27.3458 48.4552 28.1758 46.3603 28.1758C43.1206 28.1758 40.5873 25.6014 40.5873 22.4013C40.5873 19.2013 43.1206 16.6269 46.3603 16.6269C48.102 16.6269 49.3808 17.3005 50.3186 18.1788L51.8654 16.6509C50.55 15.4118 48.8084 14.4614 46.3482 14.4614C41.9149 14.4614 38.188 18.0224 38.188 22.4134C38.188 26.7924 41.9149 30.3653 46.3482 30.3653C48.7475 30.3653 50.55 29.5954 51.9628 28.1397C53.4122 26.7082 53.8628 24.6871 53.8628 23.063C53.8628 22.5577 53.8263 22.0886 53.741 21.7036H46.3482V21.6916ZM101.533 23.3758C101.107 22.2329 99.7911 20.1156 97.0995 20.1156C94.4322 20.1156 92.2156 22.1848 92.2156 25.2284C92.2156 28.0916 94.4079 30.3413 97.3553 30.3413C99.7303 30.3413 101.107 28.9097 101.667 28.0796L99.9008 26.9127C99.3161 27.7668 98.5123 28.3322 97.3553 28.3322C96.1982 28.3322 95.37 27.8029 94.8463 26.7803L101.776 23.9532L101.533 23.3758ZM94.4688 25.0841C94.4079 23.1111 96.0155 22.1006 97.1726 22.1006C98.0739 22.1006 98.8412 22.5457 99.0969 23.1833L94.4688 25.0841ZM88.8419 30.0405H91.1194V15.0028H88.8419V30.0405ZM85.115 21.2585H85.0298C84.5182 20.657 83.5439 20.1156 82.3016 20.1156C79.7074 20.1156 77.3324 22.3653 77.3324 25.2525C77.3324 28.1157 79.7074 30.3533 82.3016 30.3533C83.5317 30.3533 84.5182 29.8119 85.0298 29.1864H85.1028V29.9202C85.1028 31.8811 84.0432 32.9278 82.3381 32.9278C80.9497 32.9278 80.085 31.9413 79.7318 31.1112L77.7465 31.9293C78.3189 33.2887 79.8292 34.9488 82.3381 34.9488C85.0054 34.9488 87.2586 33.3969 87.2586 29.6195V20.4284H85.1028V21.2585H85.115ZM82.4965 28.3322C80.9253 28.3322 79.61 27.033 79.61 25.2525C79.61 23.448 80.9253 22.1367 82.4965 22.1367C84.0432 22.1367 85.2612 23.46 85.2612 25.2525C85.2734 27.033 84.0554 28.3322 82.4965 28.3322ZM112.202 15.0028H106.758V30.0405H109.035V24.3382H112.214C114.735 24.3382 117.208 22.5337 117.208 19.6705C117.208 16.8073 114.711 15.0028 112.202 15.0028ZM112.251 22.245H109.023V17.084H112.251C113.956 17.084 114.918 18.4795 114.918 19.6585C114.918 20.8374 113.956 22.245 112.251 22.245ZM126.306 20.0916C124.661 20.0916 122.956 20.8134 122.25 22.3893L124.272 23.2194C124.698 22.3893 125.502 22.1126 126.342 22.1126C127.524 22.1126 128.717 22.8104 128.729 24.0495V24.2059C128.315 23.9773 127.438 23.6284 126.354 23.6284C124.174 23.6284 121.97 24.8074 121.97 27.0089C121.97 29.0179 123.748 30.3172 125.745 30.3172C127.268 30.3172 128.12 29.6435 128.644 28.8495H128.717V30.0165H130.909V24.254C130.922 21.5833 128.9 20.0916 126.306 20.0916ZM126.025 28.3322C125.283 28.3322 124.247 27.9593 124.247 27.057C124.247 25.9021 125.538 25.457 126.659 25.457C127.657 25.457 128.132 25.6736 128.729 25.9623C128.559 27.3458 127.341 28.3322 126.025 28.3322ZM138.911 20.4164L136.305 26.9367H136.232L133.528 20.4164H131.08L135.136 29.5352L132.822 34.6H135.197L141.445 20.4164H138.911ZM118.45 30.0405H120.727V15.0028H118.45V30.0405Z" fill="white"></path><path d="M1.02612 0.591442C0.693821 0.946661 0.499023 1.49668 0.499023 2.19566V27.5423C0.499023 28.2527 0.693821 28.8027 1.02612 29.1465L1.10634 29.2267L15.3037 15.0409V14.869V14.6971L1.10634 0.51123L1.02612 0.591442Z" fill="url(#paint0_linear_897_21443)"></path><path d="M20.0357 19.774L15.3032 15.0415V14.8697V14.6978L20.0357 9.96533L20.1388 10.0226L25.7421 13.2081C27.3463 14.1134 27.3463 15.603 25.7421 16.5197L20.1388 19.7052L20.0357 19.774Z" fill="url(#paint1_linear_897_21443)"></path><path d="M20.138 19.7167L15.3024 14.8696L1.0249 29.1472C1.552 29.7086 2.42286 29.7774 3.40831 29.2159L20.138 19.7167Z" fill="url(#paint2_linear_897_21443)"></path><path d="M20.1387 10.0343L3.39757 0.523559C2.41212 -0.0379166 1.54126 0.0308355 1.01416 0.592312L15.3032 14.8698L20.1387 10.0343Z" fill="url(#paint3_linear_897_21443)"></path><path opacity="0.2" d="M20.0354 19.6011L3.39734 29.0545C2.46919 29.5816 1.6327 29.5472 1.1056 29.066L1.02539 29.1462L1.1056 29.2264C1.64416 29.7076 2.46919 29.742 3.39734 29.2149L20.1385 19.7042L20.0354 19.6011Z" fill="white"></path><path opacity="0.12" d="M1.02564 28.9861C0.693333 28.6308 0.498535 28.0808 0.498535 27.3818V27.5537C0.498535 28.2642 0.693333 28.8142 1.02564 29.1579L1.10585 29.0777L1.02564 28.9861Z" fill="white"></path><path opacity="0.12" d="M25.7418 16.3593L20.0239 19.6021L20.1271 19.7052L25.7304 16.5197C26.5325 16.0613 26.9335 15.4655 26.9335 14.8696C26.8762 15.4082 26.4752 15.9467 25.7418 16.3593Z" fill="white"></path><path opacity="0.25" d="M3.39684 0.6837L25.7413 13.3799C26.4632 13.7924 26.8757 14.3195 26.9445 14.8696C26.9445 14.2737 26.5434 13.6664 25.7413 13.2195L3.39684 0.523278C1.79262 -0.381959 0.486328 0.374315 0.486328 2.20771V2.37959C0.486328 0.534737 1.80408 -0.221537 3.39684 0.6837Z" fill="#141F2E"></path><path d="M45.6121 4.27834H46.7587V7.53895C46.3447 7.88133 45.8629 8.14409 45.3135 8.32723C44.7641 8.51037 44.1908 8.60193 43.5936 8.60193C42.7496 8.60193 41.9892 8.4188 41.3124 8.05253C40.6356 7.67829 40.1021 7.1687 39.712 6.52374C39.3298 5.87082 39.1387 5.13828 39.1387 4.32611C39.1387 3.51395 39.3298 2.7814 39.712 2.12848C40.1021 1.47557 40.6356 0.965971 41.3124 0.5997C41.9972 0.233429 42.7656 0.050293 43.6175 0.050293C44.2864 0.050293 44.8915 0.161767 45.433 0.384715C45.9824 0.5997 46.4482 0.918196 46.8304 1.3402L46.0899 2.08071C45.421 1.43575 44.6128 1.11328 43.6653 1.11328C43.0283 1.11328 42.455 1.25262 41.9454 1.5313C41.4438 1.80203 41.0497 2.18422 40.763 2.67789C40.4764 3.1636 40.333 3.71301 40.333 4.32611C40.333 4.93126 40.4764 5.48066 40.763 5.97433C41.0497 6.46004 41.4438 6.84224 41.9454 7.12092C42.455 7.39961 43.0243 7.53895 43.6534 7.53895C44.4018 7.53895 45.0548 7.3598 45.6121 7.00149V4.27834Z" fill="white"></path><path d="M55.1128 7.46729V8.50638H49.0455V0.145842H54.9456V1.18494H50.2398V3.75282H54.432V4.76803H50.2398V7.46729H55.1128Z" fill="white"></path><path d="M58.7069 1.18494H55.8404V0.145842H62.7558V1.18494H59.8893V8.50638H58.7069V1.18494Z" fill="white"></path><path d="M67.2642 0.145842H68.4585V8.50638H67.2642V0.145842Z" fill="white"></path><path d="M78.1516 0.145842V8.50638H77.1722L72.1559 2.27181V8.50638H70.9616V0.145842H71.9409L76.9573 6.38042V0.145842H78.1516Z" fill="white"></path><path d="M87.6358 8.60193C86.7918 8.60193 86.0314 8.4188 85.3546 8.05253C84.6778 7.67829 84.1443 7.16472 83.7541 6.5118C83.3719 5.85888 83.1808 5.13032 83.1808 4.32611C83.1808 3.52191 83.3719 2.79335 83.7541 2.14043C84.1443 1.48751 84.6778 0.977915 85.3546 0.611644C86.0314 0.23741 86.7918 0.050293 87.6358 0.050293C88.4719 0.050293 89.2283 0.23741 89.9051 0.611644C90.5819 0.977915 91.1114 1.48751 91.4936 2.14043C91.8758 2.78538 92.0669 3.51395 92.0669 4.32611C92.0669 5.13828 91.8758 5.87082 91.4936 6.52374C91.1114 7.1687 90.5819 7.67829 89.9051 8.05253C89.2283 8.4188 88.4719 8.60193 87.6358 8.60193ZM87.6358 7.53895C88.2489 7.53895 88.7983 7.39961 89.284 7.12092C89.7777 6.84224 90.1639 6.46004 90.4426 5.97433C90.7292 5.48066 90.8725 4.93126 90.8725 4.32611C90.8725 3.72097 90.7292 3.17554 90.4426 2.68984C90.1639 2.19617 89.7777 1.80999 89.284 1.5313C88.7983 1.25262 88.2489 1.11328 87.6358 1.11328C87.0227 1.11328 86.4653 1.25262 85.9637 1.5313C85.47 1.80999 85.0799 2.19617 84.7932 2.68984C84.5145 3.17554 84.3752 3.72097 84.3752 4.32611C84.3752 4.93126 84.5145 5.48066 84.7932 5.97433C85.0799 6.46004 85.47 6.84224 85.9637 7.12092C86.4653 7.39961 87.0227 7.53895 87.6358 7.53895Z" fill="white"></path><path d="M101.082 0.145842V8.50638H100.103L95.0868 2.27181V8.50638H93.8924V0.145842H94.8718L99.8881 6.38042V0.145842H101.082Z" fill="white"></path><defs><linearGradient id="paint0_linear_897_21443" x1="14.0427" y1="1.93188" x2="-5.18769" y2="21.1623" gradientUnits="userSpaceOnUse"><stop stop-color="#00A0FF"></stop><stop offset="0.00657445" stop-color="#00A1FF"></stop><stop offset="0.2601" stop-color="#00BEFF"></stop><stop offset="0.5122" stop-color="#00D2FF"></stop><stop offset="0.7604" stop-color="#00DFFF"></stop><stop offset="1" stop-color="#00E3FF"></stop></linearGradient><linearGradient id="paint1_linear_897_21443" x1="27.8325" y1="14.8714" x2="0.106015" y2="14.8714" gradientUnits="userSpaceOnUse"><stop stop-color="#FFE000"></stop><stop offset="0.4087" stop-color="#FFBD00"></stop><stop offset="0.7754" stop-color="#FFA500"></stop><stop offset="1" stop-color="#FF9C00"></stop></linearGradient><linearGradient id="paint2_linear_897_21443" x1="17.5104" y1="17.5008" x2="-8.56763" y2="43.5788" gradientUnits="userSpaceOnUse"><stop stop-color="#FF3A44"></stop><stop offset="1" stop-color="#C31162"></stop></linearGradient><linearGradient id="paint3_linear_897_21443" x1="-2.57562" y1="-7.84553" x2="9.06939" y2="3.79937" gradientUnits="userSpaceOnUse"><stop stop-color="#32A071"></stop><stop offset="0.0685" stop-color="#2DA771"></stop><stop offset="0.4762" stop-color="#15CF74"></stop><stop offset="0.8009" stop-color="#06E775"></stop><stop offset="1" stop-color="#00F076"></stop></linearGradient></defs></svg>