<svg xmlns="http://www.w3.org/2000/svg" width="171" height="25" viewBox="0 0 171 25" fill="none"><g clip-path="url(#clip0_1041_7185)"><path d="M0 4.30455H6.48697V24.4132H10.7785V4.30455H17.2684V0.412842H0V4.30455Z" fill="white"></path><path d="M27.4786 0.412842L17.4883 24.4132H22.0222L23.9782 19.6283H34.6195L36.5755 24.4132H41.1064L31.1162 0.412842H27.4756H27.4786ZM25.3153 16.0792L29.2974 6.29872L33.2795 16.0792H25.3153Z" fill="white"></path><path d="M50.4634 0.412842H46.1719V24.4132H59.972V20.5215H50.4634V0.412842Z" fill="white"></path><path d="M103.461 17.0807L90.7934 0.412842H87.0156V24.4132H91.17V7.43783L104.112 24.4132H107.615V0.412842H103.461V17.0807Z" fill="white"></path><path d="M126 0C118.996 0 113.367 5.40564 113.367 12.4658C113.367 19.5259 118.996 24.8964 126 24.8964C133.003 24.8964 138.667 19.523 138.667 12.4658C138.667 5.40857 133.038 0 126 0ZM126 21.0047C121.229 21.0047 117.589 17.3209 117.589 12.4658C117.589 7.61065 121.229 3.89171 126 3.89171C130.77 3.89171 134.41 7.68093 134.41 12.4658C134.41 17.2506 130.77 21.0047 126 21.0047Z" fill="white"></path><path d="M166.768 0.412842H163.402L156.468 17.6312L149.57 0.412842H146.204L142.496 24.4132H146.615L148.951 9.05718L154.959 24.4132H158.013L164.021 9.09232L166.357 24.4132H170.476L166.768 0.412842Z" fill="white"></path><path d="M66.3708 15.7009L65.4453 16.2807V24.4126H80.927V20.5209H69.4741L66.3708 15.7009Z" fill="white"></path><path d="M58.8785 17.0104L67.0938 11.842L70.6584 17.5434L79.983 11.6721L80.8706 8.82292L77.9278 8.38367L71.7853 12.252L69.6278 8.79949V4.30455H80.6866V0.412842H65.4443V8.29875L56.8203 13.722L58.8785 17.0104Z" fill="white"></path></g><defs><clipPath id="clip0_1041_7185"><rect width="170.477" height="24.8964" fill="white"></rect></clipPath></defs></svg>