<svg xmlns="http://www.w3.org/2000/svg" width="663" height="400" viewBox="0 0 663 400" fill="none"><path opacity="0.3" d="M5.00049 518C4.86138 419.592 34.226 323.193 89.6392 240.146C109.13 211.164 131.888 183.577 161.322 163.558C177.911 152.26 198.867 143.19 218.273 149.255C233.145 153.978 243.622 166.483 251.931 179.149C283.815 228.392 294.856 288.021 325.557 337.639C326.246 338.749 327.247 339.654 328.446 340.251C329.646 340.848 330.997 341.114 332.346 341.02C333.696 340.925 334.991 340.473 336.086 339.714C337.181 338.956 338.031 337.921 338.542 336.727C342.288 327.952 342.795 317.432 343.161 307.691C344.852 256.214 349.894 204.887 358.258 154.005C362.173 129.853 367.412 104.869 380.396 84.0179C381.122 82.8851 382.174 81.9749 383.428 81.3958C384.681 80.8166 386.083 80.5929 387.466 80.7513C388.849 80.9096 390.155 81.4434 391.229 82.2889C392.302 83.1345 393.098 84.2563 393.522 85.5206L417.04 156.5C421.293 169.113 425.49 181.994 433.94 192.567C442.39 203.14 455.797 211.003 469.598 209.5C481.033 208.293 490.835 200.993 498.384 192.701C514.269 175.5 523.254 153.548 531.535 131.946C571.953 25.2483 601.161 -86.226 658 -186" stroke="white" stroke-width="10" stroke-miterlimit="10" stroke-linecap="round" stroke-linejoin="round" stroke-dasharray="30 30"></path></svg>