<?xml version="1.0" encoding="UTF-8"?>
<svg xmlns="http://www.w3.org/2000/svg" width="665" height="920" viewBox="0 0 665 920" fill="none">
  <g filter="url(#filter0_d_152_1603)">
    <rect x="152.027" y="143.999" width="274.947" height="570.16" rx="33.7772" fill="#FAFAFA"></rect>
    <g clip-path="url(#clip0_152_1603)">
      <rect x="162.813" y="154.251" width="253.332" height="548.549" rx="24.3196" fill="#ABECF1"></rect>
      <g clip-path="url(#clip1_152_1603)">
        <rect x="162.597" y="147.016" width="253.328" height="568.873" rx="31.284" transform="rotate(-0.0220371 162.597 147.016)" fill="white"></rect>
        <rect x="173.473" y="283.995" width="78.3404" height="8.41985" rx="4.20992" fill="#EBEAE8"></rect>
        <rect opacity="0.6" x="173.477" y="259.533" width="117.245" height="12.6298" rx="6.31489" fill="#CCCBC8"></rect>
        <rect width="245.058" height="36.5953" transform="translate(162.624 196.101) rotate(-0.0220362)" fill="white"></rect>
        <rect x="190.605" y="214.503" width="66.4772" height="6.31489" rx="3.15744" fill="#CCCBC8"></rect>
        <rect x="315.913" y="214.503" width="66.4772" height="6.31489" rx="3.15744" fill="#EBEAE8"></rect>
        <rect width="245.058" height="62.7348" transform="translate(162.663 334.774) rotate(-0.0220362)" fill="white"></rect>
        <rect opacity="0.6" x="173.479" y="353.955" width="72.1361" height="8.41985" rx="4.20992" fill="#CCCBC8"></rect>
        <rect x="357.265" y="353.953" width="34.9701" height="8.41985" rx="4.20992" fill="#EBEAE8"></rect>
        <rect x="173.476" y="370.113" width="62.7764" height="8.41985" rx="4.20992" fill="#EBEAE8"></rect>
        <rect width="245.058" height="62.7348" transform="translate(162.663 397.604) rotate(-0.0220362)" fill="white"></rect>
        <rect x="357.265" y="416.782" width="34.9701" height="8.41985" rx="4.20992" fill="#EBEAE8"></rect>
        <rect x="173.476" y="432.941" width="62.7764" height="8.41985" rx="4.20992" fill="#F5F5F5"></rect>
        <rect width="245.058" height="62.7348" transform="translate(162.663 459.497) rotate(-0.0220362)" fill="white"></rect>
        <rect x="173.479" y="478.679" width="115.9" height="8.41985" rx="4.20992" fill="#CCCBC8"></rect>
        <rect x="357.265" y="478.677" width="34.9701" height="8.41985" rx="4.20992" fill="#EBEAE8"></rect>
        <rect x="173.476" y="494.836" width="62.7764" height="8.41985" rx="4.20992" fill="#EBEAE8"></rect>
        <rect width="245.058" height="62.7348" transform="translate(162.663 522.233) rotate(-0.0220362)" fill="white"></rect>
        <rect x="173.479" y="541.414" width="71.3097" height="8.41985" rx="4.20992" fill="#CCCBC8"></rect>
        <rect x="357.265" y="541.412" width="34.9701" height="8.41985" rx="4.20992" fill="#EBEAE8"></rect>
        <rect x="173.476" y="557.571" width="62.7764" height="8.41985" rx="4.20992" fill="#EBEAE8"></rect>
        <rect width="245.058" height="62.7348" transform="translate(162.663 585.063) rotate(-0.0220362)" fill="white"></rect>
        <rect x="173.479" y="604.245" width="111.773" height="8.41985" rx="4.20992" fill="#CCCBC8"></rect>
        <rect x="357.265" y="604.243" width="34.9701" height="8.41985" rx="4.20992" fill="#EBEAE8"></rect>
        <rect x="173.476" y="620.402" width="62.7764" height="8.41985" rx="4.20992" fill="#EBEAE8"></rect>
        <rect width="245.058" height="47.7571" transform="translate(162.663 646.861) rotate(-0.0220362)" fill="white"></rect>
        <rect opacity="0.3" x="183.479" y="648.043" width="89.9042" height="8.41985" rx="4.20992" fill="#CCCBC8"></rect>
        <rect x="356.265" y="661.041" width="34.9701" height="8.41985" rx="4.20992" fill="#EBEAE8"></rect>
        <rect opacity="0.6" x="183.476" y="664.2" width="62.7764" height="8.41985" rx="4.20992" fill="#EBEAE8"></rect>
        <rect x="342.183" y="245.952" width="51.2546" height="51.2546" rx="8.54243" fill="#CEB6FA"></rect>
        <path fill-rule="evenodd" clip-rule="evenodd" d="M366.625 260.195C367.343 259.713 368.277 259.713 368.994 260.195L378.012 266.266C378.404 266.529 378.578 267.02 378.442 267.475C378.306 267.93 377.891 268.241 377.42 268.241L358.2 268.241C357.729 268.241 357.314 267.93 357.178 267.475C357.041 267.02 357.216 266.529 357.607 266.266L366.625 260.195ZM361.726 266.085L373.893 266.085L367.81 261.99L361.726 266.085ZM361.403 270.397C361.993 270.397 362.471 270.88 362.471 271.475L362.471 276.866C362.471 277.462 361.993 277.944 361.403 277.944C360.813 277.944 360.335 277.462 360.335 276.866L360.335 271.475C360.335 270.88 360.813 270.397 361.403 270.397ZM367.81 270.397C368.4 270.397 368.878 270.88 368.878 271.475L368.878 276.866C368.878 277.462 368.4 277.944 367.81 277.944C367.22 277.944 366.742 277.462 366.742 276.866L366.742 271.475C366.742 270.88 367.22 270.397 367.81 270.397ZM374.217 270.397C374.806 270.397 375.284 270.88 375.284 271.475L375.284 276.866C375.284 277.462 374.806 277.944 374.217 277.944C373.627 277.944 373.149 277.462 373.149 276.866L373.149 271.475C373.149 270.88 373.627 270.397 374.217 270.397ZM378.488 281.179C378.488 281.774 378.01 282.257 377.42 282.257L358.2 282.257C357.61 282.257 357.132 281.774 357.132 281.179C357.132 280.584 357.61 280.101 358.2 280.101L377.42 280.101C378.01 280.101 378.488 280.583 378.488 281.179Z" fill="#1A1917"></path>
        <path fill-rule="evenodd" clip-rule="evenodd" d="M397.315 176.516C396.653 176.517 396.117 177.053 396.117 177.715C396.117 178.377 396.654 178.913 397.316 178.912C397.977 178.912 398.513 178.376 398.513 177.714C398.513 177.052 397.976 176.516 397.315 176.516ZM394.919 177.715C394.919 176.392 395.991 175.319 397.314 175.318C398.638 175.318 399.711 176.39 399.711 177.713C399.712 179.037 398.639 180.11 397.316 180.111C395.993 180.111 394.92 179.039 394.919 177.715Z" fill="#CCCBC8"></path>
        <path fill-rule="evenodd" clip-rule="evenodd" d="M397.313 171.724C397.154 171.724 397.002 171.787 396.889 171.9C396.777 172.012 396.714 172.164 396.714 172.323L396.714 172.428C396.713 172.737 396.621 173.04 396.451 173.298C396.28 173.556 396.037 173.759 395.753 173.881C395.702 173.902 395.649 173.917 395.594 173.924C395.336 174.015 395.057 174.037 394.786 173.988C394.474 173.932 394.186 173.783 393.959 173.561L393.955 173.557L393.919 173.521C393.863 173.465 393.797 173.421 393.724 173.391C393.651 173.36 393.573 173.345 393.495 173.345C393.416 173.345 393.338 173.361 393.265 173.391C393.193 173.421 393.127 173.465 393.071 173.521L393.07 173.521C393.015 173.577 392.971 173.643 392.94 173.716C392.91 173.789 392.895 173.866 392.895 173.945C392.895 174.024 392.91 174.102 392.941 174.175C392.971 174.247 393.015 174.313 393.071 174.369L393.112 174.41C393.334 174.636 393.482 174.924 393.539 175.236C393.595 175.542 393.559 175.858 393.437 176.143C393.326 176.435 393.132 176.687 392.878 176.869C392.619 177.054 392.31 177.158 391.992 177.165L391.978 177.165L391.924 177.165C391.765 177.165 391.612 177.229 391.5 177.341C391.388 177.453 391.325 177.606 391.325 177.765C391.325 177.924 391.388 178.076 391.5 178.188C391.613 178.3 391.765 178.363 391.924 178.363L392.028 178.363C392.338 178.365 392.64 178.456 392.899 178.627C393.156 178.797 393.358 179.039 393.48 179.322C393.607 179.611 393.645 179.932 393.589 180.243C393.532 180.555 393.384 180.843 393.162 181.07L393.157 181.075L393.122 181.111C393.066 181.166 393.021 181.233 392.991 181.305C392.961 181.378 392.946 181.456 392.946 181.535C392.946 181.614 392.961 181.692 392.992 181.764C393.022 181.837 393.066 181.903 393.122 181.959L393.122 181.959C393.178 182.015 393.244 182.059 393.317 182.089C393.389 182.119 393.467 182.135 393.546 182.135C393.625 182.135 393.703 182.119 393.775 182.089C393.848 182.059 393.914 182.015 393.97 181.959L394.011 181.918C394.237 181.696 394.525 181.547 394.837 181.49C395.143 181.435 395.458 181.47 395.744 181.592C396.036 181.703 396.288 181.898 396.47 182.152C396.655 182.411 396.758 182.72 396.766 183.038L396.766 183.052L396.766 183.106C396.766 183.265 396.829 183.417 396.942 183.529C397.054 183.642 397.207 183.705 397.365 183.705C397.524 183.705 397.677 183.641 397.789 183.529C397.901 183.417 397.964 183.264 397.964 183.105L397.964 183.004L397.964 183.001C397.965 182.692 398.057 182.389 398.228 182.131C398.398 181.874 398.64 181.672 398.923 181.549C399.212 181.422 399.533 181.384 399.844 181.441C400.156 181.497 400.444 181.646 400.671 181.867L400.676 181.872L400.712 181.908C400.767 181.964 400.834 182.008 400.906 182.038C400.979 182.068 401.057 182.084 401.136 182.084C401.214 182.084 401.292 182.068 401.365 182.038C401.438 182.008 401.504 181.964 401.559 181.908L401.56 181.907C401.616 181.852 401.66 181.786 401.69 181.713C401.72 181.64 401.735 181.562 401.735 181.484C401.735 181.405 401.72 181.327 401.69 181.254C401.659 181.182 401.615 181.115 401.56 181.06L401.519 181.019C401.297 180.792 401.148 180.504 401.091 180.192C401.035 179.881 401.072 179.561 401.199 179.271C401.321 178.988 401.523 178.746 401.78 178.576C402.038 178.405 402.341 178.313 402.65 178.311L402.653 178.311L402.707 178.311C402.866 178.311 403.018 178.248 403.13 178.136C403.242 178.023 403.306 177.871 403.305 177.712C403.305 177.553 403.242 177.401 403.13 177.289C403.017 177.176 402.865 177.113 402.706 177.113L402.604 177.113L402.602 177.113C402.292 177.112 401.99 177.021 401.732 176.85C401.474 176.679 401.271 176.436 401.149 176.152C401.127 176.101 401.113 176.048 401.105 175.993C401.015 175.735 400.992 175.457 401.041 175.186C401.098 174.874 401.247 174.586 401.468 174.359L401.473 174.354L401.509 174.318C401.564 174.262 401.609 174.196 401.639 174.123C401.669 174.051 401.685 173.973 401.685 173.894C401.685 173.815 401.669 173.737 401.639 173.665C401.609 173.592 401.564 173.526 401.509 173.47L401.508 173.47C401.453 173.414 401.386 173.37 401.314 173.34C401.241 173.31 401.163 173.294 401.084 173.294C401.006 173.294 400.928 173.31 400.855 173.34C400.782 173.37 400.716 173.414 400.661 173.47L400.62 173.511C400.393 173.733 400.105 173.882 399.793 173.938C399.482 173.995 399.161 173.957 398.872 173.83C398.588 173.708 398.347 173.506 398.176 173.249C398.005 172.991 397.913 172.689 397.912 172.379L397.912 172.377L397.912 172.323C397.912 172.164 397.849 172.012 397.736 171.899C397.624 171.787 397.472 171.724 397.313 171.724ZM402.297 179.751C402.265 179.823 402.256 179.902 402.27 179.978C402.284 180.054 402.32 180.124 402.373 180.179L402.406 180.212C402.573 180.379 402.706 180.577 402.796 180.795C402.887 181.013 402.933 181.247 402.933 181.483C402.934 181.719 402.887 181.953 402.797 182.171C402.706 182.39 402.574 182.588 402.407 182.755L402.407 182.754C402.241 182.921 402.042 183.054 401.824 183.145C401.606 183.235 401.372 183.282 401.136 183.282C400.9 183.282 400.666 183.235 400.448 183.145C400.23 183.055 400.032 182.922 399.865 182.756L399.832 182.722C399.776 182.669 399.706 182.633 399.631 182.62C399.554 182.606 399.475 182.615 399.404 182.647L399.398 182.649C399.328 182.679 399.269 182.729 399.227 182.792C399.185 182.855 399.163 182.929 399.162 183.005L399.162 183.105C399.162 183.582 398.973 184.039 398.636 184.376C398.299 184.713 397.842 184.903 397.366 184.903C396.889 184.903 396.432 184.714 396.095 184.377C395.758 184.04 395.568 183.583 395.568 183.106L395.568 183.061C395.565 182.985 395.54 182.911 395.496 182.849C395.45 182.786 395.387 182.737 395.313 182.71C395.301 182.706 395.29 182.701 395.278 182.696C395.207 182.665 395.128 182.655 395.051 182.669C394.976 182.683 394.906 182.719 394.85 182.772L394.818 182.805C394.651 182.972 394.453 183.105 394.235 183.195C394.016 183.286 393.783 183.333 393.546 183.333C393.31 183.333 393.076 183.286 392.858 183.196C392.64 183.106 392.442 182.973 392.275 182.807C392.108 182.64 391.975 182.442 391.885 182.223C391.794 182.005 391.748 181.772 391.748 181.535C391.748 181.299 391.794 181.065 391.884 180.847C391.975 180.629 392.107 180.431 392.274 180.264L392.307 180.231C392.36 180.176 392.396 180.106 392.41 180.03C392.424 179.953 392.414 179.874 392.383 179.803L392.38 179.797C392.35 179.728 392.301 179.668 392.237 179.626C392.174 179.584 392.101 179.562 392.025 179.561L391.925 179.561C391.448 179.562 390.991 179.373 390.654 179.036C390.317 178.699 390.127 178.242 390.127 177.765C390.127 177.288 390.316 176.831 390.653 176.494C390.99 176.157 391.447 175.967 391.923 175.967L391.969 175.967C392.045 175.964 392.118 175.939 392.18 175.895C392.244 175.849 392.292 175.786 392.319 175.712C392.324 175.701 392.328 175.689 392.334 175.677C392.365 175.606 392.374 175.527 392.36 175.451C392.347 175.375 392.311 175.305 392.257 175.25L392.224 175.217C392.057 175.05 391.925 174.852 391.834 174.634C391.744 174.416 391.697 174.182 391.697 173.946C391.697 173.71 391.743 173.476 391.834 173.257C391.924 173.039 392.056 172.841 392.223 172.674C392.39 172.507 392.588 172.375 392.806 172.284C393.024 172.194 393.258 172.147 393.494 172.147C393.73 172.147 393.964 172.193 394.182 172.284C394.401 172.374 394.599 172.506 394.766 172.674L394.799 172.706C394.854 172.76 394.924 172.796 395 172.809C395.076 172.823 395.155 172.814 395.226 172.782C395.265 172.765 395.305 172.753 395.345 172.744C395.387 172.716 395.423 172.679 395.451 172.637C395.493 172.574 395.516 172.5 395.516 172.424L395.516 172.324C395.516 171.847 395.705 171.39 396.042 171.053C396.379 170.716 396.836 170.526 397.312 170.526C397.789 170.526 398.246 170.715 398.583 171.052C398.92 171.389 399.11 171.846 399.11 172.322L399.11 172.375C399.111 172.45 399.133 172.524 399.175 172.587C399.217 172.651 399.276 172.7 399.346 172.73L399.352 172.733C399.423 172.764 399.502 172.773 399.579 172.76C399.655 172.746 399.725 172.71 399.78 172.657L399.813 172.624C399.979 172.457 400.178 172.324 400.396 172.233C400.614 172.143 400.848 172.096 401.084 172.096C401.32 172.096 401.554 172.142 401.772 172.233C401.99 172.323 402.189 172.456 402.356 172.623C402.522 172.789 402.655 172.987 402.745 173.205C402.836 173.423 402.883 173.657 402.883 173.893C402.883 174.13 402.836 174.363 402.746 174.582C402.656 174.8 402.523 174.998 402.356 175.165L402.323 175.198C402.27 175.253 402.234 175.323 402.22 175.399C402.206 175.476 402.216 175.554 402.247 175.626C402.264 175.664 402.277 175.704 402.286 175.745C402.314 175.786 402.35 175.823 402.393 175.851C402.456 175.892 402.53 175.915 402.605 175.915L402.706 175.915C403.182 175.915 403.64 176.104 403.977 176.441C404.314 176.778 404.503 177.235 404.504 177.712C404.504 178.188 404.315 178.645 403.978 178.983C403.641 179.32 403.184 179.509 402.707 179.509L402.655 179.509C402.579 179.51 402.505 179.532 402.442 179.574C402.379 179.616 402.329 179.676 402.299 179.746L402.297 179.751Z" fill="#CCCBC8"></path>
        <g clip-path="url(#clip2_152_1603)">
          <path fill-rule="evenodd" clip-rule="evenodd" d="M365.271 177.727C365.336 177.836 365.423 177.976 365.531 178.138C365.807 178.552 366.216 179.103 366.747 179.652C367.821 180.762 369.321 181.791 371.178 181.791C373.036 181.79 374.535 180.759 375.608 179.649C376.138 179.1 376.547 178.548 376.823 178.133C376.931 177.972 377.017 177.832 377.083 177.722C377.017 177.612 376.93 177.473 376.823 177.311C376.547 176.897 376.137 176.345 375.606 175.796C374.533 174.687 373.032 173.658 371.175 173.658C369.318 173.659 367.818 174.69 366.746 175.8C366.215 176.349 365.806 176.901 365.53 177.316C365.423 177.477 365.336 177.617 365.271 177.727ZM377.766 177.722C378.302 177.462 378.302 177.461 378.302 177.461L378.301 177.46L378.299 177.456L378.292 177.443C378.286 177.432 378.278 177.417 378.268 177.398C378.247 177.36 378.216 177.305 378.177 177.237C378.098 177.101 377.982 176.909 377.829 176.681C377.525 176.224 377.072 175.614 376.48 175.002C375.306 173.788 373.511 172.496 371.175 172.497C368.839 172.497 367.045 173.791 365.872 175.006C365.28 175.618 364.828 176.229 364.524 176.686C364.371 176.915 364.255 177.106 364.176 177.243C364.137 177.311 364.107 177.365 364.086 177.403C364.075 177.422 364.067 177.437 364.062 177.448L364.055 177.461L364.053 177.465L364.052 177.466C364.052 177.466 364.051 177.467 364.587 177.727L364.051 177.467C363.967 177.631 363.967 177.823 364.052 177.987L364.587 177.727C364.052 177.987 364.052 177.987 364.052 177.987L364.053 177.989L364.055 177.993L364.062 178.006C364.067 178.017 364.076 178.032 364.086 178.051C364.107 178.089 364.137 178.143 364.177 178.212C364.256 178.348 364.372 178.539 364.524 178.768C364.829 179.225 365.281 179.835 365.874 180.447C367.048 181.661 368.843 182.953 371.179 182.952C373.515 182.951 375.309 181.657 376.482 180.443C377.074 179.83 377.526 179.22 377.83 178.763C377.982 178.534 378.098 178.342 378.177 178.206C378.217 178.138 378.247 178.084 378.268 178.046C378.278 178.026 378.286 178.011 378.292 178.001L378.299 177.988L378.301 177.984L378.302 177.982C378.302 177.982 378.302 177.981 377.766 177.722ZM377.766 177.722L378.302 177.981C378.386 177.818 378.386 177.625 378.302 177.461L377.766 177.722Z" fill="#CCCBC8"></path>
          <path fill-rule="evenodd" clip-rule="evenodd" d="M371.176 176.563C370.515 176.563 369.978 177.083 369.979 177.725C369.979 178.366 370.516 178.886 371.177 178.886C371.839 178.886 372.375 178.366 372.375 177.724C372.375 177.082 371.838 176.562 371.176 176.563ZM368.781 177.725C368.78 176.442 369.853 175.401 371.176 175.401C372.499 175.4 373.572 176.44 373.573 177.723C373.573 179.007 372.501 180.047 371.178 180.048C369.854 180.048 368.781 179.009 368.781 177.725Z" fill="#CCCBC8"></path>
        </g>
        <path d="M179.14 173.416L180.064 174.339L177.26 177.146L186.792 177.142L186.792 178.449L177.26 178.453L180.067 181.257L179.143 182.181L174.759 177.8L179.14 173.416V173.416Z" fill="#CCCBC8"></path>
      </g>
    </g>
    <path d="M426.973 266.272H427.986C428.546 266.272 428.999 266.725 428.999 267.285V330.111C428.999 330.67 428.546 331.124 427.986 331.124H426.973V266.272Z" fill="#DCE0E3"></path>
    <path d="M152.026 305.454H151.013C150.453 305.454 150 305.908 150 306.467V343.622C150 344.182 150.453 344.635 151.013 344.635H152.026V305.454Z" fill="#DCE0E3"></path>
    <path d="M152.026 253.436H151.013C150.453 253.436 150 253.89 150 254.45V291.605C150 292.164 150.453 292.618 151.013 292.618H152.026V253.436Z" fill="#DCE0E3"></path>
    <path d="M152.026 212.229H151.013C150.453 212.229 150 212.683 150 213.243V230.807C150 231.366 150.453 231.82 151.013 231.82H152.026V212.229Z" fill="#DCE0E3"></path>
    <g filter="url(#filter1_d_152_1603)">
      <rect x="114" y="308" width="73.2255" height="73.2607" rx="10" fill="#CFE7FD"></rect>
      <path fill-rule="evenodd" clip-rule="evenodd" d="M170.852 335.631C170.705 334.874 169.94 334.448 169.22 334.561L161.073 335.839C160.344 335.953 159.761 336.608 159.912 337.384C160.059 338.14 160.824 338.567 161.544 338.454L166.329 337.704L156.466 351.533L145.499 338.223C145.228 337.885 144.811 337.697 144.383 337.691C143.953 337.686 143.529 337.863 143.248 338.195L129.635 354.285C129.543 354.393 129.502 354.535 129.521 354.676C129.54 354.816 129.618 354.942 129.735 355.022L131.198 356.02C131.41 356.165 131.697 356.126 131.863 355.93L144.333 341.19L155.362 354.578C155.639 354.923 156.067 355.11 156.504 355.109C156.943 355.108 157.372 354.916 157.646 354.566C157.649 354.563 157.651 354.559 157.654 354.555C157.656 354.553 157.657 354.551 157.658 354.55L168.662 339.208L169.481 343.422C169.628 344.179 170.393 344.605 171.113 344.492C171.842 344.378 172.425 343.723 172.274 342.947L170.852 335.631Z" fill="#141F2E"></path>
    </g>
  </g>
  <g filter="url(#filter2_d_152_1603)">
    <rect x="21" y="589.081" width="285" height="39" rx="5" fill="white"></rect>
    <path d="M139.102 613.216C138.032 613.216 137.117 612.996 136.357 612.556C135.597 612.116 135.012 611.491 134.602 610.681C134.202 609.861 134.002 608.896 134.002 607.786C134.002 606.676 134.202 605.716 134.602 604.906C135.012 604.096 135.597 603.471 136.357 603.031C137.117 602.591 138.032 602.371 139.102 602.371C139.822 602.371 140.492 602.486 141.112 602.716C141.742 602.936 142.267 603.256 142.687 603.676L142.147 604.921C141.687 604.511 141.212 604.216 140.722 604.036C140.242 603.846 139.717 603.751 139.147 603.751C138.007 603.751 137.137 604.101 136.537 604.801C135.937 605.501 135.637 606.496 135.637 607.786C135.637 609.076 135.937 610.076 136.537 610.786C137.137 611.486 138.007 611.836 139.147 611.836C139.717 611.836 140.242 611.746 140.722 611.566C141.212 611.376 141.687 611.076 142.147 610.666L142.687 611.911C142.267 612.321 141.742 612.641 141.112 612.871C140.492 613.101 139.822 613.216 139.102 613.216ZM146.425 613.216C145.915 613.216 145.46 613.116 145.06 612.916C144.66 612.716 144.34 612.446 144.1 612.106C143.87 611.766 143.755 611.381 143.755 610.951C143.755 610.411 143.89 609.986 144.16 609.676C144.44 609.366 144.895 609.141 145.525 609.001C146.165 608.861 147.025 608.791 148.105 608.791H148.615V608.401C148.615 607.831 148.495 607.421 148.255 607.171C148.015 606.921 147.62 606.796 147.07 606.796C146.65 606.796 146.23 606.861 145.81 606.991C145.39 607.111 144.96 607.306 144.52 607.576L144.055 606.511C144.435 606.241 144.91 606.026 145.48 605.866C146.05 605.706 146.595 605.626 147.115 605.626C148.115 605.626 148.855 605.866 149.335 606.346C149.815 606.816 150.055 607.556 150.055 608.566V613.081H148.63V611.866C148.45 612.286 148.17 612.616 147.79 612.856C147.41 613.096 146.955 613.216 146.425 613.216ZM146.725 612.136C147.265 612.136 147.715 611.946 148.075 611.566C148.435 611.186 148.615 610.706 148.615 610.126V609.721H148.12C147.39 609.721 146.815 609.756 146.395 609.826C145.985 609.896 145.69 610.016 145.51 610.186C145.34 610.346 145.255 610.571 145.255 610.861C145.255 611.241 145.385 611.551 145.645 611.791C145.905 612.021 146.265 612.136 146.725 612.136ZM152.141 613.081V605.761H153.611V606.976C153.861 606.536 154.201 606.201 154.631 605.971C155.071 605.741 155.561 605.626 156.101 605.626C157.831 605.626 158.696 606.606 158.696 608.566V613.081H157.181V608.656C157.181 608.026 157.056 607.566 156.806 607.276C156.566 606.986 156.186 606.841 155.666 606.841C155.056 606.841 154.566 607.036 154.196 607.426C153.836 607.806 153.656 608.311 153.656 608.941V613.081H152.141ZM164.009 613.216C163.259 613.216 162.609 613.061 162.059 612.751C161.519 612.431 161.099 611.986 160.799 611.416C160.499 610.836 160.349 610.156 160.349 609.376C160.349 608.216 160.679 607.301 161.339 606.631C161.999 605.961 162.889 605.626 164.009 605.626C164.469 605.626 164.924 605.706 165.374 605.866C165.824 606.026 166.194 606.246 166.484 606.526L166.004 607.591C165.724 607.331 165.414 607.141 165.074 607.021C164.744 606.891 164.429 606.826 164.129 606.826C163.419 606.826 162.869 607.051 162.479 607.501C162.099 607.941 161.909 608.571 161.909 609.391C161.909 610.211 162.099 610.856 162.479 611.326C162.869 611.786 163.419 612.016 164.129 612.016C164.429 612.016 164.744 611.956 165.074 611.836C165.414 611.706 165.724 611.511 166.004 611.251L166.484 612.331C166.194 612.601 165.819 612.816 165.359 612.976C164.909 613.136 164.459 613.216 164.009 613.216ZM171.074 613.216C169.874 613.216 168.929 612.881 168.239 612.211C167.549 611.531 167.204 610.606 167.204 609.436C167.204 608.686 167.354 608.026 167.654 607.456C167.964 606.876 168.389 606.426 168.929 606.106C169.469 605.786 170.089 605.626 170.789 605.626C171.799 605.626 172.594 605.951 173.174 606.601C173.754 607.241 174.044 608.126 174.044 609.256V609.766H168.674C168.784 611.286 169.589 612.046 171.089 612.046C171.509 612.046 171.919 611.981 172.319 611.851C172.729 611.721 173.114 611.506 173.474 611.206L173.924 612.256C173.594 612.556 173.169 612.791 172.649 612.961C172.129 613.131 171.604 613.216 171.074 613.216ZM170.849 606.691C170.219 606.691 169.719 606.886 169.349 607.276C168.979 607.666 168.754 608.186 168.674 608.836H172.769C172.739 608.156 172.559 607.631 172.229 607.261C171.899 606.881 171.439 606.691 170.849 606.691ZM178.081 613.216C177.281 613.216 176.681 612.991 176.281 612.541C175.891 612.091 175.696 611.431 175.696 610.561V602.506H177.211V610.471C177.211 611.461 177.616 611.956 178.426 611.956C178.546 611.956 178.656 611.951 178.756 611.941C178.866 611.931 178.976 611.911 179.086 611.881L179.056 613.096C178.716 613.176 178.391 613.216 178.081 613.216ZM182.621 613.216C182.111 613.216 181.656 613.116 181.256 612.916C180.856 612.716 180.536 612.446 180.296 612.106C180.066 611.766 179.951 611.381 179.951 610.951C179.951 610.411 180.086 609.986 180.356 609.676C180.636 609.366 181.091 609.141 181.721 609.001C182.361 608.861 183.221 608.791 184.301 608.791H184.811V608.401C184.811 607.831 184.691 607.421 184.451 607.171C184.211 606.921 183.816 606.796 183.266 606.796C182.846 606.796 182.426 606.861 182.006 606.991C181.586 607.111 181.156 607.306 180.716 607.576L180.251 606.511C180.631 606.241 181.106 606.026 181.676 605.866C182.246 605.706 182.791 605.626 183.311 605.626C184.311 605.626 185.051 605.866 185.531 606.346C186.011 606.816 186.251 607.556 186.251 608.566V613.081H184.826V611.866C184.646 612.286 184.366 612.616 183.986 612.856C183.606 613.096 183.151 613.216 182.621 613.216ZM182.921 612.136C183.461 612.136 183.911 611.946 184.271 611.566C184.631 611.186 184.811 610.706 184.811 610.126V609.721H184.316C183.586 609.721 183.011 609.756 182.591 609.826C182.181 609.896 181.886 610.016 181.706 610.186C181.536 610.346 181.451 610.571 181.451 610.861C181.451 611.241 181.581 611.551 181.841 611.791C182.101 612.021 182.461 612.136 182.921 612.136ZM188.337 613.081V605.761H189.807V607.066C190.187 606.196 190.977 605.711 192.177 605.611L192.672 605.581L192.777 606.871L191.862 606.961C190.532 607.091 189.867 607.776 189.867 609.016V613.081H188.337Z" fill="#141F2E"></path>
  </g>
  <g filter="url(#filter3_d_152_1603)">
    <rect x="21" y="421" width="285" height="159.47" rx="5" fill="white"></rect>
  </g>
  <rect x="21" y="465.225" width="285" height="1.22845" fill="#D9D9D9"></rect>
  <rect x="21" y="503.307" width="285" height="1.22845" fill="#D9D9D9"></rect>
  <rect x="21" y="541.389" width="285" height="1.22845" fill="#D9D9D9"></rect>
  <path d="M81.2259 489.644C80.1559 489.644 79.2409 489.424 78.4809 488.984C77.7209 488.544 77.1359 487.919 76.7259 487.109C76.3259 486.289 76.1259 485.324 76.1259 484.214C76.1259 483.104 76.3259 482.144 76.7259 481.334C77.1359 480.524 77.7209 479.899 78.4809 479.459C79.2409 479.019 80.1559 478.799 81.2259 478.799C81.9459 478.799 82.6159 478.914 83.2359 479.144C83.8659 479.364 84.3909 479.684 84.8109 480.104L84.2709 481.349C83.8109 480.939 83.3359 480.644 82.8459 480.464C82.3659 480.274 81.8409 480.179 81.2709 480.179C80.1309 480.179 79.2609 480.529 78.6609 481.229C78.0609 481.929 77.7609 482.924 77.7609 484.214C77.7609 485.504 78.0609 486.504 78.6609 487.214C79.2609 487.914 80.1309 488.264 81.2709 488.264C81.8409 488.264 82.3659 488.174 82.8459 487.994C83.3359 487.804 83.8109 487.504 84.2709 487.094L84.8109 488.339C84.3909 488.749 83.8659 489.069 83.2359 489.299C82.6159 489.529 81.9459 489.644 81.2259 489.644ZM89.1102 489.644C88.3702 489.644 87.7302 489.489 87.1902 489.179C86.6502 488.869 86.2302 488.434 85.9302 487.874C85.6402 487.304 85.4952 486.629 85.4952 485.849C85.4952 485.069 85.6402 484.399 85.9302 483.839C86.2302 483.269 86.6502 482.829 87.1902 482.519C87.7302 482.209 88.3702 482.054 89.1102 482.054C89.8302 482.054 90.4602 482.209 91.0002 482.519C91.5402 482.829 91.9602 483.269 92.2602 483.839C92.5602 484.399 92.7102 485.069 92.7102 485.849C92.7102 486.629 92.5602 487.304 92.2602 487.874C91.9602 488.434 91.5402 488.869 91.0002 489.179C90.4602 489.489 89.8302 489.644 89.1102 489.644ZM89.1102 488.474C89.7302 488.474 90.2302 488.249 90.6102 487.799C90.9902 487.349 91.1802 486.699 91.1802 485.849C91.1802 484.999 90.9902 484.354 90.6102 483.914C90.2302 483.464 89.7302 483.239 89.1102 483.239C88.4802 483.239 87.9752 483.464 87.5952 483.914C87.2152 484.354 87.0252 484.999 87.0252 485.849C87.0252 486.699 87.2152 487.349 87.5952 487.799C87.9752 488.249 88.4802 488.474 89.1102 488.474ZM94.4117 489.509V482.189H95.8817V483.404C96.1317 482.964 96.4717 482.629 96.9017 482.399C97.3417 482.169 97.8317 482.054 98.3717 482.054C100.102 482.054 100.967 483.034 100.967 484.994V489.509H99.4517V485.084C99.4517 484.454 99.3267 483.994 99.0767 483.704C98.8367 483.414 98.4567 483.269 97.9367 483.269C97.3267 483.269 96.8367 483.464 96.4667 483.854C96.1067 484.234 95.9267 484.739 95.9267 485.369V489.509H94.4117ZM106.279 489.644C105.529 489.644 104.879 489.489 104.329 489.179C103.789 488.859 103.369 488.414 103.069 487.844C102.769 487.264 102.619 486.584 102.619 485.804C102.619 484.644 102.949 483.729 103.609 483.059C104.269 482.389 105.159 482.054 106.279 482.054C106.739 482.054 107.194 482.134 107.644 482.294C108.094 482.454 108.464 482.674 108.754 482.954L108.274 484.019C107.994 483.759 107.684 483.569 107.344 483.449C107.014 483.319 106.699 483.254 106.399 483.254C105.689 483.254 105.139 483.479 104.749 483.929C104.369 484.369 104.179 484.999 104.179 485.819C104.179 486.639 104.369 487.284 104.749 487.754C105.139 488.214 105.689 488.444 106.399 488.444C106.699 488.444 107.014 488.384 107.344 488.264C107.684 488.134 107.994 487.939 108.274 487.679L108.754 488.759C108.464 489.029 108.089 489.244 107.629 489.404C107.179 489.564 106.729 489.644 106.279 489.644ZM109.921 480.494V478.919H111.691V480.494H109.921ZM110.056 489.509V482.189H111.571V489.509H110.056ZM116.089 489.644C115.289 489.644 114.689 489.419 114.289 488.969C113.899 488.519 113.704 487.859 113.704 486.989V478.934H115.219V486.899C115.219 487.889 115.624 488.384 116.434 488.384C116.554 488.384 116.664 488.379 116.764 488.369C116.874 488.359 116.984 488.339 117.094 488.309L117.064 489.524C116.724 489.604 116.399 489.644 116.089 489.644ZM118.154 480.494V478.919H119.924V480.494H118.154ZM118.289 489.509V482.189H119.804V489.509H118.289ZM124.276 489.644C123.766 489.644 123.311 489.544 122.911 489.344C122.511 489.144 122.191 488.874 121.951 488.534C121.721 488.194 121.606 487.809 121.606 487.379C121.606 486.839 121.741 486.414 122.011 486.104C122.291 485.794 122.746 485.569 123.376 485.429C124.016 485.289 124.876 485.219 125.956 485.219H126.466V484.829C126.466 484.259 126.346 483.849 126.106 483.599C125.866 483.349 125.471 483.224 124.921 483.224C124.501 483.224 124.081 483.289 123.661 483.419C123.241 483.539 122.811 483.734 122.371 484.004L121.906 482.939C122.286 482.669 122.761 482.454 123.331 482.294C123.901 482.134 124.446 482.054 124.966 482.054C125.966 482.054 126.706 482.294 127.186 482.774C127.666 483.244 127.906 483.984 127.906 484.994V489.509H126.481V488.294C126.301 488.714 126.021 489.044 125.641 489.284C125.261 489.524 124.806 489.644 124.276 489.644ZM124.576 488.564C125.116 488.564 125.566 488.374 125.926 487.994C126.286 487.614 126.466 487.134 126.466 486.554V486.149H125.971C125.241 486.149 124.666 486.184 124.246 486.254C123.836 486.324 123.541 486.444 123.361 486.614C123.191 486.774 123.106 486.999 123.106 487.289C123.106 487.669 123.236 487.979 123.496 488.219C123.756 488.449 124.116 488.564 124.576 488.564ZM129.993 489.509V482.189H131.463V483.494C131.843 482.624 132.633 482.139 133.833 482.039L134.328 482.009L134.433 483.299L133.518 483.389C132.188 483.519 131.523 484.204 131.523 485.444V489.509H129.993ZM139.964 489.509V483.359H138.539V482.189H139.964V482.054C139.964 481.044 140.219 480.284 140.729 479.774C141.249 479.264 142.044 478.979 143.114 478.919L143.774 478.874L143.879 480.014L143.189 480.059C142.579 480.099 142.139 480.264 141.869 480.554C141.609 480.844 141.479 481.274 141.479 481.844V482.189H143.534V483.359H141.479V489.509H139.964ZM146.996 489.644C146.486 489.644 146.031 489.544 145.631 489.344C145.231 489.144 144.911 488.874 144.671 488.534C144.441 488.194 144.326 487.809 144.326 487.379C144.326 486.839 144.461 486.414 144.731 486.104C145.011 485.794 145.466 485.569 146.096 485.429C146.736 485.289 147.596 485.219 148.676 485.219H149.186V484.829C149.186 484.259 149.066 483.849 148.826 483.599C148.586 483.349 148.191 483.224 147.641 483.224C147.221 483.224 146.801 483.289 146.381 483.419C145.961 483.539 145.531 483.734 145.091 484.004L144.626 482.939C145.006 482.669 145.481 482.454 146.051 482.294C146.621 482.134 147.166 482.054 147.686 482.054C148.686 482.054 149.426 482.294 149.906 482.774C150.386 483.244 150.626 483.984 150.626 484.994V489.509H149.201V488.294C149.021 488.714 148.741 489.044 148.361 489.284C147.981 489.524 147.526 489.644 146.996 489.644ZM147.296 488.564C147.836 488.564 148.286 488.374 148.646 487.994C149.006 487.614 149.186 487.134 149.186 486.554V486.149H148.691C147.961 486.149 147.386 486.184 146.966 486.254C146.556 486.324 146.261 486.444 146.081 486.614C145.911 486.774 145.826 486.999 145.826 487.289C145.826 487.669 145.956 487.979 146.216 488.219C146.476 488.449 146.836 488.564 147.296 488.564ZM155.937 489.644C155.187 489.644 154.537 489.489 153.987 489.179C153.447 488.859 153.027 488.414 152.727 487.844C152.427 487.264 152.277 486.584 152.277 485.804C152.277 484.644 152.607 483.729 153.267 483.059C153.927 482.389 154.817 482.054 155.937 482.054C156.397 482.054 156.852 482.134 157.302 482.294C157.752 482.454 158.122 482.674 158.412 482.954L157.932 484.019C157.652 483.759 157.342 483.569 157.002 483.449C156.672 483.319 156.357 483.254 156.057 483.254C155.347 483.254 154.797 483.479 154.407 483.929C154.027 484.369 153.837 484.999 153.837 485.819C153.837 486.639 154.027 487.284 154.407 487.754C154.797 488.214 155.347 488.444 156.057 488.444C156.357 488.444 156.672 488.384 157.002 488.264C157.342 488.134 157.652 487.939 157.932 487.679L158.412 488.759C158.122 489.029 157.747 489.244 157.287 489.404C156.837 489.564 156.387 489.644 155.937 489.644ZM162.849 489.644C161.929 489.644 161.244 489.409 160.794 488.939C160.344 488.469 160.119 487.789 160.119 486.899V483.359H158.694V482.189H160.119V479.984H161.634V482.189H163.899V483.359H161.634V486.779C161.634 487.309 161.744 487.709 161.964 487.979C162.194 488.249 162.564 488.384 163.074 488.384C163.234 488.384 163.389 488.369 163.539 488.339C163.689 488.299 163.839 488.254 163.989 488.204L164.229 489.344C164.079 489.434 163.869 489.504 163.599 489.554C163.339 489.614 163.089 489.644 162.849 489.644ZM167.818 489.644C166.048 489.644 165.163 488.659 165.163 486.689V482.189H166.678V486.704C166.678 487.294 166.798 487.729 167.038 488.009C167.278 488.289 167.658 488.429 168.178 488.429C168.748 488.429 169.208 488.239 169.558 487.859C169.918 487.479 170.098 486.969 170.098 486.329V482.189H171.613V489.509H170.143V488.339C169.903 488.769 169.583 489.094 169.183 489.314C168.783 489.534 168.328 489.644 167.818 489.644ZM173.748 489.509V482.189H175.218V483.494C175.598 482.624 176.388 482.139 177.588 482.039L178.083 482.009L178.188 483.299L177.273 483.389C175.943 483.519 175.278 484.204 175.278 485.444V489.509H173.748ZM181.61 489.644C181.1 489.644 180.645 489.544 180.245 489.344C179.845 489.144 179.525 488.874 179.285 488.534C179.055 488.194 178.94 487.809 178.94 487.379C178.94 486.839 179.075 486.414 179.345 486.104C179.625 485.794 180.08 485.569 180.71 485.429C181.35 485.289 182.21 485.219 183.29 485.219H183.8V484.829C183.8 484.259 183.68 483.849 183.44 483.599C183.2 483.349 182.805 483.224 182.255 483.224C181.835 483.224 181.415 483.289 180.995 483.419C180.575 483.539 180.145 483.734 179.705 484.004L179.24 482.939C179.62 482.669 180.095 482.454 180.665 482.294C181.235 482.134 181.78 482.054 182.3 482.054C183.3 482.054 184.04 482.294 184.52 482.774C185 483.244 185.24 483.984 185.24 484.994V489.509H183.815V488.294C183.635 488.714 183.355 489.044 182.975 489.284C182.595 489.524 182.14 489.644 181.61 489.644ZM181.91 488.564C182.45 488.564 182.9 488.374 183.26 487.994C183.62 487.614 183.8 487.134 183.8 486.554V486.149H183.305C182.575 486.149 182 486.184 181.58 486.254C181.17 486.324 180.875 486.444 180.695 486.614C180.525 486.774 180.44 486.999 180.44 487.289C180.44 487.669 180.57 487.979 180.83 488.219C181.09 488.449 181.45 488.564 181.91 488.564ZM194.447 489.644C193.707 489.644 193.067 489.489 192.527 489.179C191.987 488.869 191.567 488.434 191.267 487.874C190.977 487.304 190.832 486.629 190.832 485.849C190.832 485.069 190.977 484.399 191.267 483.839C191.567 483.269 191.987 482.829 192.527 482.519C193.067 482.209 193.707 482.054 194.447 482.054C195.167 482.054 195.797 482.209 196.337 482.519C196.877 482.829 197.297 483.269 197.597 483.839C197.897 484.399 198.047 485.069 198.047 485.849C198.047 486.629 197.897 487.304 197.597 487.874C197.297 488.434 196.877 488.869 196.337 489.179C195.797 489.489 195.167 489.644 194.447 489.644ZM194.447 488.474C195.067 488.474 195.567 488.249 195.947 487.799C196.327 487.349 196.517 486.699 196.517 485.849C196.517 484.999 196.327 484.354 195.947 483.914C195.567 483.464 195.067 483.239 194.447 483.239C193.817 483.239 193.312 483.464 192.932 483.914C192.552 484.354 192.362 484.999 192.362 485.849C192.362 486.699 192.552 487.349 192.932 487.799C193.312 488.249 193.817 488.474 194.447 488.474ZM206.809 489.644C205.889 489.644 205.204 489.409 204.754 488.939C204.304 488.469 204.079 487.789 204.079 486.899V483.359H202.654V482.189H204.079V479.984H205.594V482.189H207.859V483.359H205.594V486.779C205.594 487.309 205.704 487.709 205.924 487.979C206.154 488.249 206.524 488.384 207.034 488.384C207.194 488.384 207.349 488.369 207.499 488.339C207.649 488.299 207.799 488.254 207.949 488.204L208.189 489.344C208.039 489.434 207.829 489.504 207.559 489.554C207.299 489.614 207.049 489.644 206.809 489.644ZM209.033 480.494V478.919H210.803V480.494H209.033ZM209.168 489.509V482.189H210.683V489.509H209.168ZM216.04 489.644C215.29 489.644 214.64 489.489 214.09 489.179C213.55 488.859 213.13 488.414 212.83 487.844C212.53 487.264 212.38 486.584 212.38 485.804C212.38 484.644 212.71 483.729 213.37 483.059C214.03 482.389 214.92 482.054 216.04 482.054C216.5 482.054 216.955 482.134 217.405 482.294C217.855 482.454 218.225 482.674 218.515 482.954L218.035 484.019C217.755 483.759 217.445 483.569 217.105 483.449C216.775 483.319 216.46 483.254 216.16 483.254C215.45 483.254 214.9 483.479 214.51 483.929C214.13 484.369 213.94 484.999 213.94 485.819C213.94 486.639 214.13 487.284 214.51 487.754C214.9 488.214 215.45 488.444 216.16 488.444C216.46 488.444 216.775 488.384 217.105 488.264C217.445 488.134 217.755 487.939 218.035 487.679L218.515 488.759C218.225 489.029 217.85 489.244 217.39 489.404C216.94 489.564 216.49 489.644 216.04 489.644ZM219.817 489.509V478.934H221.332V485.384H221.362L224.542 482.189H226.417L222.907 485.714L226.687 489.509H224.797L221.362 486.164H221.332V489.509H219.817ZM230.825 489.644C229.625 489.644 228.68 489.309 227.99 488.639C227.3 487.959 226.955 487.034 226.955 485.864C226.955 485.114 227.105 484.454 227.405 483.884C227.715 483.304 228.14 482.854 228.68 482.534C229.22 482.214 229.84 482.054 230.54 482.054C231.55 482.054 232.345 482.379 232.925 483.029C233.505 483.669 233.795 484.554 233.795 485.684V486.194H228.425C228.535 487.714 229.34 488.474 230.84 488.474C231.26 488.474 231.67 488.409 232.07 488.279C232.48 488.149 232.865 487.934 233.225 487.634L233.675 488.684C233.345 488.984 232.92 489.219 232.4 489.389C231.88 489.559 231.355 489.644 230.825 489.644ZM230.6 483.119C229.97 483.119 229.47 483.314 229.1 483.704C228.73 484.094 228.505 484.614 228.425 485.264H232.52C232.49 484.584 232.31 484.059 231.98 483.689C231.65 483.309 231.19 483.119 230.6 483.119ZM238.552 489.644C237.632 489.644 236.947 489.409 236.497 488.939C236.047 488.469 235.822 487.789 235.822 486.899V483.359H234.397V482.189H235.822V479.984H237.337V482.189H239.602V483.359H237.337V486.779C237.337 487.309 237.447 487.709 237.667 487.979C237.897 488.249 238.267 488.384 238.777 488.384C238.937 488.384 239.092 488.369 239.242 488.339C239.392 488.299 239.542 488.254 239.692 488.204L239.932 489.344C239.782 489.434 239.572 489.504 239.302 489.554C239.042 489.614 238.792 489.644 238.552 489.644Z" fill="#141F2E"></path>
  <path d="M104.362 527.849V517.274H108.097C109.837 517.274 111.177 517.729 112.117 518.639C113.067 519.549 113.542 520.854 113.542 522.554C113.542 524.254 113.067 525.564 112.117 526.484C111.177 527.394 109.837 527.849 108.097 527.849H104.362ZM105.922 526.544H108.007C110.617 526.544 111.922 525.214 111.922 522.554C111.922 519.904 110.617 518.579 108.007 518.579H105.922V526.544ZM118.896 527.984C117.696 527.984 116.751 527.649 116.061 526.979C115.371 526.299 115.026 525.374 115.026 524.204C115.026 523.454 115.176 522.794 115.476 522.224C115.786 521.644 116.211 521.194 116.751 520.874C117.291 520.554 117.911 520.394 118.611 520.394C119.621 520.394 120.416 520.719 120.996 521.369C121.576 522.009 121.866 522.894 121.866 524.024V524.534H116.496C116.606 526.054 117.411 526.814 118.911 526.814C119.331 526.814 119.741 526.749 120.141 526.619C120.551 526.489 120.936 526.274 121.296 525.974L121.746 527.024C121.416 527.324 120.991 527.559 120.471 527.729C119.951 527.899 119.426 527.984 118.896 527.984ZM118.671 521.459C118.041 521.459 117.541 521.654 117.171 522.044C116.801 522.434 116.576 522.954 116.496 523.604H120.591C120.561 522.924 120.381 522.399 120.051 522.029C119.721 521.649 119.261 521.459 118.671 521.459ZM123.443 518.834V517.259H125.213V518.834H123.443ZM121.733 530.744L121.628 529.604L122.288 529.544C123.138 529.454 123.563 528.944 123.563 528.014V520.529H125.078V527.849C125.078 528.769 124.863 529.454 124.433 529.904C124.013 530.364 123.328 530.629 122.378 530.699L121.733 530.744ZM129.55 527.984C129.04 527.984 128.585 527.884 128.185 527.684C127.785 527.484 127.465 527.214 127.225 526.874C126.995 526.534 126.88 526.149 126.88 525.719C126.88 525.179 127.015 524.754 127.285 524.444C127.565 524.134 128.02 523.909 128.65 523.769C129.29 523.629 130.15 523.559 131.23 523.559H131.74V523.169C131.74 522.599 131.62 522.189 131.38 521.939C131.14 521.689 130.745 521.564 130.195 521.564C129.775 521.564 129.355 521.629 128.935 521.759C128.515 521.879 128.085 522.074 127.645 522.344L127.18 521.279C127.56 521.009 128.035 520.794 128.605 520.634C129.175 520.474 129.72 520.394 130.24 520.394C131.24 520.394 131.98 520.634 132.46 521.114C132.94 521.584 133.18 522.324 133.18 523.334V527.849H131.755V526.634C131.575 527.054 131.295 527.384 130.915 527.624C130.535 527.864 130.08 527.984 129.55 527.984ZM129.85 526.904C130.39 526.904 130.84 526.714 131.2 526.334C131.56 525.954 131.74 525.474 131.74 524.894V524.489H131.245C130.515 524.489 129.94 524.524 129.52 524.594C129.11 524.664 128.815 524.784 128.635 524.954C128.465 525.114 128.38 525.339 128.38 525.629C128.38 526.009 128.51 526.319 128.77 526.559C129.03 526.789 129.39 526.904 129.85 526.904ZM135.266 527.849V520.529H136.736V521.834C137.116 520.964 137.906 520.479 139.106 520.379L139.601 520.349L139.706 521.639L138.791 521.729C137.461 521.859 136.796 522.544 136.796 523.784V527.849H135.266ZM144.802 530.549V520.529H146.287V521.774C146.497 521.354 146.817 521.019 147.247 520.769C147.677 520.519 148.172 520.394 148.732 520.394C149.382 520.394 149.947 520.549 150.427 520.859C150.917 521.169 151.292 521.609 151.552 522.179C151.822 522.739 151.957 523.409 151.957 524.189C151.957 524.969 151.822 525.644 151.552 526.214C151.292 526.784 150.917 527.224 150.427 527.534C149.947 527.834 149.382 527.984 148.732 527.984C148.192 527.984 147.707 527.869 147.277 527.639C146.857 527.399 146.537 527.074 146.317 526.664V530.549H144.802ZM148.357 526.814C148.987 526.814 149.487 526.589 149.857 526.139C150.237 525.689 150.427 525.039 150.427 524.189C150.427 523.339 150.237 522.694 149.857 522.254C149.487 521.804 148.987 521.579 148.357 521.579C147.727 521.579 147.222 521.804 146.842 522.254C146.472 522.694 146.287 523.339 146.287 524.189C146.287 525.039 146.472 525.689 146.842 526.139C147.222 526.589 147.727 526.814 148.357 526.814ZM157.1 527.984C155.9 527.984 154.955 527.649 154.265 526.979C153.575 526.299 153.23 525.374 153.23 524.204C153.23 523.454 153.38 522.794 153.68 522.224C153.99 521.644 154.415 521.194 154.955 520.874C155.495 520.554 156.115 520.394 156.815 520.394C157.825 520.394 158.62 520.719 159.2 521.369C159.78 522.009 160.07 522.894 160.07 524.024V524.534H154.7C154.81 526.054 155.615 526.814 157.115 526.814C157.535 526.814 157.945 526.749 158.345 526.619C158.755 526.489 159.14 526.274 159.5 525.974L159.95 527.024C159.62 527.324 159.195 527.559 158.675 527.729C158.155 527.899 157.63 527.984 157.1 527.984ZM156.875 521.459C156.245 521.459 155.745 521.654 155.375 522.044C155.005 522.434 154.78 522.954 154.7 523.604H158.795C158.765 522.924 158.585 522.399 158.255 522.029C157.925 521.649 157.465 521.459 156.875 521.459ZM161.721 527.849V520.529H163.191V521.744C163.441 521.304 163.781 520.969 164.211 520.739C164.651 520.509 165.141 520.394 165.681 520.394C167.411 520.394 168.276 521.374 168.276 523.334V527.849H166.761V523.424C166.761 522.794 166.636 522.334 166.386 522.044C166.146 521.754 165.766 521.609 165.246 521.609C164.636 521.609 164.146 521.804 163.776 522.194C163.416 522.574 163.236 523.079 163.236 523.709V527.849H161.721ZM173.154 527.984C172.514 527.984 171.949 527.834 171.459 527.534C170.979 527.224 170.604 526.784 170.334 526.214C170.064 525.644 169.929 524.969 169.929 524.189C169.929 523.409 170.064 522.739 170.334 522.179C170.604 521.609 170.979 521.169 171.459 520.859C171.939 520.549 172.504 520.394 173.154 520.394C173.704 520.394 174.194 520.514 174.624 520.754C175.054 520.994 175.374 521.319 175.584 521.729V517.274H177.099V527.849H175.614V526.574C175.404 527.014 175.079 527.359 174.639 527.609C174.209 527.859 173.714 527.984 173.154 527.984ZM173.544 526.814C174.164 526.814 174.664 526.589 175.044 526.139C175.424 525.689 175.614 525.039 175.614 524.189C175.614 523.339 175.424 522.694 175.044 522.254C174.664 521.804 174.164 521.579 173.544 521.579C172.914 521.579 172.409 521.804 172.029 522.254C171.649 522.694 171.459 523.339 171.459 524.189C171.459 525.039 171.649 525.689 172.029 526.139C172.409 526.589 172.914 526.814 173.544 526.814ZM179.091 518.834V517.259H180.861V518.834H179.091ZM179.226 527.849V520.529H180.741V527.849H179.226ZM186.309 527.984C185.109 527.984 184.164 527.649 183.474 526.979C182.784 526.299 182.439 525.374 182.439 524.204C182.439 523.454 182.589 522.794 182.889 522.224C183.199 521.644 183.624 521.194 184.164 520.874C184.704 520.554 185.324 520.394 186.024 520.394C187.034 520.394 187.829 520.719 188.409 521.369C188.989 522.009 189.279 522.894 189.279 524.024V524.534H183.909C184.019 526.054 184.824 526.814 186.324 526.814C186.744 526.814 187.154 526.749 187.554 526.619C187.964 526.489 188.349 526.274 188.709 525.974L189.159 527.024C188.829 527.324 188.404 527.559 187.884 527.729C187.364 527.899 186.839 527.984 186.309 527.984ZM186.084 521.459C185.454 521.459 184.954 521.654 184.584 522.044C184.214 522.434 183.989 522.954 183.909 523.604H188.004C187.974 522.924 187.794 522.399 187.464 522.029C187.134 521.649 186.674 521.459 186.084 521.459ZM190.93 527.849V520.529H192.4V521.744C192.65 521.304 192.99 520.969 193.42 520.739C193.86 520.509 194.35 520.394 194.89 520.394C196.62 520.394 197.485 521.374 197.485 523.334V527.849H195.97V523.424C195.97 522.794 195.845 522.334 195.595 522.044C195.355 521.754 194.975 521.609 194.455 521.609C193.845 521.609 193.355 521.804 192.985 522.194C192.625 522.574 192.445 523.079 192.445 523.709V527.849H190.93ZM202.693 527.984C201.773 527.984 201.088 527.749 200.638 527.279C200.188 526.809 199.963 526.129 199.963 525.239V521.699H198.538V520.529H199.963V518.324H201.478V520.529H203.743V521.699H201.478V525.119C201.478 525.649 201.588 526.049 201.808 526.319C202.038 526.589 202.408 526.724 202.918 526.724C203.078 526.724 203.233 526.709 203.383 526.679C203.533 526.639 203.683 526.594 203.833 526.544L204.073 527.684C203.923 527.774 203.713 527.844 203.443 527.894C203.183 527.954 202.933 527.984 202.693 527.984ZM208.413 527.984C207.213 527.984 206.268 527.649 205.578 526.979C204.888 526.299 204.543 525.374 204.543 524.204C204.543 523.454 204.693 522.794 204.993 522.224C205.303 521.644 205.728 521.194 206.268 520.874C206.808 520.554 207.428 520.394 208.128 520.394C209.138 520.394 209.933 520.719 210.513 521.369C211.093 522.009 211.383 522.894 211.383 524.024V524.534H206.013C206.123 526.054 206.928 526.814 208.428 526.814C208.848 526.814 209.258 526.749 209.658 526.619C210.068 526.489 210.453 526.274 210.813 525.974L211.263 527.024C210.933 527.324 210.508 527.559 209.988 527.729C209.468 527.899 208.943 527.984 208.413 527.984ZM208.188 521.459C207.558 521.459 207.058 521.654 206.688 522.044C206.318 522.434 206.093 522.954 206.013 523.604H210.108C210.078 522.924 209.898 522.399 209.568 522.029C209.238 521.649 208.778 521.459 208.188 521.459Z" fill="#141F2E"></path>
  <path d="M101.25 566.325C100.18 566.325 99.2653 566.105 98.5053 565.665C97.7453 565.225 97.1603 564.6 96.7503 563.79C96.3503 562.97 96.1503 562.005 96.1503 560.895C96.1503 559.785 96.3503 558.825 96.7503 558.015C97.1603 557.205 97.7453 556.58 98.5053 556.14C99.2653 555.7 100.18 555.48 101.25 555.48C101.97 555.48 102.64 555.595 103.26 555.825C103.89 556.045 104.415 556.365 104.835 556.785L104.295 558.03C103.835 557.62 103.36 557.325 102.87 557.145C102.39 556.955 101.865 556.86 101.295 556.86C100.155 556.86 99.2853 557.21 98.6853 557.91C98.0853 558.61 97.7853 559.605 97.7853 560.895C97.7853 562.185 98.0853 563.185 98.6853 563.895C99.2853 564.595 100.155 564.945 101.295 564.945C101.865 564.945 102.39 564.855 102.87 564.675C103.36 564.485 103.835 564.185 104.295 563.775L104.835 565.02C104.415 565.43 103.89 565.75 103.26 565.98C102.64 566.21 101.97 566.325 101.25 566.325ZM106.482 566.19V558.87H107.952V560.175C108.332 559.305 109.122 558.82 110.322 558.72L110.817 558.69L110.922 559.98L110.007 560.07C108.677 560.2 108.012 560.885 108.012 562.125V566.19H106.482ZM115.41 566.325C114.21 566.325 113.265 565.99 112.575 565.32C111.885 564.64 111.54 563.715 111.54 562.545C111.54 561.795 111.69 561.135 111.99 560.565C112.3 559.985 112.725 559.535 113.265 559.215C113.805 558.895 114.425 558.735 115.125 558.735C116.135 558.735 116.93 559.06 117.51 559.71C118.09 560.35 118.38 561.235 118.38 562.365V562.875H113.01C113.12 564.395 113.925 565.155 115.425 565.155C115.845 565.155 116.255 565.09 116.655 564.96C117.065 564.83 117.45 564.615 117.81 564.315L118.26 565.365C117.93 565.665 117.505 565.9 116.985 566.07C116.465 566.24 115.94 566.325 115.41 566.325ZM115.185 559.8C114.555 559.8 114.055 559.995 113.685 560.385C113.315 560.775 113.09 561.295 113.01 561.945H117.105C117.075 561.265 116.895 560.74 116.565 560.37C116.235 559.99 115.775 559.8 115.185 559.8ZM122.372 566.325C121.862 566.325 121.407 566.225 121.007 566.025C120.607 565.825 120.287 565.555 120.047 565.215C119.817 564.875 119.702 564.49 119.702 564.06C119.702 563.52 119.837 563.095 120.107 562.785C120.387 562.475 120.842 562.25 121.472 562.11C122.112 561.97 122.972 561.9 124.052 561.9H124.562V561.51C124.562 560.94 124.442 560.53 124.202 560.28C123.962 560.03 123.567 559.905 123.017 559.905C122.597 559.905 122.177 559.97 121.757 560.1C121.337 560.22 120.907 560.415 120.467 560.685L120.002 559.62C120.382 559.35 120.857 559.135 121.427 558.975C121.997 558.815 122.542 558.735 123.062 558.735C124.062 558.735 124.802 558.975 125.282 559.455C125.762 559.925 126.002 560.665 126.002 561.675V566.19H124.577V564.975C124.397 565.395 124.117 565.725 123.737 565.965C123.357 566.205 122.902 566.325 122.372 566.325ZM122.672 565.245C123.212 565.245 123.662 565.055 124.022 564.675C124.382 564.295 124.562 563.815 124.562 563.235V562.83H124.067C123.337 562.83 122.762 562.865 122.342 562.935C121.932 563.005 121.637 563.125 121.457 563.295C121.287 563.455 121.202 563.68 121.202 563.97C121.202 564.35 121.332 564.66 121.592 564.9C121.852 565.13 122.212 565.245 122.672 565.245ZM128.088 566.19V558.87H129.558V560.175C129.938 559.305 130.728 558.82 131.928 558.72L132.423 558.69L132.528 559.98L131.613 560.07C130.283 560.2 129.618 560.885 129.618 562.125V566.19H128.088ZM137.625 566.19V558.87H139.095V560.085C139.345 559.645 139.685 559.31 140.115 559.08C140.555 558.85 141.045 558.735 141.585 558.735C143.315 558.735 144.18 559.715 144.18 561.675V566.19H142.665V561.765C142.665 561.135 142.54 560.675 142.29 560.385C142.05 560.095 141.67 559.95 141.15 559.95C140.54 559.95 140.05 560.145 139.68 560.535C139.32 560.915 139.14 561.42 139.14 562.05V566.19H137.625ZM148.877 566.325C147.107 566.325 146.222 565.34 146.222 563.37V558.87H147.737V563.385C147.737 563.975 147.857 564.41 148.097 564.69C148.337 564.97 148.717 565.11 149.237 565.11C149.807 565.11 150.267 564.92 150.617 564.54C150.977 564.16 151.157 563.65 151.157 563.01V558.87H152.672V566.19H151.202V565.02C150.962 565.45 150.642 565.775 150.242 565.995C149.842 566.215 149.387 566.325 148.877 566.325ZM158.242 566.325C157.042 566.325 156.097 565.99 155.407 565.32C154.717 564.64 154.372 563.715 154.372 562.545C154.372 561.795 154.522 561.135 154.822 560.565C155.132 559.985 155.557 559.535 156.097 559.215C156.637 558.895 157.257 558.735 157.957 558.735C158.967 558.735 159.762 559.06 160.342 559.71C160.922 560.35 161.212 561.235 161.212 562.365V562.875H155.842C155.952 564.395 156.757 565.155 158.257 565.155C158.677 565.155 159.087 565.09 159.487 564.96C159.897 564.83 160.282 564.615 160.642 564.315L161.092 565.365C160.762 565.665 160.337 565.9 159.817 566.07C159.297 566.24 158.772 566.325 158.242 566.325ZM158.017 559.8C157.387 559.8 156.887 559.995 156.517 560.385C156.147 560.775 155.922 561.295 155.842 561.945H159.937C159.907 561.265 159.727 560.74 159.397 560.37C159.067 559.99 158.607 559.8 158.017 559.8ZM164.906 566.19L161.756 558.87H163.391L165.626 564.435L167.921 558.87H169.466L166.271 566.19H164.906ZM173.602 566.325C172.862 566.325 172.222 566.17 171.682 565.86C171.142 565.55 170.722 565.115 170.422 564.555C170.132 563.985 169.987 563.31 169.987 562.53C169.987 561.75 170.132 561.08 170.422 560.52C170.722 559.95 171.142 559.51 171.682 559.2C172.222 558.89 172.862 558.735 173.602 558.735C174.322 558.735 174.952 558.89 175.492 559.2C176.032 559.51 176.452 559.95 176.752 560.52C177.052 561.08 177.202 561.75 177.202 562.53C177.202 563.31 177.052 563.985 176.752 564.555C176.452 565.115 176.032 565.55 175.492 565.86C174.952 566.17 174.322 566.325 173.602 566.325ZM173.602 565.155C174.222 565.155 174.722 564.93 175.102 564.48C175.482 564.03 175.672 563.38 175.672 562.53C175.672 561.68 175.482 561.035 175.102 560.595C174.722 560.145 174.222 559.92 173.602 559.92C172.972 559.92 172.467 560.145 172.087 560.595C171.707 561.035 171.517 561.68 171.517 562.53C171.517 563.38 171.707 564.03 172.087 564.48C172.467 564.93 172.972 565.155 173.602 565.155ZM186.159 569.025C185.499 569.025 184.884 568.945 184.314 568.785C183.744 568.635 183.239 568.395 182.799 568.065L183.264 566.985C183.704 567.285 184.154 567.505 184.614 567.645C185.074 567.785 185.554 567.855 186.054 567.855C187.454 567.855 188.154 567.155 188.154 565.755V564.6C187.944 565.04 187.614 565.385 187.164 565.635C186.724 565.885 186.229 566.01 185.679 566.01C185.019 566.01 184.444 565.86 183.954 565.56C183.464 565.25 183.084 564.825 182.814 564.285C182.544 563.735 182.409 563.095 182.409 562.365C182.409 561.645 182.544 561.015 182.814 560.475C183.084 559.925 183.464 559.5 183.954 559.2C184.444 558.89 185.019 558.735 185.679 558.735C186.239 558.735 186.739 558.86 187.179 559.11C187.619 559.36 187.944 559.705 188.154 560.145V558.87H189.624V565.575C189.624 566.725 189.329 567.585 188.739 568.155C188.149 568.735 187.289 569.025 186.159 569.025ZM186.039 564.825C186.679 564.825 187.189 564.605 187.569 564.165C187.949 563.725 188.139 563.125 188.139 562.365C188.139 561.605 187.949 561.01 187.569 560.58C187.189 560.14 186.679 559.92 186.039 559.92C185.399 559.92 184.889 560.14 184.509 560.58C184.129 561.01 183.939 561.605 183.939 562.365C183.939 563.125 184.129 563.725 184.509 564.165C184.889 564.605 185.399 564.825 186.039 564.825ZM194.091 566.325C193.581 566.325 193.126 566.225 192.726 566.025C192.326 565.825 192.006 565.555 191.766 565.215C191.536 564.875 191.421 564.49 191.421 564.06C191.421 563.52 191.556 563.095 191.826 562.785C192.106 562.475 192.561 562.25 193.191 562.11C193.831 561.97 194.691 561.9 195.771 561.9H196.281V561.51C196.281 560.94 196.161 560.53 195.921 560.28C195.681 560.03 195.286 559.905 194.736 559.905C194.316 559.905 193.896 559.97 193.476 560.1C193.056 560.22 192.626 560.415 192.186 560.685L191.721 559.62C192.101 559.35 192.576 559.135 193.146 558.975C193.716 558.815 194.261 558.735 194.781 558.735C195.781 558.735 196.521 558.975 197.001 559.455C197.481 559.925 197.721 560.665 197.721 561.675V566.19H196.296V564.975C196.116 565.395 195.836 565.725 195.456 565.965C195.076 566.205 194.621 566.325 194.091 566.325ZM194.391 565.245C194.931 565.245 195.381 565.055 195.741 564.675C196.101 564.295 196.281 563.815 196.281 563.235V562.83H195.786C195.056 562.83 194.481 562.865 194.061 562.935C193.651 563.005 193.356 563.125 193.176 563.295C193.006 563.455 192.921 563.68 192.921 563.97C192.921 564.35 193.051 564.66 193.311 564.9C193.571 565.13 193.931 565.245 194.391 565.245ZM202.372 566.325C201.772 566.325 201.212 566.25 200.692 566.1C200.172 565.94 199.737 565.72 199.387 565.44L199.822 564.42C200.192 564.68 200.597 564.88 201.037 565.02C201.487 565.16 201.937 565.23 202.387 565.23C202.917 565.23 203.317 565.135 203.587 564.945C203.857 564.755 203.992 564.5 203.992 564.18C203.992 563.92 203.902 563.72 203.722 563.58C203.542 563.43 203.272 563.315 202.912 563.235L201.487 562.95C200.227 562.69 199.597 562.04 199.597 561C199.597 560.31 199.872 559.76 200.422 559.35C200.972 558.94 201.692 558.735 202.582 558.735C203.092 558.735 203.577 558.81 204.037 558.96C204.507 559.11 204.897 559.335 205.207 559.635L204.772 560.655C204.472 560.395 204.127 560.195 203.737 560.055C203.347 559.915 202.962 559.845 202.582 559.845C202.062 559.845 201.667 559.945 201.397 560.145C201.127 560.335 200.992 560.595 200.992 560.925C200.992 561.425 201.322 561.745 201.982 561.885L203.407 562.17C204.057 562.3 204.547 562.52 204.877 562.83C205.217 563.14 205.387 563.56 205.387 564.09C205.387 564.79 205.112 565.34 204.562 565.74C204.012 566.13 203.282 566.325 202.372 566.325ZM210.12 566.325C209.2 566.325 208.515 566.09 208.065 565.62C207.615 565.15 207.39 564.47 207.39 563.58V560.04H205.965V558.87H207.39V556.665H208.905V558.87H211.17V560.04H208.905V563.46C208.905 563.99 209.015 564.39 209.235 564.66C209.465 564.93 209.835 565.065 210.345 565.065C210.505 565.065 210.66 565.05 210.81 565.02C210.96 564.98 211.11 564.935 211.26 564.885L211.5 566.025C211.35 566.115 211.14 566.185 210.87 566.235C210.61 566.295 210.36 566.325 210.12 566.325ZM215.585 566.325C214.845 566.325 214.205 566.17 213.665 565.86C213.125 565.55 212.705 565.115 212.405 564.555C212.115 563.985 211.97 563.31 211.97 562.53C211.97 561.75 212.115 561.08 212.405 560.52C212.705 559.95 213.125 559.51 213.665 559.2C214.205 558.89 214.845 558.735 215.585 558.735C216.305 558.735 216.935 558.89 217.475 559.2C218.015 559.51 218.435 559.95 218.735 560.52C219.035 561.08 219.185 561.75 219.185 562.53C219.185 563.31 219.035 563.985 218.735 564.555C218.435 565.115 218.015 565.55 217.475 565.86C216.935 566.17 216.305 566.325 215.585 566.325ZM215.585 565.155C216.205 565.155 216.705 564.93 217.085 564.48C217.465 564.03 217.655 563.38 217.655 562.53C217.655 561.68 217.465 561.035 217.085 560.595C216.705 560.145 216.205 559.92 215.585 559.92C214.955 559.92 214.45 560.145 214.07 560.595C213.69 561.035 213.5 561.68 213.5 562.53C213.5 563.38 213.69 564.03 214.07 564.48C214.45 564.93 214.955 565.155 215.585 565.155Z" fill="#141F2E"></path>
  <path opacity="0.7" d="M61.225 443.911V442.602H62.5228V443.911H61.225ZM61.6979 450.048C61.038 450.048 60.5064 449.894 60.1032 449.587C59.6999 449.279 59.4982 448.875 59.4982 448.377C59.4982 448.069 59.5679 447.775 59.7072 447.497C59.8539 447.218 60.1178 446.907 60.4991 446.562C60.8511 446.254 61.093 445.983 61.225 445.748C61.3643 445.513 61.4523 445.271 61.489 445.022L61.533 444.758H62.2149V445.099C62.2149 445.422 62.1489 445.73 62.0169 446.023C61.8922 446.316 61.6613 446.628 61.324 446.958C61.0527 447.222 60.8694 447.449 60.7741 447.64C60.6787 447.823 60.6311 448.014 60.6311 448.212C60.6311 448.476 60.7301 448.685 60.928 448.839C61.126 449 61.401 449.081 61.7529 449.081C62.1415 449.081 62.5045 449.015 62.8418 448.883C63.1791 448.758 63.5017 448.567 63.8096 448.311L64.2056 449.169C63.9123 449.44 63.5383 449.652 63.0837 449.806C62.6365 449.968 62.1745 450.048 61.6979 450.048ZM70.1255 450.235L69.1356 448.641C68.901 448.259 68.5197 448.069 67.9918 448.069C67.2586 448.069 66.6207 447.907 66.0781 447.585C65.5355 447.255 65.1139 446.793 64.8132 446.199C64.52 445.598 64.3733 444.894 64.3733 444.087C64.3733 443.273 64.52 442.569 64.8132 441.976C65.1139 441.382 65.5355 440.923 66.0781 440.601C66.6207 440.278 67.2622 440.117 68.0028 440.117C68.736 440.117 69.3739 440.278 69.9165 440.601C70.4665 440.923 70.8881 441.382 71.1814 441.976C71.482 442.569 71.6323 443.27 71.6323 444.076C71.6323 444.993 71.4417 445.774 71.0604 446.419C70.6864 447.057 70.1695 447.515 69.5096 447.794C69.8102 447.889 70.0778 448.138 70.3125 448.542L71.0824 449.762L70.1255 450.235ZM68.0028 447.079C68.7727 447.079 69.3703 446.819 69.7956 446.298C70.2282 445.77 70.4445 445.033 70.4445 444.087C70.4445 443.141 70.2318 442.408 69.8066 441.888C69.3813 441.367 68.78 441.107 68.0028 441.107C67.2329 441.107 66.6317 441.367 66.1991 441.888C65.7738 442.408 65.5611 443.141 65.5611 444.087C65.5611 445.033 65.7738 445.77 66.1991 446.298C66.6317 446.819 67.2329 447.079 68.0028 447.079ZM74.9581 448.069C73.6603 448.069 73.0114 447.346 73.0114 445.902V442.602H74.1222V445.913C74.1222 446.346 74.2102 446.665 74.3862 446.87C74.5622 447.075 74.8408 447.178 75.2221 447.178C75.64 447.178 75.9773 447.039 76.234 446.76C76.4979 446.481 76.6299 446.107 76.6299 445.638V442.602H77.7407V447.97H76.6629V447.112C76.4869 447.427 76.2523 447.665 75.959 447.827C75.6657 447.988 75.3321 448.069 74.9581 448.069ZM81.8249 448.069C80.945 448.069 80.2521 447.823 79.7462 447.332C79.2402 446.833 78.9873 446.155 78.9873 445.297C78.9873 444.747 79.0972 444.263 79.3172 443.845C79.5445 443.42 79.8561 443.09 80.2521 442.855C80.648 442.621 81.1026 442.503 81.6159 442.503C82.3565 442.503 82.9394 442.742 83.3647 443.218C83.7899 443.688 84.0026 444.337 84.0026 445.165V445.539H80.0651C80.1458 446.654 80.736 447.211 81.8359 447.211C82.1438 447.211 82.4444 447.163 82.7377 447.068C83.0384 446.973 83.3207 446.815 83.5846 446.595L83.9146 447.365C83.6726 447.585 83.361 447.757 82.9797 447.882C82.5984 448.006 82.2135 448.069 81.8249 448.069ZM81.6599 443.284C81.198 443.284 80.8313 443.427 80.56 443.713C80.2887 443.999 80.1238 444.381 80.0651 444.857H83.0677C83.0457 444.359 82.9137 443.974 82.6717 443.702C82.4298 443.424 82.0925 443.284 81.6599 443.284ZM81.2419 441.888L82.3748 439.666H83.5076L82.0118 441.888H81.2419ZM91.9303 449.949V447.09C91.7763 447.39 91.5417 447.629 91.2264 447.805C90.9111 447.981 90.5518 448.069 90.1486 448.069C89.672 448.069 89.2577 447.959 88.9057 447.739C88.5538 447.511 88.2788 447.189 88.0808 446.771C87.8829 446.353 87.7839 445.858 87.7839 445.286C87.7839 444.714 87.8829 444.223 88.0808 443.812C88.2788 443.394 88.5538 443.072 88.9057 442.844C89.265 442.617 89.6793 442.503 90.1486 442.503C90.5592 442.503 90.9221 442.599 91.2374 442.789C91.56 442.973 91.7983 443.222 91.9523 443.537V442.602H93.0412V449.949H91.9303ZM90.4345 447.211C90.8891 447.211 91.2557 447.046 91.5344 446.716C91.813 446.386 91.9523 445.909 91.9523 445.286C91.9523 444.663 91.813 444.19 91.5344 443.867C91.2557 443.537 90.8891 443.372 90.4345 443.372C89.9726 443.372 89.6023 443.537 89.3237 443.867C89.045 444.19 88.9057 444.663 88.9057 445.286C88.9057 445.909 89.045 446.386 89.3237 446.716C89.6023 447.046 89.9726 447.211 90.4345 447.211ZM96.5147 448.069C95.2169 448.069 94.568 447.346 94.568 445.902V442.602H95.6788V445.913C95.6788 446.346 95.7668 446.665 95.9428 446.87C96.1187 447.075 96.3974 447.178 96.7787 447.178C97.1966 447.178 97.5339 447.039 97.7905 446.76C98.0545 446.481 98.1865 446.107 98.1865 445.638V442.602H99.2973V447.97H98.2195V447.112C98.0435 447.427 97.8088 447.665 97.5156 447.827C97.2223 447.988 96.8886 448.069 96.5147 448.069ZM100.764 441.36V440.205H102.062V441.36H100.764ZM100.863 447.97V442.602H101.974V447.97H100.863ZM106.056 448.069C105.176 448.069 104.483 447.823 103.977 447.332C103.471 446.833 103.218 446.155 103.218 445.297C103.218 444.747 103.328 444.263 103.548 443.845C103.776 443.42 104.087 443.09 104.483 442.855C104.879 442.621 105.334 442.503 105.847 442.503C106.587 442.503 107.17 442.742 107.596 443.218C108.021 443.688 108.234 444.337 108.234 445.165V445.539H104.296C104.377 446.654 104.967 447.211 106.067 447.211C106.375 447.211 106.675 447.163 106.969 447.068C107.269 446.973 107.552 446.815 107.816 446.595L108.146 447.365C107.904 447.585 107.592 447.757 107.211 447.882C106.829 448.006 106.444 448.069 106.056 448.069ZM105.891 443.284C105.429 443.284 105.062 443.427 104.791 443.713C104.52 443.999 104.355 444.381 104.296 444.857H107.299C107.277 444.359 107.145 443.974 106.903 443.702C106.661 443.424 106.323 443.284 105.891 443.284ZM109.445 447.97V442.602H110.522V443.559C110.801 442.921 111.38 442.566 112.26 442.492L112.623 442.47L112.7 443.416L112.029 443.482C111.054 443.578 110.566 444.08 110.566 444.989V447.97H109.445ZM115.991 448.069C115.111 448.069 114.418 447.823 113.912 447.332C113.406 446.833 113.153 446.155 113.153 445.297C113.153 444.747 113.263 444.263 113.483 443.845C113.711 443.42 114.022 443.09 114.418 442.855C114.814 442.621 115.269 442.503 115.782 442.503C116.523 442.503 117.106 442.742 117.531 443.218C117.956 443.688 118.169 444.337 118.169 445.165V445.539H114.231C114.312 446.654 114.902 447.211 116.002 447.211C116.31 447.211 116.611 447.163 116.904 447.068C117.204 446.973 117.487 446.815 117.751 446.595L118.081 447.365C117.839 447.585 117.527 447.757 117.146 447.882C116.765 448.006 116.38 448.069 115.991 448.069ZM115.826 443.284C115.364 443.284 114.997 443.427 114.726 443.713C114.455 443.999 114.29 444.381 114.231 444.857H117.234C117.212 444.359 117.08 443.974 116.838 443.702C116.596 443.424 116.259 443.284 115.826 443.284ZM121.26 448.069C120.821 448.069 120.41 448.014 120.029 447.904C119.647 447.786 119.328 447.625 119.072 447.42L119.391 446.672C119.662 446.863 119.959 447.009 120.282 447.112C120.612 447.214 120.942 447.266 121.271 447.266C121.66 447.266 121.953 447.196 122.151 447.057C122.349 446.918 122.448 446.731 122.448 446.496C122.448 446.305 122.382 446.159 122.25 446.056C122.118 445.946 121.92 445.862 121.656 445.803L120.612 445.594C119.688 445.403 119.226 444.927 119.226 444.164C119.226 443.658 119.427 443.255 119.831 442.954C120.234 442.654 120.762 442.503 121.414 442.503C121.788 442.503 122.144 442.558 122.481 442.668C122.826 442.778 123.112 442.943 123.339 443.163L123.02 443.911C122.8 443.721 122.547 443.574 122.261 443.471C121.975 443.369 121.693 443.317 121.414 443.317C121.033 443.317 120.744 443.391 120.546 443.537C120.348 443.677 120.249 443.867 120.249 444.109C120.249 444.476 120.491 444.711 120.975 444.813L122.019 445.022C122.496 445.117 122.855 445.279 123.097 445.506C123.347 445.733 123.471 446.041 123.471 446.43C123.471 446.943 123.27 447.346 122.866 447.64C122.463 447.926 121.928 448.069 121.26 448.069ZM127.596 447.97V440.216H128.707V443.438C128.891 443.13 129.136 442.899 129.444 442.745C129.759 442.584 130.111 442.503 130.5 442.503C131.768 442.503 132.403 443.222 132.403 444.659V447.97H131.292V444.725C131.292 444.263 131.2 443.926 131.017 443.713C130.841 443.501 130.562 443.394 130.181 443.394C129.734 443.394 129.374 443.537 129.103 443.823C128.839 444.102 128.707 444.472 128.707 444.934V447.97H127.596ZM135.649 448.069C135.275 448.069 134.942 447.995 134.648 447.849C134.355 447.702 134.12 447.504 133.944 447.255C133.776 447.006 133.691 446.723 133.691 446.408C133.691 446.012 133.79 445.7 133.988 445.473C134.194 445.246 134.527 445.081 134.989 444.978C135.458 444.875 136.089 444.824 136.881 444.824H137.255V444.538C137.255 444.12 137.167 443.82 136.991 443.636C136.815 443.453 136.525 443.361 136.122 443.361C135.814 443.361 135.506 443.409 135.198 443.504C134.89 443.592 134.575 443.735 134.252 443.933L133.911 443.152C134.19 442.954 134.538 442.797 134.956 442.679C135.374 442.562 135.774 442.503 136.155 442.503C136.888 442.503 137.431 442.679 137.783 443.031C138.135 443.376 138.311 443.919 138.311 444.659V447.97H137.266V447.079C137.134 447.387 136.929 447.629 136.65 447.805C136.371 447.981 136.038 448.069 135.649 448.069ZM135.869 447.277C136.265 447.277 136.595 447.138 136.859 446.859C137.123 446.58 137.255 446.228 137.255 445.803V445.506H136.892C136.357 445.506 135.935 445.532 135.627 445.583C135.326 445.634 135.11 445.722 134.978 445.847C134.854 445.964 134.791 446.129 134.791 446.342C134.791 446.621 134.887 446.848 135.077 447.024C135.268 447.193 135.532 447.277 135.869 447.277ZM142.205 448.069C141.655 448.069 141.179 447.955 140.776 447.728C140.38 447.493 140.072 447.167 139.852 446.749C139.632 446.324 139.522 445.825 139.522 445.253C139.522 444.403 139.764 443.732 140.248 443.24C140.732 442.749 141.384 442.503 142.205 442.503C142.543 442.503 142.876 442.562 143.206 442.679C143.536 442.797 143.808 442.958 144.02 443.163L143.668 443.944C143.463 443.754 143.236 443.614 142.986 443.526C142.744 443.431 142.513 443.383 142.293 443.383C141.773 443.383 141.37 443.548 141.084 443.878C140.805 444.201 140.666 444.663 140.666 445.264C140.666 445.865 140.805 446.338 141.084 446.683C141.37 447.02 141.773 447.189 142.293 447.189C142.513 447.189 142.744 447.145 142.986 447.057C143.236 446.962 143.463 446.819 143.668 446.628L144.02 447.42C143.808 447.618 143.533 447.775 143.195 447.893C142.865 448.01 142.535 448.069 142.205 448.069ZM147.386 448.069C146.506 448.069 145.813 447.823 145.307 447.332C144.801 446.833 144.548 446.155 144.548 445.297C144.548 444.747 144.658 444.263 144.878 443.845C145.106 443.42 145.417 443.09 145.813 442.855C146.209 442.621 146.664 442.503 147.177 442.503C147.918 442.503 148.501 442.742 148.926 443.218C149.351 443.688 149.564 444.337 149.564 445.165V445.539H145.626C145.707 446.654 146.297 447.211 147.397 447.211C147.705 447.211 148.006 447.163 148.299 447.068C148.6 446.973 148.882 446.815 149.146 446.595L149.476 447.365C149.234 447.585 148.922 447.757 148.541 447.882C148.16 448.006 147.775 448.069 147.386 448.069ZM147.221 443.284C146.759 443.284 146.392 443.427 146.121 443.713C145.85 443.999 145.685 444.381 145.626 444.857H148.629C148.607 444.359 148.475 443.974 148.233 443.702C147.991 443.424 147.654 443.284 147.221 443.284ZM150.775 447.97V442.602H151.853V443.559C152.131 442.921 152.71 442.566 153.59 442.492L153.953 442.47L154.03 443.416L153.359 443.482C152.384 443.578 151.897 444.08 151.897 444.989V447.97H150.775ZM160.132 448.069C159.582 448.069 159.105 447.955 158.702 447.728C158.306 447.493 157.998 447.167 157.778 446.749C157.558 446.324 157.448 445.825 157.448 445.253C157.448 444.403 157.69 443.732 158.174 443.24C158.658 442.749 159.31 442.503 160.132 442.503C160.469 442.503 160.803 442.562 161.132 442.679C161.462 442.797 161.734 442.958 161.946 443.163L161.594 443.944C161.389 443.754 161.162 443.614 160.913 443.526C160.671 443.431 160.44 443.383 160.22 443.383C159.699 443.383 159.296 443.548 159.01 443.878C158.731 444.201 158.592 444.663 158.592 445.264C158.592 445.865 158.731 446.338 159.01 446.683C159.296 447.02 159.699 447.189 160.22 447.189C160.44 447.189 160.671 447.145 160.913 447.057C161.162 446.962 161.389 446.819 161.594 446.628L161.946 447.42C161.734 447.618 161.459 447.775 161.121 447.893C160.792 448.01 160.462 448.069 160.132 448.069ZM165.125 448.069C164.583 448.069 164.113 447.955 163.717 447.728C163.322 447.5 163.014 447.182 162.794 446.771C162.581 446.353 162.475 445.858 162.475 445.286C162.475 444.714 162.581 444.223 162.794 443.812C163.014 443.394 163.322 443.072 163.717 442.844C164.113 442.617 164.583 442.503 165.125 442.503C165.653 442.503 166.115 442.617 166.511 442.844C166.907 443.072 167.215 443.394 167.435 443.812C167.655 444.223 167.765 444.714 167.765 445.286C167.765 445.858 167.655 446.353 167.435 446.771C167.215 447.182 166.907 447.5 166.511 447.728C166.115 447.955 165.653 448.069 165.125 448.069ZM165.125 447.211C165.58 447.211 165.946 447.046 166.225 446.716C166.504 446.386 166.643 445.909 166.643 445.286C166.643 444.663 166.504 444.19 166.225 443.867C165.946 443.537 165.58 443.372 165.125 443.372C164.663 443.372 164.293 443.537 164.014 443.867C163.736 444.19 163.596 444.663 163.596 445.286C163.596 445.909 163.736 446.386 164.014 446.716C164.293 447.046 164.663 447.211 165.125 447.211ZM169.012 447.97V442.602H170.09V443.493C170.274 443.171 170.523 442.925 170.838 442.756C171.161 442.588 171.52 442.503 171.916 442.503C173.185 442.503 173.819 443.222 173.819 444.659V447.97H172.708V444.725C172.708 444.263 172.616 443.926 172.433 443.713C172.257 443.501 171.978 443.394 171.597 443.394C171.15 443.394 170.791 443.537 170.519 443.823C170.255 444.102 170.123 444.472 170.123 444.934V447.97H169.012ZM180.757 448.069C179.877 448.069 179.185 447.823 178.679 447.332C178.173 446.833 177.92 446.155 177.92 445.297C177.92 444.747 178.03 444.263 178.25 443.845C178.477 443.42 178.789 443.09 179.185 442.855C179.581 442.621 180.035 442.503 180.548 442.503C181.289 442.503 181.872 442.742 182.297 443.218C182.722 443.688 182.935 444.337 182.935 445.165V445.539H178.998C179.078 446.654 179.669 447.211 180.768 447.211C181.076 447.211 181.377 447.163 181.67 447.068C181.971 446.973 182.253 446.815 182.517 446.595L182.847 447.365C182.605 447.585 182.293 447.757 181.912 447.882C181.531 448.006 181.146 448.069 180.757 448.069ZM180.592 443.284C180.13 443.284 179.764 443.427 179.493 443.713C179.221 443.999 179.056 444.381 178.998 444.857H182C181.978 444.359 181.846 443.974 181.604 443.702C181.362 443.424 181.025 443.284 180.592 443.284ZM186.027 448.069C185.587 448.069 185.176 448.014 184.795 447.904C184.414 447.786 184.095 447.625 183.838 447.42L184.157 446.672C184.428 446.863 184.725 447.009 185.048 447.112C185.378 447.214 185.708 447.266 186.038 447.266C186.426 447.266 186.72 447.196 186.918 447.057C187.116 446.918 187.215 446.731 187.215 446.496C187.215 446.305 187.149 446.159 187.017 446.056C186.885 445.946 186.687 445.862 186.423 445.803L185.378 445.594C184.454 445.403 183.992 444.927 183.992 444.164C183.992 443.658 184.194 443.255 184.597 442.954C185 442.654 185.528 442.503 186.181 442.503C186.555 442.503 186.91 442.558 187.248 442.668C187.592 442.778 187.878 442.943 188.106 443.163L187.787 443.911C187.567 443.721 187.314 443.574 187.028 443.471C186.742 443.369 186.459 443.317 186.181 443.317C185.8 443.317 185.51 443.391 185.312 443.537C185.114 443.677 185.015 443.867 185.015 444.109C185.015 444.476 185.257 444.711 185.741 444.813L186.786 445.022C187.262 445.117 187.622 445.279 187.864 445.506C188.113 445.733 188.238 446.041 188.238 446.43C188.238 446.943 188.036 447.346 187.633 447.64C187.229 447.926 186.694 448.069 186.027 448.069ZM191.707 448.069C191.033 448.069 190.531 447.896 190.201 447.552C189.871 447.207 189.706 446.709 189.706 446.056V443.46H188.661V442.602H189.706V440.986H190.817V442.602H192.477V443.46H190.817V445.968C190.817 446.357 190.897 446.65 191.059 446.848C191.227 447.046 191.498 447.145 191.872 447.145C191.99 447.145 192.103 447.134 192.213 447.112C192.323 447.083 192.433 447.05 192.543 447.013L192.719 447.849C192.609 447.915 192.455 447.966 192.257 448.003C192.067 448.047 191.883 448.069 191.707 448.069ZM195.902 448.069C195.022 448.069 194.329 447.823 193.823 447.332C193.317 446.833 193.064 446.155 193.064 445.297C193.064 444.747 193.174 444.263 193.394 443.845C193.621 443.42 193.933 443.09 194.329 442.855C194.725 442.621 195.179 442.503 195.693 442.503C196.433 442.503 197.016 442.742 197.441 443.218C197.867 443.688 198.079 444.337 198.079 445.165V445.539H194.142C194.223 446.654 194.813 447.211 195.913 447.211C196.221 447.211 196.521 447.163 196.815 447.068C197.115 446.973 197.398 446.815 197.661 446.595L197.991 447.365C197.749 447.585 197.438 447.757 197.057 447.882C196.675 448.006 196.29 448.069 195.902 448.069ZM195.737 443.284C195.275 443.284 194.908 443.427 194.637 443.713C194.366 443.999 194.201 444.381 194.142 444.857H197.145C197.123 444.359 196.991 443.974 196.749 443.702C196.507 443.424 196.169 443.284 195.737 443.284ZM202.202 447.97V442.602H203.28V443.471C203.441 443.163 203.664 442.925 203.95 442.756C204.236 442.588 204.57 442.503 204.951 442.503C205.773 442.503 206.304 442.863 206.546 443.581C206.715 443.244 206.957 442.98 207.272 442.789C207.587 442.599 207.947 442.503 208.35 442.503C209.552 442.503 210.154 443.222 210.154 444.659V447.97H209.043V444.714C209.043 444.26 208.962 443.926 208.801 443.713C208.647 443.501 208.39 443.394 208.031 443.394C207.628 443.394 207.309 443.537 207.074 443.823C206.839 444.102 206.722 444.483 206.722 444.967V447.97H205.611V444.714C205.611 444.26 205.534 443.926 205.38 443.713C205.226 443.501 204.97 443.394 204.61 443.394C204.207 443.394 203.888 443.537 203.653 443.823C203.426 444.102 203.313 444.483 203.313 444.967V447.97H202.202ZM214.038 448.069C213.496 448.069 213.027 447.955 212.631 447.728C212.235 447.5 211.927 447.182 211.707 446.771C211.494 446.353 211.388 445.858 211.388 445.286C211.388 444.714 211.494 444.223 211.707 443.812C211.927 443.394 212.235 443.072 212.631 442.844C213.027 442.617 213.496 442.503 214.038 442.503C214.566 442.503 215.028 442.617 215.424 442.844C215.82 443.072 216.128 443.394 216.348 443.812C216.568 444.223 216.678 444.714 216.678 445.286C216.678 445.858 216.568 446.353 216.348 446.771C216.128 447.182 215.82 447.5 215.424 447.728C215.028 447.955 214.566 448.069 214.038 448.069ZM214.038 447.211C214.493 447.211 214.86 447.046 215.138 446.716C215.417 446.386 215.556 445.909 215.556 445.286C215.556 444.663 215.417 444.19 215.138 443.867C214.86 443.537 214.493 443.372 214.038 443.372C213.576 443.372 213.206 443.537 212.928 443.867C212.649 444.19 212.51 444.663 212.51 445.286C212.51 445.909 212.649 446.386 212.928 446.716C213.206 447.046 213.576 447.211 214.038 447.211ZM219.402 447.97L217.092 442.602H218.291L219.93 446.683L221.612 442.602H222.745L220.403 447.97H219.402ZM223.444 441.36V440.205H224.742V441.36H223.444ZM223.543 447.97V442.602H224.654V447.97H223.543ZM226.239 447.97V442.602H227.317V443.471C227.479 443.163 227.702 442.925 227.988 442.756C228.274 442.588 228.608 442.503 228.989 442.503C229.81 442.503 230.342 442.863 230.584 443.581C230.752 443.244 230.994 442.98 231.31 442.789C231.625 442.599 231.984 442.503 232.387 442.503C233.59 442.503 234.191 443.222 234.191 444.659V447.97H233.08V444.714C233.08 444.26 233 443.926 232.838 443.713C232.684 443.501 232.428 443.394 232.069 443.394C231.665 443.394 231.346 443.537 231.112 443.823C230.877 444.102 230.76 444.483 230.76 444.967V447.97H229.649V444.714C229.649 444.26 229.572 443.926 229.418 443.713C229.264 443.501 229.007 443.394 228.648 443.394C228.245 443.394 227.926 443.537 227.691 443.823C227.464 444.102 227.35 444.483 227.35 444.967V447.97H226.239ZM235.645 441.36V440.205H236.943V441.36H235.645ZM235.744 447.97V442.602H236.855V447.97H235.744ZM240.937 448.069C240.058 448.069 239.365 447.823 238.859 447.332C238.353 446.833 238.1 446.155 238.1 445.297C238.1 444.747 238.21 444.263 238.43 443.845C238.657 443.42 238.969 443.09 239.365 442.855C239.761 442.621 240.215 442.503 240.728 442.503C241.469 442.503 242.052 442.742 242.477 443.218C242.902 443.688 243.115 444.337 243.115 445.165V445.539H239.178C239.258 446.654 239.849 447.211 240.948 447.211C241.256 447.211 241.557 447.163 241.85 447.068C242.151 446.973 242.433 446.815 242.697 446.595L243.027 447.365C242.785 447.585 242.474 447.757 242.092 447.882C241.711 448.006 241.326 448.069 240.937 448.069ZM240.772 443.284C240.311 443.284 239.944 443.427 239.673 443.713C239.401 443.999 239.236 444.381 239.178 444.857H242.18C242.158 444.359 242.026 443.974 241.784 443.702C241.542 443.424 241.205 443.284 240.772 443.284ZM244.326 447.97V442.602H245.404V443.493C245.587 443.171 245.837 442.925 246.152 442.756C246.475 442.588 246.834 442.503 247.23 442.503C248.498 442.503 249.132 443.222 249.132 444.659V447.97H248.022V444.725C248.022 444.263 247.93 443.926 247.747 443.713C247.571 443.501 247.292 443.394 246.911 443.394C246.464 443.394 246.104 443.537 245.833 443.823C245.569 444.102 245.437 444.472 245.437 444.934V447.97H244.326ZM252.951 448.069C252.276 448.069 251.774 447.896 251.444 447.552C251.114 447.207 250.949 446.709 250.949 446.056V443.46H249.904V442.602H250.949V440.986H252.06V442.602H253.721V443.46H252.06V445.968C252.06 446.357 252.141 446.65 252.302 446.848C252.471 447.046 252.742 447.145 253.116 447.145C253.233 447.145 253.347 447.134 253.457 447.112C253.567 447.083 253.677 447.05 253.787 447.013L253.963 447.849C253.853 447.915 253.699 447.966 253.501 448.003C253.31 448.047 253.127 448.069 252.951 448.069ZM256.958 448.069C256.416 448.069 255.946 447.955 255.55 447.728C255.154 447.5 254.846 447.182 254.626 446.771C254.414 446.353 254.308 445.858 254.308 445.286C254.308 444.714 254.414 444.223 254.626 443.812C254.846 443.394 255.154 443.072 255.55 442.844C255.946 442.617 256.416 442.503 256.958 442.503C257.486 442.503 257.948 442.617 258.344 442.844C258.74 443.072 259.048 443.394 259.268 443.812C259.488 444.223 259.598 444.714 259.598 445.286C259.598 445.858 259.488 446.353 259.268 446.771C259.048 447.182 258.74 447.5 258.344 447.728C257.948 447.955 257.486 448.069 256.958 448.069ZM256.958 447.211C257.413 447.211 257.779 447.046 258.058 446.716C258.337 446.386 258.476 445.909 258.476 445.286C258.476 444.663 258.337 444.19 258.058 443.867C257.779 443.537 257.413 443.372 256.958 443.372C256.496 443.372 256.126 443.537 255.847 443.867C255.569 444.19 255.429 444.663 255.429 445.286C255.429 445.909 255.569 446.386 255.847 446.716C256.126 447.046 256.496 447.211 256.958 447.211ZM261.83 445.825V445.44C261.83 445.088 261.896 444.758 262.028 444.45C262.167 444.135 262.402 443.787 262.732 443.405C262.988 443.112 263.168 442.863 263.271 442.657C263.373 442.445 263.425 442.221 263.425 441.987C263.425 441.708 263.326 441.488 263.128 441.327C262.93 441.165 262.651 441.085 262.292 441.085C261.537 441.085 260.855 441.367 260.246 441.932L259.85 441.063C260.143 440.777 260.514 440.549 260.961 440.381C261.416 440.205 261.881 440.117 262.358 440.117C263.018 440.117 263.549 440.282 263.953 440.612C264.356 440.934 264.557 441.36 264.557 441.888C264.557 442.232 264.48 442.555 264.327 442.855C264.18 443.149 263.92 443.479 263.546 443.845C263.201 444.19 262.959 444.494 262.82 444.758C262.68 445.015 262.596 445.271 262.567 445.528L262.523 445.825H261.83ZM261.522 447.97V446.661H262.831V447.97H261.522Z" fill="#141F2E"></path>
  <defs>
    <filter id="filter0_d_152_1603" x="1.24009" y="0.486652" width="663.531" height="918.691" filterUnits="userSpaceOnUse" color-interpolation-filters="sRGB">
      <feFlood flood-opacity="0" result="BackgroundImageFix"></feFlood>
      <feColorMatrix in="SourceAlpha" type="matrix" values="0 0 0 0 0 0 0 0 0 0 0 0 0 0 0 0 0 0 127 0" result="hardAlpha"></feColorMatrix>
      <feOffset dx="61.5054" dy="30.7527"></feOffset>
      <feGaussianBlur stdDeviation="87.1327"></feGaussianBlur>
      <feComposite in2="hardAlpha" operator="out"></feComposite>
      <feColorMatrix type="matrix" values="0 0 0 0 0 0 0 0 0 0 0 0 0 0 0 0 0 0 0.1 0"></feColorMatrix>
      <feBlend mode="normal" in2="BackgroundImageFix" result="effect1_dropShadow_152_1603"></feBlend>
      <feBlend mode="normal" in="SourceGraphic" in2="effect1_dropShadow_152_1603" result="shape"></feBlend>
    </filter>
    <filter id="filter1_d_152_1603" x="105.771" y="303.428" width="89.6831" height="89.7182" filterUnits="userSpaceOnUse" color-interpolation-filters="sRGB">
      <feFlood flood-opacity="0" result="BackgroundImageFix"></feFlood>
      <feColorMatrix in="SourceAlpha" type="matrix" values="0 0 0 0 0 0 0 0 0 0 0 0 0 0 0 0 0 0 127 0" result="hardAlpha"></feColorMatrix>
      <feOffset dy="3.65721"></feOffset>
      <feGaussianBlur stdDeviation="4.11437"></feGaussianBlur>
      <feComposite in2="hardAlpha" operator="out"></feComposite>
      <feColorMatrix type="matrix" values="0 0 0 0 0.390226 0 0 0 0 0.226285 0 0 0 0 0.554167 0 0 0 0.25 0"></feColorMatrix>
      <feBlend mode="normal" in2="BackgroundImageFix" result="effect1_dropShadow_152_1603"></feBlend>
      <feBlend mode="normal" in="SourceGraphic" in2="effect1_dropShadow_152_1603" result="shape"></feBlend>
    </filter>
    <filter id="filter2_d_152_1603" x="0.116379" y="568.197" width="326.767" height="80.7672" filterUnits="userSpaceOnUse" color-interpolation-filters="sRGB">
      <feFlood flood-opacity="0" result="BackgroundImageFix"></feFlood>
      <feColorMatrix in="SourceAlpha" type="matrix" values="0 0 0 0 0 0 0 0 0 0 0 0 0 0 0 0 0 0 127 0" result="hardAlpha"></feColorMatrix>
      <feOffset></feOffset>
      <feGaussianBlur stdDeviation="10.4418"></feGaussianBlur>
      <feComposite in2="hardAlpha" operator="out"></feComposite>
      <feColorMatrix type="matrix" values="0 0 0 0 0 0 0 0 0 0 0 0 0 0 0 0 0 0 0.1 0"></feColorMatrix>
      <feBlend mode="normal" in2="BackgroundImageFix" result="effect1_dropShadow_152_1603"></feBlend>
      <feBlend mode="normal" in="SourceGraphic" in2="effect1_dropShadow_152_1603" result="shape"></feBlend>
    </filter>
    <filter id="filter3_d_152_1603" x="5" y="405" width="317" height="191.47" filterUnits="userSpaceOnUse" color-interpolation-filters="sRGB">
      <feFlood flood-opacity="0" result="BackgroundImageFix"></feFlood>
      <feColorMatrix in="SourceAlpha" type="matrix" values="0 0 0 0 0 0 0 0 0 0 0 0 0 0 0 0 0 0 127 0" result="hardAlpha"></feColorMatrix>
      <feOffset></feOffset>
      <feGaussianBlur stdDeviation="8"></feGaussianBlur>
      <feComposite in2="hardAlpha" operator="out"></feComposite>
      <feColorMatrix type="matrix" values="0 0 0 0 0 0 0 0 0 0 0 0 0 0 0 0 0 0 0.1 0"></feColorMatrix>
      <feBlend mode="normal" in2="BackgroundImageFix" result="effect1_dropShadow_152_1603"></feBlend>
      <feBlend mode="normal" in="SourceGraphic" in2="effect1_dropShadow_152_1603" result="shape"></feBlend>
    </filter>
    <clipPath id="clip0_152_1603">
      <rect x="162.813" y="154.251" width="253.332" height="548.549" rx="24.3196" fill="white"></rect>
    </clipPath>
    <clipPath id="clip1_152_1603">
      <rect x="162.597" y="147.016" width="253.328" height="568.873" rx="31.284" transform="rotate(-0.0220371 162.597 147.016)" fill="white"></rect>
    </clipPath>
    <clipPath id="clip2_152_1603">
      <rect width="15.6837" height="15.6837" fill="white" transform="translate(363.331 169.886) rotate(-0.0220362)"></rect>
    </clipPath>
  </defs>
</svg>
