<?xml version="1.0" encoding="UTF-8"?>
<svg xmlns="http://www.w3.org/2000/svg" width="476" height="720" viewBox="0 0 476 720" fill="none">
  <g filter="url(#filter0_d_152_1429)">
    <rect width="267.62" height="520" rx="32.925" transform="matrix(1 0 -0.000449607 1 59.7383 63)" fill="#EDEFF1"></rect>
    <g clip-path="url(#clip0_152_1429)">
      <rect width="246.805" height="500.584" rx="23.706" transform="matrix(1 0 -0.000449607 1 70.1416 73.416)" fill="white"></rect>
      <g clip-path="url(#clip1_152_1429)">
        <rect width="245.535" height="500.583" rx="23.6989" transform="matrix(1 0 -0.000449607 1 70.1406 73.417)" fill="white"></rect>
        <rect width="52.0831" height="7.44044" rx="3.72022" transform="matrix(1 2.96391e-08 -0.000449637 1 86.4609 180.56)" fill="#FAFAFA"></rect>
        <path d="M91.5009 168.512C90.4025 168.512 89.3493 168.354 88.3413 168.038C87.3333 167.707 86.5059 167.255 85.8591 166.684L86.8081 164.494C87.515 165.036 88.2446 165.435 88.9969 165.691C89.7641 165.946 90.5691 166.074 91.4117 166.074C92.4349 166.074 93.2099 165.871 93.7367 165.465C94.2636 165.059 94.5271 164.464 94.5275 163.682C94.5278 162.929 94.2648 162.365 93.7383 161.989C93.2269 161.598 92.4746 161.402 91.4815 161.402H88.9085L88.9095 159.077H91.2343C92.092 159.077 92.7767 158.867 93.2885 158.445C93.8003 158.024 94.0563 157.445 94.0567 156.708C94.057 156.015 93.8164 155.489 93.3351 155.128C92.8688 154.766 92.1918 154.586 91.304 154.586C89.709 154.586 88.3019 155.128 87.0826 156.211L86.1357 154.044C86.7829 153.442 87.5806 152.976 88.5287 152.645C89.4919 152.314 90.5001 152.148 91.5534 152.148C93.2086 152.148 94.5024 152.524 95.435 153.277C96.3826 154.014 96.8561 155.045 96.8555 156.369C96.8551 157.317 96.5839 158.137 96.0419 158.829C95.5149 159.506 94.785 159.958 93.852 160.183L93.8521 159.913C94.9504 160.093 95.8004 160.544 96.4019 161.267C97.0185 161.974 97.3266 162.862 97.3261 163.93C97.3255 165.344 96.8059 166.465 95.7672 167.293C94.7286 168.106 93.3065 168.512 91.5009 168.512ZM99.7304 168.286L99.7318 165.149H102.892L102.89 168.286H99.7304ZM105.871 168.286L105.872 166.142L111.155 160.635C111.818 159.943 112.307 159.303 112.623 158.716C112.94 158.129 113.098 157.528 113.098 156.911C113.099 156.143 112.858 155.564 112.377 155.173C111.895 154.782 111.196 154.586 110.278 154.586C109.541 154.586 108.833 154.721 108.156 154.992C107.479 155.248 106.817 155.654 106.169 156.211L105.222 154.044C105.87 153.472 106.667 153.014 107.616 152.667C108.579 152.321 109.587 152.148 110.64 152.148C112.356 152.148 113.672 152.532 114.589 153.299C115.507 154.067 115.965 155.165 115.965 156.595C115.964 157.588 115.731 158.536 115.264 159.439C114.797 160.326 114.074 161.259 113.096 162.237L108.693 166.638L108.693 165.871H116.593L116.591 168.286H105.871ZM124.166 168.512C123.068 168.512 122.015 168.354 121.007 168.038C119.999 167.707 119.171 167.255 118.524 166.684L119.473 164.494C120.18 165.036 120.91 165.435 121.662 165.691C122.429 165.946 123.234 166.074 124.077 166.074C125.1 166.074 125.875 165.871 126.402 165.465C126.929 165.059 127.192 164.464 127.193 163.682C127.193 162.929 126.93 162.365 126.404 161.989C125.892 161.598 125.14 161.402 124.147 161.402H121.574L121.575 159.077H123.9C124.757 159.077 125.442 158.867 125.954 158.445C126.466 158.024 126.722 157.445 126.722 156.708C126.722 156.015 126.482 155.489 126 155.128C125.534 154.766 124.857 154.586 123.969 154.586C122.374 154.586 120.967 155.128 119.748 156.211L118.801 154.044C119.448 153.442 120.246 152.976 121.194 152.645C122.157 152.314 123.165 152.148 124.219 152.148C125.874 152.148 127.168 152.524 128.1 153.277C129.048 154.014 129.521 155.045 129.521 156.369C129.52 157.317 129.249 158.137 128.707 158.829C128.18 159.506 127.45 159.958 126.517 160.183L126.517 159.913C127.616 160.093 128.466 160.544 129.067 161.267C129.684 161.974 129.992 162.862 129.991 163.93C129.991 165.344 129.471 166.465 128.433 167.293C127.394 168.106 125.972 168.512 124.166 168.512ZM139.212 168.286L139.213 165.171H132.104L132.105 163.14L139.67 152.374H142.018L142.013 162.96H144.293L144.292 165.171H142.012L142.011 168.286H139.212ZM139.214 162.96L139.218 155.805H139.759L134.271 163.637L134.271 162.96H139.214ZM147.305 171.288L146.154 170.385C146.636 169.889 146.967 169.422 147.148 168.986C147.343 168.564 147.441 168.113 147.442 167.632L148.051 168.286H145.929L145.931 165.149H149.09L149.089 167.225C149.089 167.993 148.953 168.692 148.682 169.324C148.426 169.971 147.967 170.626 147.305 171.288ZM152.814 168.286L152.815 165.871H156.472L156.477 154.812H157.876L153.18 157.61L153.181 154.857L157.313 152.374H159.389L159.383 165.871H162.814L162.813 168.286H152.814ZM165.603 168.286L165.604 166.142L170.888 160.635C171.55 159.943 172.039 159.303 172.356 158.716C172.672 158.129 172.83 157.528 172.83 156.911C172.831 156.143 172.59 155.564 172.109 155.173C171.628 154.782 170.928 154.586 170.01 154.586C169.273 154.586 168.566 154.721 167.888 154.992C167.211 155.248 166.549 155.654 165.902 156.211L164.955 154.044C165.602 153.472 166.4 153.014 167.348 152.667C168.311 152.321 169.319 152.148 170.372 152.148C172.088 152.148 173.404 152.532 174.322 153.299C175.239 154.067 175.698 155.165 175.697 156.595C175.696 157.588 175.463 158.536 174.996 159.439C174.529 160.326 173.806 161.259 172.828 162.237L168.425 166.638L168.425 165.871H176.325L176.324 168.286H165.603ZM192.349 168.512C191.251 168.512 190.265 168.279 189.393 167.812C188.52 167.346 187.798 166.661 187.227 165.758C186.67 164.84 186.287 163.734 186.077 162.44L186.483 162.914H184L184.001 161.244H186.371L185.965 161.628C185.935 161.161 185.92 160.71 185.92 160.274C185.92 159.837 185.943 159.416 185.988 159.01L186.395 159.393H184.002L184.003 157.723H186.621L186.079 158.22C186.29 156.911 186.675 155.805 187.232 154.902C187.804 153.999 188.526 153.314 189.399 152.848C190.272 152.382 191.258 152.148 192.356 152.148C193.229 152.148 194.057 152.306 194.839 152.622C195.621 152.938 196.268 153.405 196.779 154.022L195.83 156.03C195.349 155.504 194.838 155.135 194.296 154.924C193.755 154.714 193.175 154.608 192.558 154.608C191.671 154.608 190.918 154.894 190.301 155.466C189.684 156.023 189.255 156.911 189.013 158.129L188.585 157.723H192.534L192.534 159.393H188.336L188.855 159.055C188.825 159.401 188.809 159.807 188.809 160.274C188.809 160.725 188.824 161.131 188.854 161.492L188.357 161.244H192.533L192.532 162.914H188.673L189.011 162.508C189.251 163.742 189.68 164.645 190.297 165.217C190.913 165.773 191.665 166.052 192.553 166.052C193.17 166.052 193.75 165.946 194.291 165.736C194.833 165.51 195.345 165.141 195.827 164.63L196.774 166.616C196.262 167.248 195.615 167.722 194.832 168.038C194.049 168.354 193.222 168.512 192.349 168.512Z" fill="#141F2E"></path>
        <g clip-path="url(#clip2_152_1429)">
          <rect width="655.971" height="0.653375" transform="matrix(-1 2.96391e-08 0.000449297 -1 741.156 323.417)" fill="#DCE0E3"></rect>
          <rect width="655.971" height="0.653375" transform="matrix(-1 2.96391e-08 0.000449297 -1 741.688 297.185)" fill="#DCE0E3"></rect>
          <rect width="655.971" height="0.653375" transform="matrix(-1 2.96391e-08 0.000449297 -1 741.702 270.395)" fill="#DCE0E3"></rect>
          <rect width="655.971" height="0.653375" transform="matrix(-1 2.96391e-08 0.000449297 -1 741.713 243.609)" fill="#DCE0E3"></rect>
          <rect width="655.971" height="0.653375" transform="matrix(-1 2.96391e-08 0.000449297 -1 741.727 216.818)" fill="#DCE0E3"></rect>
          <rect width="655.971" height="0.653375" transform="matrix(-1 2.96391e-08 0.000449297 -1 741.664 350.753)" fill="#DCE0E3"></rect>
          <path d="M101.397 310.903C101.398 309.46 102.569 308.29 104.012 308.29H119.692C121.136 308.29 122.305 309.46 122.305 310.903L122.287 350.758H101.379L101.397 310.903Z" fill="#D1F5E8"></path>
          <path d="M310.49 267.129C310.491 265.686 311.661 264.516 313.105 264.516H328.785C330.229 264.516 331.398 265.686 331.398 267.129L331.36 350.759H310.452L310.49 267.129Z" fill="#D1F5E8"></path>
          <path d="M205.96 240.34C205.96 238.896 207.131 237.726 208.574 237.726H224.255C225.698 237.726 226.868 238.896 226.867 240.34L226.818 350.757H205.91L205.96 240.34Z" fill="#D1F5E8"></path>
          <path d="M258.208 292.609C258.208 291.166 259.379 289.996 260.822 289.996H276.503C277.946 289.996 279.116 291.166 279.115 292.609L279.089 350.758H258.182L258.208 292.609Z" fill="#D1F5E8"></path>
          <path d="M153.676 277.581C153.676 276.137 154.847 274.967 156.29 274.967H171.971C173.414 274.967 174.584 276.137 174.583 277.581L174.55 350.757H153.643L153.676 277.581Z" fill="#D1F5E8"></path>
          <path d="M122.292 333.117C122.292 331.674 123.463 330.504 124.906 330.504H140.587C142.03 330.504 143.2 331.674 143.199 333.117L143.191 350.758H122.284L122.292 333.117Z" fill="#FFE1E1"></path>
          <path d="M226.842 303.062C226.842 301.618 228.013 300.448 229.456 300.448H245.137C246.58 300.448 247.75 301.618 247.749 303.062L247.728 350.757H226.82L226.842 303.062Z" fill="#FFE1E1"></path>
          <path d="M279.12 283.459C279.121 282.016 280.291 280.846 281.735 280.846H297.415C298.859 280.846 300.028 282.016 300.027 283.459L299.997 350.755H279.09L279.12 283.459Z" fill="#FFE1E1"></path>
          <path d="M174.564 320.703C174.565 319.259 175.736 318.089 177.179 318.089H192.859C194.303 318.089 195.472 319.259 195.472 320.703L195.458 350.757H174.551L174.564 320.703Z" fill="#FFE1E1"></path>
          <path d="M315.378 364.984L315.38 358.535H316.414L318.781 363.868H318.497L320.869 358.535H321.893L321.89 364.984H320.82L320.822 360.2H321.151L318.981 364.984H318.277L316.111 360.2H316.45L316.448 364.984H315.378ZM325.02 365.075C324.617 365.075 324.263 364.981 323.959 364.792C323.654 364.596 323.416 364.319 323.246 363.959C323.075 363.599 322.99 363.169 322.99 362.669C322.99 362.169 323.076 361.743 323.247 361.389C323.418 361.029 323.656 360.755 323.961 360.566C324.266 360.37 324.619 360.273 325.022 360.273C325.412 360.273 325.753 360.37 326.046 360.566C326.345 360.755 326.543 361.011 326.64 361.334H326.54L326.641 360.364H327.738C327.72 360.553 327.702 360.746 327.683 360.941C327.671 361.136 327.665 361.328 327.665 361.517L327.663 364.984H326.529L326.52 364.032H326.63C326.532 364.349 326.334 364.603 326.035 364.792C325.736 364.981 325.398 365.075 325.02 365.075ZM325.34 364.197C325.7 364.197 325.99 364.072 326.209 363.822C326.429 363.566 326.539 363.182 326.539 362.669C326.539 362.157 326.43 361.776 326.21 361.526C325.991 361.276 325.701 361.151 325.341 361.151C324.982 361.151 324.692 361.276 324.472 361.526C324.253 361.776 324.143 362.157 324.143 362.669C324.142 363.182 324.249 363.566 324.462 363.822C324.682 364.072 324.974 364.197 325.34 364.197ZM328.771 367.06L328.506 366.154C328.793 366.093 329.034 366.023 329.229 365.944C329.424 365.865 329.586 365.761 329.714 365.633C329.842 365.505 329.949 365.34 330.034 365.139L330.263 364.599L330.236 365.048L328.225 360.364H329.442L330.885 363.968H330.62L332.076 360.364H333.229L331.123 365.24C330.982 365.569 330.83 365.84 330.665 366.054C330.5 366.273 330.323 366.447 330.134 366.575C329.945 366.709 329.738 366.813 329.512 366.886C329.286 366.959 329.039 367.017 328.771 367.06Z" fill="#DCE0E3"></path>
          <rect width="15.6806" height="182.941" transform="matrix(1 0 -0.000449607 1 299.408 197.218)" fill="white"></rect>
        </g>
        <g clip-path="url(#clip3_152_1429)">
          <rect width="31.3612" height="31.3612" rx="5.22688" transform="matrix(1 0 -0.000449607 1 85.9346 394.324)" fill="#D1F5E8"></rect>
          <path fill-rule="evenodd" clip-rule="evenodd" d="M108.611 406.921C108.87 407.163 108.87 407.556 108.611 407.799L102.3 413.697C102.041 413.939 101.621 413.939 101.362 413.697L98.5124 411.031L95.5532 413.697C95.2938 413.939 94.8734 413.939 94.6142 413.697C94.355 413.454 94.3552 413.061 94.6146 412.819L98.0435 409.714C98.3029 409.472 98.7233 409.472 98.9825 409.714L101.832 412.38L107.672 406.921C107.932 406.678 108.352 406.678 108.611 406.921Z" fill="#141F2E"></path>
          <path fill-rule="evenodd" clip-rule="evenodd" d="M103.494 407.36C103.494 407.017 103.791 406.739 104.158 406.739H108.142C108.508 406.739 108.805 407.017 108.805 407.36L108.804 411.085C108.804 411.428 108.506 411.705 108.139 411.705C107.773 411.705 107.476 411.428 107.476 411.085L107.477 407.98H104.157C103.791 407.98 103.494 407.702 103.494 407.36Z" fill="#141F2E"></path>
          <rect width="46.1033" height="8.4108" rx="4.2054" transform="matrix(1 2.96391e-08 -0.000449637 1 125.234 405.569)" fill="#FAFAFA"></rect>
          <rect width="32.1812" height="8.4108" rx="4.2054" transform="matrix(1 2.96391e-08 -0.000449637 1 267.43 405.57)" fill="#DCE0E3"></rect>
        </g>
        <g clip-path="url(#clip4_152_1429)">
          <rect width="31.3612" height="31.3612" rx="5.22688" transform="matrix(1 0 -0.000449607 1 85.9111 446.591)" fill="#FFE1E1"></rect>
          <path fill-rule="evenodd" clip-rule="evenodd" d="M94.5909 459.188C94.8503 458.946 95.2707 458.946 95.5299 459.188L98.4867 461.853L101.338 459.188C101.598 458.945 102.018 458.945 102.277 459.188L108.582 465.086C108.841 465.328 108.841 465.721 108.582 465.964C108.322 466.206 107.902 466.206 107.643 465.964L101.807 460.505L98.9556 463.17C98.6962 463.413 98.2758 463.413 98.0166 463.17L94.5905 460.066C94.3313 459.824 94.3315 459.43 94.5909 459.188Z" fill="#141F2E"></path>
          <path fill-rule="evenodd" clip-rule="evenodd" d="M108.114 461.179C108.481 461.179 108.778 461.457 108.778 461.8L108.776 465.525C108.776 465.868 108.479 466.146 108.112 466.146H104.128C103.762 466.146 103.465 465.868 103.465 465.525C103.465 465.182 103.762 464.904 104.129 464.904H107.449L107.45 461.8C107.45 461.457 107.748 461.179 108.114 461.179Z" fill="#141F2E"></path>
          <rect width="46.1033" height="8.4108" rx="4.2054" transform="matrix(1 2.96391e-08 -0.000449637 1 125.212 458.068)" fill="#FAFAFA"></rect>
          <rect width="32.8629" height="8.4108" rx="4.2054" transform="matrix(1 2.96391e-08 -0.000449637 1 266.726 458.069)" fill="#DCE0E3"></rect>
        </g>
        <rect width="71.077" height="11.4252" rx="5.71262" transform="matrix(1 2.96391e-08 -0.000449637 1 85.877 521.475)" fill="#FAFAFA"></rect>
        <rect width="245.047" height="36.5937" transform="matrix(1 0 -0.000449607 1 70.3926 89.7144)" fill="white"></rect>
        <path fill-rule="evenodd" clip-rule="evenodd" d="M293.991 102.696C294.764 101.915 295.812 101.477 296.904 101.477C297.997 101.477 299.044 101.915 299.816 102.696C300.588 103.476 301.022 104.534 301.021 105.638C301.02 107.631 301.442 108.869 301.83 109.589C302.025 109.95 302.215 110.187 302.347 110.328C302.413 110.399 302.465 110.446 302.497 110.472C302.512 110.485 302.523 110.493 302.527 110.497C302.528 110.497 302.529 110.498 302.529 110.498C302.74 110.644 302.833 110.912 302.759 111.16C302.683 111.411 302.455 111.582 302.195 111.582H291.604C291.345 111.582 291.116 111.411 291.041 111.16C290.967 110.912 291.061 110.644 291.272 110.498C291.272 110.498 291.273 110.497 291.273 110.497C291.278 110.493 291.288 110.485 291.304 110.472C291.335 110.446 291.387 110.399 291.454 110.328C291.586 110.187 291.776 109.95 291.971 109.589C292.36 108.869 292.783 107.631 292.784 105.638C292.784 104.534 293.219 103.476 293.991 102.696ZM292.87 110.393H300.931C300.886 110.319 300.842 110.241 300.797 110.158C300.303 109.243 299.843 107.806 299.844 105.638C299.845 104.85 299.535 104.094 298.984 103.536C298.432 102.979 297.684 102.666 296.904 102.666C296.124 102.666 295.375 102.979 294.823 103.536C294.271 104.094 293.961 104.85 293.961 105.638C293.96 107.806 293.498 109.243 293.004 110.158C292.959 110.241 292.914 110.319 292.87 110.393Z" fill="#141F2E"></path>
        <path fill-rule="evenodd" clip-rule="evenodd" d="M295.586 112.851C295.867 112.687 296.227 112.783 296.39 113.067C296.442 113.157 296.516 113.232 296.605 113.284C296.695 113.336 296.796 113.363 296.899 113.363C297.002 113.363 297.103 113.336 297.193 113.284C297.282 113.232 297.356 113.157 297.408 113.067C297.571 112.783 297.931 112.687 298.212 112.851C298.493 113.016 298.589 113.38 298.426 113.664C298.27 113.934 298.048 114.158 297.78 114.314C297.512 114.47 297.208 114.552 296.898 114.552C296.589 114.552 296.285 114.47 296.018 114.314C295.75 114.158 295.527 113.934 295.372 113.664C295.209 113.38 295.305 113.016 295.586 112.851Z" fill="#141F2E"></path>
        <path fill-rule="evenodd" clip-rule="evenodd" d="M82.1474 108.015C82.1475 107.654 82.4403 107.362 82.8014 107.362H94.5691C94.9302 107.362 95.2228 107.654 95.2226 108.015C95.2224 108.376 94.9296 108.669 94.5685 108.669H82.8008C82.4398 108.669 82.1472 108.376 82.1474 108.015Z" fill="#141F2E"></path>
        <path fill-rule="evenodd" clip-rule="evenodd" d="M82.1491 104.093C82.1493 103.732 82.4421 103.439 82.8032 103.439H94.5709C94.932 103.439 95.2245 103.732 95.2244 104.093C95.2242 104.454 94.9314 104.746 94.5703 104.746H82.8026C82.4415 104.746 82.149 104.454 82.1491 104.093Z" fill="#141F2E"></path>
        <path fill-rule="evenodd" clip-rule="evenodd" d="M82.1456 111.938C82.1458 111.577 82.4386 111.284 82.7996 111.284H94.5674C94.9284 111.284 95.221 111.577 95.2208 111.938C95.2207 112.299 94.9278 112.592 94.5668 112.592H82.7991C82.438 112.592 82.1454 112.299 82.1456 111.938Z" fill="#141F2E"></path>
      </g>
    </g>
    <path d="M327.304 182.021H328.292C328.838 182.021 329.28 182.464 329.28 183.009L329.252 244.162C329.252 244.707 328.809 245.149 328.264 245.149H327.275L327.304 182.021Z" fill="#DCE0E3"></path>
    <path d="M60.1543 220.161H59.1657C58.6202 220.161 58.1777 220.603 58.1775 221.149L58.1612 257.313C58.161 257.859 58.603 258.301 59.1485 258.301H60.1371L60.1543 220.161Z" fill="#DCE0E3"></path>
    <path d="M60.1768 169.527H59.1881C58.6426 169.527 58.2002 169.969 58.1999 170.515L58.1837 206.679C58.1834 207.224 58.6255 207.667 59.171 207.667H60.1596L60.1768 169.527Z" fill="#DCE0E3"></path>
    <path d="M60.1934 129.416H59.2047C58.6592 129.416 58.2168 129.858 58.2165 130.404L58.2089 147.498C58.2086 148.044 58.6506 148.486 59.1962 148.486H60.1848L60.1934 129.416Z" fill="#DCE0E3"></path>
  </g>
  <g filter="url(#filter1_d_152_1429)">
    <rect x="221" y="127" width="225" height="72" rx="10" fill="#CEB6FA"></rect>
  </g>
  <path d="M289.158 159.317L289.16 152.439L287.599 152.439L287.599 151.414L289.16 151.415L289.16 151.138C289.161 150.087 289.421 149.29 289.942 148.748C290.473 148.206 291.286 147.903 292.381 147.838L293.015 147.806L293.128 148.814L292.381 148.863C291.708 148.917 291.221 149.117 290.917 149.464C290.624 149.811 290.478 150.315 290.478 150.976L290.477 151.415L292.754 151.416L292.753 152.44L290.477 152.439L290.475 159.317L289.158 159.317ZM296.558 159.465C296.016 159.465 295.528 159.362 295.095 159.156C294.672 158.939 294.336 158.646 294.087 158.278C293.838 157.909 293.713 157.497 293.713 157.042C293.714 156.467 293.86 156.012 294.153 155.676C294.457 155.34 294.95 155.102 295.633 154.961C296.327 154.81 297.27 154.734 298.462 154.734L298.982 154.734L298.982 154.23C298.983 153.558 298.842 153.076 298.56 152.783C298.289 152.48 297.85 152.328 297.243 152.328C296.766 152.327 296.306 152.398 295.861 152.538C295.417 152.668 294.961 152.885 294.495 153.188L294.04 152.229C294.452 151.936 294.951 151.704 295.536 151.53C296.132 151.357 296.702 151.27 297.244 151.271C298.262 151.271 299.016 151.52 299.503 152.019C300.002 152.518 300.251 153.293 300.251 154.345L300.249 159.32L299.014 159.32L299.014 157.954C298.808 158.42 298.488 158.788 298.054 159.059C297.631 159.33 297.133 159.466 296.558 159.465ZM296.77 158.474C297.42 158.474 297.952 158.252 298.364 157.807C298.776 157.352 298.982 156.778 298.982 156.084L298.982 155.596L298.478 155.596C297.6 155.596 296.906 155.639 296.397 155.726C295.898 155.801 295.546 155.942 295.34 156.148C295.145 156.343 295.047 156.614 295.047 156.961C295.047 157.405 295.198 157.769 295.502 158.05C295.816 158.332 296.239 158.473 296.77 158.474ZM306.042 159.468C305.251 159.468 304.568 159.3 303.994 158.963C303.419 158.616 302.975 158.134 302.661 157.516C302.357 156.887 302.206 156.155 302.206 155.321C302.206 154.063 302.548 153.077 303.231 152.362C303.914 151.636 304.852 151.273 306.045 151.273C306.532 151.273 307.015 151.36 307.492 151.534C307.968 151.707 308.364 151.951 308.678 152.266L308.223 153.225C307.909 152.921 307.562 152.699 307.182 152.558C306.814 152.417 306.462 152.346 306.126 152.346C305.302 152.346 304.667 152.606 304.223 153.126C303.778 153.636 303.556 154.373 303.556 155.337C303.555 156.28 303.777 157.029 304.222 157.581C304.666 158.124 305.3 158.395 306.124 158.395C306.46 158.395 306.812 158.325 307.181 158.184C307.56 158.043 307.907 157.816 308.222 157.501L308.677 158.461C308.362 158.775 307.961 159.024 307.473 159.208C306.996 159.382 306.519 159.468 306.042 159.468ZM313.39 159.47C312.458 159.47 311.758 159.226 311.293 158.738C310.827 158.239 310.594 157.524 310.594 156.591L310.595 152.445L309.05 152.445L309.051 151.42L310.595 151.421L310.596 148.998L311.913 148.999L311.912 151.421L314.417 151.422L314.416 152.446L311.912 152.446L311.911 156.462C311.911 157.08 312.041 157.551 312.301 157.876C312.561 158.191 312.984 158.348 313.569 158.348C313.742 158.348 313.916 158.327 314.089 158.284C314.263 158.24 314.42 158.197 314.561 158.154L314.788 159.162C314.647 159.238 314.441 159.308 314.17 159.373C313.899 159.438 313.639 159.47 313.39 159.47ZM318.7 159.472C316.803 159.471 315.855 158.425 315.856 156.333L315.857 151.422L317.174 151.423L317.173 156.317C317.173 157.022 317.313 157.542 317.595 157.878C317.888 158.214 318.343 158.382 318.961 158.382C319.633 158.383 320.18 158.161 320.603 157.716C321.026 157.261 321.238 156.66 321.238 155.912L321.239 151.424L322.556 151.424L322.554 159.327L321.269 159.326L321.27 157.993C321.02 158.47 320.668 158.838 320.213 159.098C319.768 159.347 319.264 159.472 318.7 159.472ZM325.018 159.327L325.02 151.425L326.305 151.425L326.305 152.84C326.728 151.886 327.595 151.361 328.907 151.264L329.378 151.215L329.475 152.353L328.646 152.45C327.898 152.515 327.329 152.754 326.939 153.165C326.548 153.566 326.353 154.119 326.353 154.824L326.351 159.328L325.018 159.327ZM333.254 159.476C332.712 159.476 332.224 159.373 331.791 159.167C331.368 158.95 331.032 158.657 330.783 158.288C330.534 157.92 330.409 157.508 330.409 157.052C330.409 156.478 330.556 156.023 330.849 155.687C331.152 155.351 331.645 155.113 332.328 154.972C333.022 154.82 333.965 154.745 335.158 154.745L335.678 154.745L335.678 154.241C335.678 153.569 335.538 153.087 335.256 152.794C334.985 152.49 334.546 152.338 333.939 152.338C333.462 152.338 333.001 152.408 332.557 152.549C332.112 152.679 331.657 152.896 331.191 153.199L330.736 152.24C331.148 151.947 331.646 151.714 332.232 151.541C332.828 151.368 333.397 151.281 333.939 151.281C334.958 151.282 335.711 151.531 336.199 152.03C336.698 152.529 336.947 153.304 336.946 154.355L336.945 159.331L335.709 159.33L335.71 157.965C335.504 158.431 335.184 158.799 334.75 159.07C334.327 159.341 333.828 159.476 333.254 159.476ZM333.466 158.484C334.116 158.484 334.647 158.262 335.059 157.818C335.471 157.363 335.677 156.788 335.678 156.095L335.678 155.607L335.174 155.607C334.296 155.607 333.602 155.65 333.092 155.736C332.594 155.812 332.241 155.953 332.035 156.159C331.84 156.354 331.743 156.625 331.743 156.972C331.742 157.416 331.894 157.779 332.197 158.061C332.512 158.343 332.934 158.484 333.466 158.484ZM342.055 159.479C341.437 159.478 340.852 159.392 340.299 159.218C339.746 159.044 339.291 158.8 338.933 158.486L339.356 157.559C339.747 157.874 340.175 158.107 340.641 158.259C341.118 158.4 341.6 158.47 342.088 158.47C342.706 158.471 343.172 158.357 343.486 158.129C343.801 157.902 343.958 157.593 343.958 157.203C343.958 156.899 343.855 156.661 343.649 156.487C343.443 156.303 343.118 156.162 342.674 156.064L341.194 155.739C339.85 155.446 339.178 154.752 339.179 153.657C339.179 152.941 339.461 152.367 340.025 151.933C340.599 151.5 341.347 151.283 342.269 151.284C342.811 151.284 343.326 151.371 343.813 151.544C344.312 151.707 344.724 151.951 345.049 152.276L344.61 153.203C344.295 152.91 343.927 152.688 343.504 152.536C343.092 152.373 342.68 152.292 342.268 152.292C341.661 152.292 341.201 152.411 340.886 152.649C340.572 152.888 340.415 153.202 340.414 153.592C340.414 154.199 340.815 154.589 341.617 154.763L343.097 155.072C343.791 155.224 344.316 155.468 344.674 155.805C345.031 156.13 345.21 156.574 345.21 157.138C345.21 157.864 344.922 158.439 344.348 158.861C343.773 159.273 343.009 159.479 342.055 159.479ZM347.608 161.187L346.99 160.716C347.229 160.467 347.397 160.228 347.495 160C347.603 159.784 347.674 159.562 347.706 159.334L346.926 159.334L346.926 157.675L348.585 157.676L348.584 158.846C348.584 159.291 348.514 159.703 348.373 160.082C348.232 160.461 347.977 160.83 347.608 161.187ZM288.729 180.244L288.732 169.415L290.017 169.415L290.016 170.829C290.255 170.342 290.608 169.962 291.074 169.692C291.551 169.41 292.104 169.269 292.732 169.269C293.437 169.27 294.049 169.438 294.57 169.774C295.101 170.099 295.507 170.571 295.789 171.189C296.081 171.796 296.227 172.522 296.227 173.368C296.227 174.202 296.08 174.929 295.787 175.546C295.505 176.153 295.099 176.625 294.567 176.961C294.047 177.297 293.435 177.464 292.73 177.464C292.123 177.464 291.581 177.328 291.104 177.057C290.627 176.786 290.275 176.412 290.048 175.935L290.046 180.244L288.729 180.244ZM292.454 176.407C293.191 176.408 293.782 176.148 294.226 175.627C294.671 175.096 294.893 174.343 294.894 173.367C294.894 172.381 294.672 171.628 294.228 171.107C293.783 170.587 293.193 170.326 292.456 170.326C291.718 170.326 291.128 170.586 290.683 171.106C290.238 171.626 290.016 172.38 290.016 173.366C290.015 174.342 290.237 175.095 290.682 175.626C291.126 176.147 291.717 176.407 292.454 176.407ZM298.21 177.32L298.212 169.417L299.496 169.418L299.496 170.832C299.919 169.878 300.786 169.353 302.098 169.256L302.57 169.207L302.667 170.345L301.838 170.443C301.09 170.507 300.52 170.746 300.13 171.158C299.74 171.559 299.544 172.111 299.544 172.816L299.543 177.32L298.21 177.32ZM307.503 177.469C306.256 177.468 305.27 177.105 304.544 176.378C303.818 175.641 303.455 174.644 303.455 173.386C303.455 172.573 303.618 171.858 303.944 171.24C304.269 170.611 304.714 170.129 305.277 169.793C305.852 169.447 306.513 169.273 307.261 169.274C308.334 169.274 309.174 169.621 309.781 170.315C310.388 170.998 310.691 171.941 310.691 173.144L310.691 173.648L304.74 173.647C304.783 174.546 305.043 175.235 305.52 175.712C305.996 176.178 306.658 176.411 307.503 176.412C307.98 176.412 308.435 176.341 308.869 176.201C309.303 176.049 309.715 175.805 310.105 175.469L310.56 176.396C310.202 176.732 309.747 176.998 309.194 177.193C308.641 177.377 308.077 177.469 307.503 177.469ZM307.293 170.249C306.545 170.249 305.955 170.482 305.521 170.948C305.087 171.414 304.832 172.026 304.756 172.785L309.553 172.786C309.521 171.984 309.309 171.361 308.919 170.916C308.54 170.472 307.998 170.249 307.293 170.249ZM315.262 177.471C314.644 177.471 314.059 177.384 313.506 177.21C312.954 177.037 312.498 176.793 312.141 176.478L312.564 175.551C312.954 175.866 313.382 176.099 313.848 176.251C314.325 176.392 314.807 176.463 315.295 176.463C315.913 176.463 316.379 176.349 316.694 176.122C317.008 175.894 317.165 175.585 317.165 175.195C317.165 174.891 317.063 174.653 316.857 174.479C316.651 174.295 316.326 174.154 315.881 174.056L314.402 173.731C313.058 173.438 312.386 172.744 312.386 171.649C312.386 170.934 312.668 170.359 313.232 169.926C313.807 169.492 314.555 169.276 315.476 169.276C316.018 169.276 316.533 169.363 317.021 169.537C317.519 169.699 317.931 169.943 318.256 170.269L317.817 171.195C317.503 170.903 317.134 170.68 316.711 170.528C316.3 170.366 315.888 170.284 315.476 170.284C314.869 170.284 314.408 170.403 314.094 170.641C313.779 170.88 313.622 171.194 313.622 171.584C313.622 172.191 314.023 172.582 314.825 172.755L316.304 173.065C316.998 173.217 317.524 173.461 317.881 173.797C318.239 174.122 318.418 174.567 318.417 175.13C318.417 175.857 318.13 176.431 317.555 176.854C316.981 177.265 316.216 177.471 315.262 177.471ZM323.221 177.473C321.324 177.473 320.375 176.426 320.376 174.334L320.377 169.424L321.695 169.424L321.693 174.318C321.693 175.023 321.834 175.543 322.115 175.879C322.408 176.215 322.863 176.384 323.481 176.384C324.153 176.384 324.701 176.162 325.124 175.718C325.546 175.262 325.758 174.661 325.758 173.913L325.759 169.425L327.077 169.426L327.074 177.328L325.79 177.328L325.79 175.994C325.541 176.471 325.188 176.84 324.733 177.1C324.288 177.349 323.784 177.473 323.221 177.473ZM329.537 180.255L329.541 169.426L330.825 169.427L330.825 170.841C331.063 170.354 331.416 169.974 331.882 169.703C332.359 169.422 332.912 169.281 333.541 169.281C334.245 169.281 334.858 169.45 335.378 169.786C335.909 170.111 336.315 170.583 336.597 171.201C336.889 171.808 337.036 172.534 337.035 173.38C337.035 174.214 336.888 174.941 336.596 175.558C336.314 176.165 335.907 176.637 335.376 176.973C334.855 177.308 334.243 177.476 333.538 177.476C332.931 177.476 332.389 177.34 331.912 177.069C331.435 176.798 331.083 176.424 330.856 175.947L330.855 180.256L329.537 180.255ZM333.262 176.419C333.999 176.419 334.59 176.159 335.035 175.639C335.479 175.108 335.702 174.355 335.702 173.379C335.702 172.393 335.48 171.639 335.036 171.119C334.592 170.599 334.001 170.338 333.264 170.338C332.527 170.338 331.936 170.598 331.491 171.118C331.047 171.638 330.824 172.391 330.824 173.378C330.824 174.353 331.046 175.107 331.49 175.638C331.934 176.159 332.525 176.419 333.262 176.419ZM341.815 177.479C339.918 177.478 338.969 176.432 338.97 174.34L338.971 169.429L340.288 169.429L340.287 174.324C340.287 175.028 340.428 175.549 340.709 175.885C341.002 176.221 341.457 176.389 342.075 176.389C342.747 176.389 343.295 176.167 343.717 175.723C344.14 175.268 344.352 174.666 344.352 173.918L344.353 169.431L345.67 169.431L345.668 177.333L344.384 177.333L344.384 176C344.135 176.477 343.782 176.845 343.327 177.105C342.882 177.354 342.378 177.479 341.815 177.479ZM351.693 177.481C350.447 177.481 349.46 177.118 348.734 176.391C348.008 175.654 347.645 174.656 347.646 173.399C347.646 172.586 347.809 171.871 348.134 171.253C348.459 170.624 348.904 170.142 349.468 169.806C350.042 169.459 350.704 169.286 351.452 169.286C352.525 169.287 353.365 169.634 353.972 170.328C354.578 171.011 354.882 171.954 354.881 173.157L354.881 173.661L348.93 173.66C348.973 174.559 349.233 175.248 349.71 175.725C350.187 176.191 350.848 176.424 351.693 176.425C352.17 176.425 352.626 176.354 353.059 176.214C353.493 176.062 353.905 175.818 354.295 175.482L354.75 176.409C354.393 176.745 353.937 177.011 353.384 177.205C352.831 177.39 352.268 177.482 351.693 177.481ZM351.484 170.262C350.736 170.262 350.145 170.495 349.711 170.961C349.278 171.427 349.023 172.039 348.947 172.798L353.743 172.799C353.711 171.997 353.5 171.374 353.11 170.929C352.73 170.485 352.188 170.262 351.484 170.262ZM359.453 177.484C358.835 177.483 358.25 177.397 357.697 177.223C357.144 177.049 356.689 176.805 356.331 176.491L356.754 175.564C357.144 175.879 357.572 176.112 358.039 176.264C358.515 176.405 358.998 176.475 359.486 176.476C360.103 176.476 360.57 176.362 360.884 176.134C361.198 175.907 361.356 175.598 361.356 175.208C361.356 174.904 361.253 174.666 361.047 174.492C360.841 174.308 360.516 174.167 360.072 174.069L358.592 173.744C357.248 173.451 356.576 172.757 356.576 171.662C356.577 170.946 356.859 170.372 357.422 169.939C357.997 169.505 358.745 169.289 359.667 169.289C360.209 169.289 360.723 169.376 361.211 169.549C361.71 169.712 362.122 169.956 362.447 170.281L362.007 171.208C361.693 170.915 361.325 170.693 360.902 170.541C360.49 170.378 360.078 170.297 359.666 170.297C359.059 170.297 358.598 170.416 358.284 170.654C357.97 170.893 357.812 171.207 357.812 171.597C357.812 172.204 358.213 172.595 359.015 172.768L360.495 173.078C361.188 173.23 361.714 173.474 362.072 173.81C362.429 174.135 362.608 174.579 362.608 175.143C362.608 175.869 362.32 176.444 361.746 176.866C361.171 177.278 360.407 177.484 359.453 177.484ZM367.706 177.486C366.773 177.486 366.074 177.242 365.608 176.754C365.142 176.255 364.91 175.539 364.91 174.607L364.911 170.461L363.366 170.461L363.367 169.436L364.911 169.437L364.912 167.014L366.229 167.014L366.228 169.437L368.732 169.438L368.732 170.462L366.228 170.461L366.227 174.478C366.227 175.095 366.357 175.567 366.617 175.892C366.877 176.207 367.299 176.364 367.885 176.364C368.058 176.364 368.232 176.343 368.405 176.299C368.579 176.256 368.736 176.213 368.877 176.169L369.104 177.178C368.963 177.253 368.757 177.324 368.486 177.389C368.215 177.454 367.955 177.486 367.706 177.486ZM373.425 177.488C372.655 177.487 371.988 177.319 371.425 176.983C370.861 176.647 370.422 176.175 370.108 175.568C369.805 174.95 369.653 174.224 369.654 173.389C369.654 172.554 369.806 171.834 370.109 171.227C370.424 170.609 370.863 170.132 371.427 169.796C371.991 169.46 372.657 169.293 373.427 169.293C374.186 169.293 374.847 169.461 375.411 169.797C375.985 170.134 376.424 170.611 376.727 171.229C377.041 171.836 377.198 172.557 377.198 173.391C377.198 174.226 377.04 174.952 376.726 175.57C376.422 176.177 375.983 176.648 375.408 176.984C374.845 177.32 374.183 177.488 373.425 177.488ZM373.425 176.431C374.162 176.431 374.753 176.171 375.197 175.651C375.642 175.12 375.865 174.367 375.865 173.391C375.865 172.405 375.643 171.651 375.199 171.131C374.755 170.61 374.164 170.35 373.427 170.35C372.679 170.349 372.082 170.609 371.638 171.13C371.204 171.65 370.987 172.403 370.987 173.39C370.987 174.365 371.203 175.119 371.637 175.65C372.081 176.17 372.677 176.431 373.425 176.431ZM381.842 177.49C381.224 177.49 380.639 177.403 380.086 177.229C379.533 177.056 379.078 176.812 378.72 176.497L379.143 175.571C379.533 175.885 379.961 176.118 380.427 176.27C380.904 176.411 381.387 176.482 381.875 176.482C382.492 176.482 382.959 176.369 383.273 176.141C383.587 175.913 383.745 175.605 383.745 175.214C383.745 174.911 383.642 174.672 383.436 174.499C383.23 174.314 382.905 174.173 382.461 174.076L380.981 173.75C379.637 173.457 378.965 172.763 378.965 171.668C378.966 170.953 379.248 170.378 379.811 169.945C380.386 169.512 381.134 169.295 382.055 169.295C382.597 169.295 383.112 169.382 383.6 169.556C384.099 169.719 384.511 169.963 384.836 170.288L384.396 171.215C384.082 170.922 383.714 170.7 383.291 170.548C382.879 170.385 382.467 170.303 382.055 170.303C381.448 170.303 380.987 170.422 380.673 170.661C380.359 170.899 380.201 171.213 380.201 171.604C380.201 172.211 380.602 172.601 381.404 172.775L382.884 173.084C383.577 173.236 384.103 173.48 384.461 173.816C384.818 174.141 384.997 174.586 384.997 175.15C384.997 175.876 384.709 176.45 384.135 176.873C383.56 177.285 382.796 177.49 381.842 177.49Z" fill="#141F2E"></path>
  <path d="M258.208 157.665L249.304 166.428L245.628 162.805C245.419 162.599 245.135 162.483 244.839 162.483C244.543 162.483 244.259 162.599 244.05 162.805C243.84 163.012 243.723 163.292 243.723 163.584C243.723 163.876 243.84 164.155 244.05 164.362L248.514 168.763C248.726 168.971 249.012 169.088 249.31 169.088C249.609 169.088 249.895 168.971 250.106 168.763L259.786 159.221C259.89 159.119 259.972 158.997 260.028 158.864C260.085 158.73 260.113 158.587 260.113 158.443C260.113 158.298 260.085 158.155 260.028 158.022C259.972 157.888 259.89 157.767 259.786 157.665C259.683 157.562 259.56 157.481 259.424 157.426C259.289 157.371 259.144 157.342 258.997 157.342C258.85 157.342 258.705 157.371 258.57 157.426C258.434 157.481 258.311 157.562 258.208 157.665" fill="#141F2E"></path>
  <path d="M251.969 177.169C249.169 177.169 246.432 176.35 244.103 174.817C241.775 173.284 239.96 171.104 238.889 168.554C237.817 166.004 237.537 163.198 238.083 160.491C238.629 157.784 239.978 155.297 241.958 153.345C243.938 151.393 246.461 150.064 249.207 149.526C251.953 148.987 254.8 149.264 257.387 150.32C259.974 151.376 262.185 153.165 263.741 155.46C265.297 157.755 266.127 160.453 266.127 163.213C266.127 165.046 265.761 166.861 265.049 168.554C264.338 170.247 263.295 171.786 261.98 173.081C260.665 174.377 259.105 175.405 257.387 176.107C255.669 176.808 253.828 177.169 251.969 177.169M251.969 147.051C248.726 147.051 245.556 147.999 242.86 149.775C240.163 151.551 238.061 154.075 236.82 157.028C235.579 159.981 235.255 163.231 235.887 166.366C236.52 169.502 238.082 172.382 240.375 174.642C242.668 176.902 245.59 178.442 248.77 179.065C251.951 179.689 255.248 179.369 258.244 178.146C261.24 176.922 263.801 174.851 265.602 172.193C267.404 169.535 268.366 166.41 268.366 163.213C268.366 158.927 266.638 154.816 263.563 151.785C260.488 148.754 256.318 147.051 251.969 147.051" fill="#141F2E"></path>
  <g filter="url(#filter2_d_152_1429)">
    <rect x="9" y="330" width="73.1091" height="73.1443" rx="10" fill="#CFE7FD"></rect>
    <path d="M38.1854 367.782C37.845 367.784 37.5185 367.918 37.2748 368.156L32.6019 372.831V369.067C32.6019 368.726 32.4666 368.4 32.2258 368.159C31.9851 367.918 31.6585 367.782 31.318 367.782H27.8693C27.7571 367.779 27.6508 367.731 27.5728 367.65C27.4948 367.57 27.4512 367.462 27.4513 367.349V351.009C27.4512 350.896 27.4948 350.788 27.5728 350.708C27.6508 350.627 27.7571 350.579 27.8693 350.576H49.3675C49.4823 350.576 49.5924 350.621 49.6736 350.702C49.7548 350.784 49.8004 350.894 49.8004 351.009V367.349C49.8004 367.464 49.7548 367.574 49.6736 367.656C49.5924 367.737 49.4823 367.782 49.3675 367.782H38.1854ZM52.3682 367.349V351.009C52.3682 350.216 52.0537 349.457 51.4937 348.896C50.9338 348.336 50.1743 348.021 49.3824 348.021H27.8843C27.0924 348.021 26.3329 348.336 25.7729 348.896C25.213 349.457 24.8984 350.216 24.8984 351.009V367.349C24.8984 368.142 25.213 368.901 25.7729 369.462C26.3329 370.022 27.0924 370.337 27.8843 370.337H30.0341V372.995C30.0321 373.325 30.095 373.651 30.2193 373.957C30.3435 374.262 30.5266 374.54 30.7582 374.774C30.9897 375.008 31.265 375.195 31.5686 375.323C31.8721 375.451 32.1979 375.518 32.5273 375.519C33.1921 375.516 33.8295 375.254 34.3039 374.788L38.7826 370.307H49.4272C50.2191 370.307 50.9785 369.992 51.5385 369.432C52.0984 368.871 52.4131 368.112 52.4131 367.319" fill="#141F2E"></path>
    <path d="M63.1139 358.312H57.1422C56.8236 358.347 56.529 358.498 56.3149 358.736C56.1008 358.975 55.9824 359.284 55.9824 359.605C55.9824 359.925 56.1008 360.234 56.3149 360.473C56.529 360.711 56.8236 360.862 57.1422 360.897H63.1139C63.2287 360.897 63.3389 360.942 63.4201 361.023C63.5013 361.105 63.5469 361.215 63.5469 361.33V377.61C63.5469 377.725 63.5013 377.835 63.4201 377.917C63.3389 377.998 63.2287 378.044 63.1139 378.044H59.6802C59.511 378.042 59.3432 378.073 59.1865 378.137C59.0298 378.201 58.8875 378.296 58.7679 378.415C58.6483 378.535 58.5538 378.677 58.49 378.834C58.4261 378.991 58.3943 379.159 58.3963 379.328V383.092L53.7085 378.417C53.5887 378.298 53.4466 378.204 53.2903 378.139C53.1341 378.075 52.9667 378.043 52.7978 378.044H43.3476C43.2434 378.029 43.148 377.977 43.0793 377.897C43.0106 377.818 42.9733 377.716 42.9743 377.61V375.086C42.94 374.767 42.7892 374.473 42.5508 374.258C42.3124 374.044 42.0034 373.926 41.683 373.926C41.3626 373.926 41.0534 374.044 40.815 374.258C40.5767 374.473 40.4259 374.767 40.3916 375.086V377.61C40.3916 378.403 40.7061 379.163 41.2661 379.723C41.826 380.283 42.5856 380.598 43.3775 380.598H52.335L56.8138 385.079C57.1653 385.426 57.6114 385.661 58.0962 385.756C58.581 385.85 59.0829 385.799 59.5389 385.609C59.9949 385.419 60.3848 385.099 60.6596 384.689C60.9343 384.278 61.0818 383.795 61.0835 383.301V380.643H63.2334C64.0253 380.643 64.7847 380.328 65.3446 379.768C65.9046 379.207 66.2192 378.447 66.2192 377.655V361.33C66.2192 360.537 65.9046 359.778 65.3446 359.217C64.7847 358.657 64.0253 358.342 63.2334 358.342" fill="#141F2E"></path>
  </g>
  <defs>
    <filter id="filter0_d_152_1429" x="5.20794" y="0.0905037" width="471.478" height="754.148" filterUnits="userSpaceOnUse" color-interpolation-filters="sRGB">
      <feFlood flood-opacity="0" result="BackgroundImageFix"></feFlood>
      <feColorMatrix in="SourceAlpha" type="matrix" values="0 0 0 0 0 0 0 0 0 0 0 0 0 0 0 0 0 0 127 0" result="hardAlpha"></feColorMatrix>
      <feOffset dx="46.782" dy="36.6646"></feOffset>
      <feGaussianBlur stdDeviation="49.7871"></feGaussianBlur>
      <feComposite in2="hardAlpha" operator="out"></feComposite>
      <feColorMatrix type="matrix" values="0 0 0 0 0 0 0 0 0 0 0 0 0 0 0 0 0 0 0.17 0"></feColorMatrix>
      <feBlend mode="normal" in2="BackgroundImageFix" result="effect1_dropShadow_152_1429"></feBlend>
      <feBlend mode="normal" in="SourceGraphic" in2="effect1_dropShadow_152_1429" result="shape"></feBlend>
    </filter>
    <filter id="filter1_d_152_1429" x="208.2" y="114.2" width="250.601" height="97.6005" filterUnits="userSpaceOnUse" color-interpolation-filters="sRGB">
      <feFlood flood-opacity="0" result="BackgroundImageFix"></feFlood>
      <feColorMatrix in="SourceAlpha" type="matrix" values="0 0 0 0 0 0 0 0 0 0 0 0 0 0 0 0 0 0 127 0" result="hardAlpha"></feColorMatrix>
      <feOffset></feOffset>
      <feGaussianBlur stdDeviation="6.40013"></feGaussianBlur>
      <feComposite in2="hardAlpha" operator="out"></feComposite>
      <feColorMatrix type="matrix" values="0 0 0 0 0.397115 0 0 0 0 0.394931 0 0 0 0 0.504167 0 0 0 0.24 0"></feColorMatrix>
      <feBlend mode="normal" in2="BackgroundImageFix" result="effect1_dropShadow_152_1429"></feBlend>
      <feBlend mode="normal" in="SourceGraphic" in2="effect1_dropShadow_152_1429" result="shape"></feBlend>
    </filter>
    <filter id="filter2_d_152_1429" x="0.771267" y="325.428" width="89.5668" height="89.6018" filterUnits="userSpaceOnUse" color-interpolation-filters="sRGB">
      <feFlood flood-opacity="0" result="BackgroundImageFix"></feFlood>
      <feColorMatrix in="SourceAlpha" type="matrix" values="0 0 0 0 0 0 0 0 0 0 0 0 0 0 0 0 0 0 127 0" result="hardAlpha"></feColorMatrix>
      <feOffset dy="3.65721"></feOffset>
      <feGaussianBlur stdDeviation="4.11437"></feGaussianBlur>
      <feComposite in2="hardAlpha" operator="out"></feComposite>
      <feColorMatrix type="matrix" values="0 0 0 0 0.40026 0 0 0 0 0.506779 0 0 0 0 0.604167 0 0 0 0.25 0"></feColorMatrix>
      <feBlend mode="normal" in2="BackgroundImageFix" result="effect1_dropShadow_152_1429"></feBlend>
      <feBlend mode="normal" in="SourceGraphic" in2="effect1_dropShadow_152_1429" result="shape"></feBlend>
    </filter>
    <clipPath id="clip0_152_1429">
      <rect width="246.805" height="500.584" rx="23.706" transform="matrix(1 0 -0.000449607 1 70.1416 73.416)" fill="white"></rect>
    </clipPath>
    <clipPath id="clip1_152_1429">
      <rect width="245.535" height="500.583" rx="23.6989" transform="matrix(1 0 -0.000449607 1 70.1406 73.417)" fill="white"></rect>
    </clipPath>
    <clipPath id="clip2_152_1429">
      <rect width="245.535" height="188.987" fill="white" transform="matrix(1 0 -0.000449607 1 70.0859 193.953)"></rect>
    </clipPath>
    <clipPath id="clip3_152_1429">
      <rect width="245.01" height="52.2687" fill="white" transform="matrix(1 0 -0.000449607 1 70.2588 383.868)"></rect>
    </clipPath>
    <clipPath id="clip4_152_1429">
      <rect width="245.01" height="52.2687" fill="white" transform="matrix(1 0 -0.000449607 1 70.2363 436.134)"></rect>
    </clipPath>
  </defs>
</svg>
