<svg xmlns="http://www.w3.org/2000/svg" width="375" height="535" viewBox="0 0 375 535" fill="none"><path d="M-60.9998 534C-61.1315 434.234 3.66207 289.946 92.4773 225.242C106.356 215.118 123.888 206.99 140.123 212.425C152.565 216.657 161.33 227.863 168.282 239.213C194.956 283.341 204.193 336.774 229.877 381.238C230.454 382.232 231.291 383.043 232.294 383.578C233.298 384.113 234.428 384.352 235.557 384.267C236.686 384.182 237.77 383.777 238.686 383.097C239.601 382.417 240.313 381.49 240.74 380.42C243.874 372.556 244.298 363.13 244.605 354.401C246.02 308.272 250.238 262.277 257.235 216.681C260.51 195.038 264.893 172.65 275.756 153.965C276.363 152.95 277.243 152.135 278.292 151.616C279.341 151.097 280.513 150.896 281.67 151.038C282.827 151.18 283.92 151.658 284.818 152.416C285.716 153.174 286.382 154.179 286.737 155.312L306.412 218.917C309.97 230.22 313.481 241.763 320.551 251.237C327.62 260.712 338.836 267.758 350.382 266.411C359.949 265.329 368.149 258.788 374.464 251.357C387.754 235.943 395.271 216.272 402.199 196.914C436.013 101.301 460.448 1.40836 508 -88" stroke="#CFE7FD" stroke-width="20" stroke-miterlimit="10"></path></svg>