<?xml version="1.0" encoding="UTF-8"?>
<svg xmlns="http://www.w3.org/2000/svg" width="761" height="537" viewBox="0 0 761 537" fill="none">
  <path d="M-54.9997 659C-55.1855 518.334 36.2542 314.892 161.595 223.661C181.181 209.387 205.922 197.926 228.835 205.589C246.393 211.557 258.763 227.357 268.573 243.36C306.217 305.578 319.253 380.918 355.5 443.61C356.313 445.012 357.495 446.155 358.911 446.91C360.327 447.664 361.922 448.001 363.516 447.881C365.109 447.761 366.638 447.19 367.931 446.231C369.223 445.273 370.227 443.966 370.83 442.457C375.253 431.37 375.852 418.079 376.284 405.771C378.281 340.73 384.234 275.879 394.108 211.59C398.73 181.075 404.916 149.508 420.246 123.163C421.103 121.732 422.345 120.582 423.825 119.85C425.305 119.119 426.96 118.836 428.593 119.036C430.225 119.236 431.768 119.91 433.035 120.979C434.303 122.047 435.242 123.465 435.742 125.062L463.51 214.744C468.531 230.68 473.486 246.955 483.462 260.314C493.439 273.673 509.268 283.607 525.562 281.708C539.064 280.182 550.636 270.96 559.548 260.483C578.304 238.749 588.912 211.014 598.688 183.72C646.408 48.9089 680.893 -91.9371 748 -218" stroke="#CFE7FD" stroke-width="28" stroke-miterlimit="10"></path>
</svg>
