<svg xmlns="http://www.w3.org/2000/svg" width="1634" height="995" viewBox="0 0 1634 995" fill="none"><path d="M14.0008 991.725C51.5961 814.456 148.878 653.73 294.401 528.457C345.499 484.805 402.755 445.098 470.778 421.942C509.123 408.865 555.558 401.711 592.992 421.133C621.649 436.153 638.307 463.261 650.459 489.71C696.842 592.351 696.515 704.563 740.329 807.362C741.313 809.662 743.016 811.729 745.244 813.33C747.472 814.931 750.138 816.002 752.94 816.423C755.743 816.843 758.571 816.596 761.106 815.71C763.641 814.824 765.782 813.333 767.289 811.407C778.343 797.246 783.431 778.525 787.931 761.144C811.213 669.188 841.303 578.969 878.028 491.007C895.347 449.231 915.7 406.536 950.335 374.677C952.258 372.955 954.765 371.777 957.556 371.283C960.348 370.789 963.306 371 966.079 371.891C968.853 372.782 971.324 374.316 973.198 376.309C975.073 378.302 976.272 380.67 976.653 383.132L997.527 521.251C1001.39 545.826 1005.03 570.86 1018.27 593.601C1031.52 616.342 1055.97 636.374 1084.83 639.714C1108.73 642.548 1131.62 633.698 1150.28 622.073C1189.46 598.056 1216.32 562.463 1241.61 527.19C1365.5 352.76 1468.27 164.818 1623.15 10.0487" stroke="#7633EF" stroke-width="28" stroke-miterlimit="10"></path></svg>