<svg xmlns="http://www.w3.org/2000/svg" width="1008" height="379" viewBox="0 0 1008 379" fill="none"><path fill-rule="evenodd" clip-rule="evenodd" d="M741.854 253.002C767.006 229.892 791.508 205.605 815.835 181.491C833.473 164.008 851.018 146.616 868.652 129.831C911.119 89.4091 955.492 51.0781 1007.24 18.6411L995.56 6.13963e-06C942.015 33.5609 896.423 73.0245 853.484 113.896C835.038 131.454 817.323 149.024 799.701 166.501C775.823 190.183 752.116 213.695 726.993 236.779C709.277 252.899 692.025 267.563 668.656 275.325L668.62 275.337L668.583 275.35C657.575 279.092 645.187 280.772 633.285 277.408L633.272 277.404L633.26 277.401C618.756 273.34 606.915 262.148 601.137 250.844C595.359 239.538 594.485 228.034 593.434 214.187L593.414 213.922L593.408 213.85L588.11 137.407L588.109 137.385L588.107 137.363C587.807 133.27 586.035 129.761 583.835 127.104C581.622 124.431 578.805 122.386 575.826 120.993C572.837 119.595 569.515 118.773 566.155 118.69C562.825 118.608 559.198 119.252 555.891 121.069L555.823 121.106L555.756 121.144C529.882 135.834 513.592 158.514 500.311 179.254C472.144 222.964 448.031 268.654 428.116 316.061C424.983 323.388 422.223 329.3 418.518 333.639C412.721 308.266 411.377 282.365 409.975 255.322V255.321L409.872 253.346C408.361 224.272 406.653 193.91 398.401 163.823L398.392 163.79L398.382 163.758C394.049 148.334 386.772 129.775 370.108 117.546L370.089 117.532L370.07 117.518C348.42 101.771 319.913 103.064 298.369 107.418C259.555 115.239 225.564 132.993 195.201 152.833L195.184 152.844L195.167 152.856C109.797 209.098 31.8915 276.098 6.87747e-06 372.03L20.8766 378.97C50.3209 290.4 122.805 226.875 207.253 171.238C236.462 152.154 267.764 136.026 302.721 128.983L302.727 128.982C322.769 124.932 343.248 125.226 357.111 135.296C367.59 142.996 373.19 155.438 377.194 169.678C384.717 197.125 386.378 225.175 387.902 254.488C387.95 255.413 387.998 256.34 388.046 257.268V257.269C389.485 285.081 390.985 314.073 398.075 342.76L395.611 343.65C396.863 347.117 399.087 349.936 401.562 352.042C403.954 354.077 406.75 355.599 409.671 356.559C410.31 356.823 410.96 357.054 411.621 357.251C414.702 358.169 418.037 358.358 421.289 357.675C424.387 357.024 427.397 355.577 429.876 353.287C439.666 345.009 444.705 333.223 448.298 324.82L448.358 324.679L448.372 324.646L448.386 324.614C467.802 278.387 491.321 233.818 518.811 191.16L518.82 191.146L518.828 191.133C531.673 171.072 545.375 152.599 565.858 140.712C565.984 140.735 566.134 140.773 566.295 140.833L571.466 215.443L571.469 215.479L571.472 215.516C571.513 216.066 571.555 216.621 571.597 217.181C572.567 230.115 573.723 245.548 581.547 260.856C589.757 276.918 606.184 292.663 627.321 298.584C644.904 303.548 662.056 300.799 675.625 296.192C703.806 286.823 724.044 269.207 741.815 253.037L741.834 253.02L741.854 253.002Z" fill="#7633EF"></path></svg>