<svg xmlns="http://www.w3.org/2000/svg" width="171" height="25" viewBox="0 0 171 25" fill="none"><g clip-path="url(#clip0_70_4277)"><path d="M0.000244141 4.30455H6.48721V24.4132H10.7788V4.30455H17.2687V0.412842H0.000244141V4.30455Z" fill="#141F2E"></path><path d="M27.478 0.412842L17.4877 24.4132H22.0216L23.9776 19.6283H34.6189L36.5749 24.4132H41.1059L31.1156 0.412842H27.4751H27.478ZM25.3147 16.0792L29.2968 6.29872L33.2789 16.0792H25.3147Z" fill="#141F2E"></path><path d="M50.4634 0.412842H46.1719V24.4132H59.972V20.5215H50.4634V0.412842Z" fill="#141F2E"></path><path d="M103.463 17.0807L90.7951 0.412842H87.0174V24.4132H91.1717V7.43783L104.114 24.4132H107.617V0.412842H103.463V17.0807Z" fill="#141F2E"></path><path d="M126 -0.00012207C118.996 -0.00012207 113.367 5.40552 113.367 12.4656C113.367 19.5258 118.996 24.8963 126 24.8963C133.003 24.8963 138.667 19.5228 138.667 12.4656C138.667 5.40845 133.038 -0.00012207 126 -0.00012207ZM126 21.0046C121.229 21.0046 117.589 17.3208 117.589 12.4656C117.589 7.61053 121.229 3.89159 126 3.89159C130.77 3.89159 134.41 7.68081 134.41 12.4656C134.41 17.2505 130.77 21.0046 126 21.0046Z" fill="#141F2E"></path><path d="M166.77 0.412842H163.403L156.47 17.6312L149.571 0.412842H146.205L142.497 24.4132H146.617L148.952 9.05718L154.96 24.4132H158.014L164.022 9.09232L166.358 24.4132H170.477L166.77 0.412842Z" fill="#141F2E"></path><path d="M66.3697 15.701L65.4443 16.2809V24.4127H80.926V20.521H69.4731L66.3697 15.701Z" fill="#141F2E"></path><path d="M58.8795 17.0104L67.0948 11.842L70.6594 17.5434L79.9841 11.6721L80.8716 8.82292L77.9288 8.38367L71.7863 12.252L69.6289 8.79949V4.30455H80.6877V0.412842H65.4453V8.29875L56.8214 13.722L58.8795 17.0104Z" fill="#141F2E"></path></g><defs><clipPath id="clip0_70_4277"><rect width="170.477" height="24.8964" fill="white"></rect></clipPath></defs></svg>