<svg xmlns="http://www.w3.org/2000/svg" width="326" height="653" viewBox="0 0 326 653" fill="none"><path fill-rule="evenodd" clip-rule="evenodd" d="M411.737 14.7143C411.737 14.717 411.711 14.7452 411.657 14.7906C411.71 14.7343 411.737 14.7116 411.737 14.7143ZM407.347 24.9582C406.06 29.7449 404.976 35.6691 404.042 42.5029C402.125 56.5395 400.948 73.5707 399.75 90.9685L399.737 91.1571C398.555 108.337 397.347 125.869 395.351 140.483C394.348 147.824 393.12 154.638 391.53 160.431C389.986 166.056 387.905 171.481 384.798 175.452C383.393 177.247 381.022 179.745 377.487 180.578C373.055 181.622 369.525 179.551 367.49 177.346C365.707 175.415 364.617 173.006 363.895 171.03C363.12 168.908 362.492 166.488 361.96 163.961C359.898 154.162 358.675 139.556 357.514 125.678L357.473 125.195C356.467 113.176 355.497 101.716 354.144 93.1793C352.858 97.966 351.773 103.89 350.84 110.724C348.922 124.761 347.746 141.792 346.548 159.19L346.535 159.378C345.352 176.558 344.145 194.09 342.149 208.704C341.146 216.045 339.917 222.86 338.327 228.653C336.783 234.277 334.703 239.702 331.595 243.673C330.191 245.468 327.819 247.966 324.284 248.799C319.853 249.843 316.322 247.772 314.287 245.567C312.505 243.636 311.415 241.227 310.693 239.251C309.918 237.13 309.289 234.709 308.757 232.182C306.696 222.383 305.473 207.778 304.311 193.901L304.271 193.416C303.264 181.397 302.295 169.937 300.942 161.4C299.655 166.187 298.571 172.111 297.637 178.945C295.72 192.982 294.543 210.013 293.346 227.411L293.332 227.6C292.15 244.78 290.943 262.311 288.946 276.925C287.943 284.266 286.715 291.081 285.125 296.874C283.581 302.499 281.5 307.923 278.393 311.894C276.988 313.689 274.617 316.187 271.082 317.02C266.65 318.064 263.12 315.993 261.085 313.788C259.302 311.857 258.212 309.448 257.491 307.472C256.716 305.351 256.087 302.93 255.555 300.403C253.493 290.604 252.271 276 251.109 262.123L251.068 261.637C250.062 249.618 249.092 238.158 247.74 229.622C246.453 234.408 245.369 240.332 244.435 247.166C242.517 261.203 241.341 278.234 240.143 295.632L240.13 295.821C238.947 313.001 237.74 330.532 235.744 345.146C234.741 352.487 233.512 359.302 231.922 365.095C230.379 370.72 228.298 376.144 225.19 380.116C223.786 381.91 221.415 384.408 217.879 385.241C213.448 386.285 209.917 384.214 207.882 382.009C206.1 380.078 205.01 377.669 204.288 375.693C203.513 373.572 202.884 371.151 202.352 368.624C200.291 358.826 199.068 344.221 197.906 330.344L197.866 329.858C196.859 317.839 195.89 306.379 194.537 297.843C193.25 302.629 192.166 308.553 191.232 315.387C189.315 329.424 188.139 346.455 186.941 363.853L186.928 364.042C185.745 381.222 184.538 398.754 182.541 413.367C181.538 420.708 180.31 427.523 178.72 433.316C177.176 438.941 175.095 444.366 171.988 448.337C170.583 450.131 168.212 452.63 164.677 453.462C160.245 454.506 156.715 452.435 154.68 450.23C152.897 448.299 151.807 445.89 151.086 443.914C150.311 441.793 149.682 439.373 149.15 436.845C147.088 427.047 145.866 412.442 144.704 398.565L144.663 398.079C143.657 386.06 142.687 374.6 141.335 366.064C140.048 370.85 138.964 376.775 138.03 383.608C136.112 397.645 134.936 414.676 133.738 432.074L133.725 432.263C132.542 449.443 131.335 466.975 129.339 481.588C128.336 488.929 127.107 495.744 125.517 501.537C123.974 507.162 121.893 512.587 118.785 516.558C117.381 518.352 115.01 520.851 111.474 521.684C107.043 522.727 103.512 520.656 101.477 518.451C99.6948 516.52 98.605 514.111 97.8832 512.135C97.1082 510.014 96.4793 507.594 95.9476 505.067C93.8859 495.268 92.6633 480.664 91.5015 466.786L91.4609 466.301C90.4545 454.281 89.4848 442.822 88.1322 434.285C86.8453 439.071 85.7612 444.996 84.8276 451.829C82.9099 465.866 81.7336 482.897 80.5357 500.295L80.5227 500.485C79.3398 517.664 78.1327 535.196 76.1363 549.809C75.1334 557.15 73.9049 563.965 72.315 569.758C70.7712 575.383 68.6903 580.808 65.5828 584.779C64.1785 586.573 61.8072 589.072 58.2718 589.905C53.8405 590.949 50.3099 588.878 48.2748 586.672C46.4923 584.741 45.4026 582.332 44.6807 580.356C43.9058 578.235 43.2768 575.815 42.7451 573.288C40.6834 563.489 39.4608 548.884 38.299 535.007L38.2584 534.522C37.2521 522.502 36.2823 511.043 34.9297 502.506C33.6429 507.293 32.5587 513.217 31.6251 520.051C29.7075 534.087 28.5312 551.118 27.3333 568.516L27.3202 568.706C26.1374 585.885 24.9303 603.417 22.9338 618.031C21.931 625.371 20.7024 632.186 19.1125 637.979C17.5688 643.604 15.4879 649.029 12.3804 653L0 643.307C1.15786 641.827 2.57412 638.834 3.95135 633.816C5.28244 628.966 6.3987 622.912 7.35651 615.901C9.27412 601.865 10.4504 584.833 11.6483 567.436L11.6614 567.246C12.8442 550.067 14.0513 532.535 16.0478 517.921C17.0507 510.58 18.2792 503.766 19.8691 497.973C21.4128 492.348 23.4937 486.923 26.6012 482.952C28.0056 481.157 30.3769 478.659 33.9122 477.826C38.3436 476.782 41.8742 478.853 43.9092 481.058C45.6918 482.99 46.7815 485.399 47.5033 487.374C48.2783 489.496 48.9072 491.916 49.4389 494.443C51.5006 504.242 52.7232 518.846 53.885 532.724L53.9257 533.209C54.932 545.228 55.9018 556.688 57.2543 565.225C58.5412 560.438 59.6254 554.514 60.559 547.68C62.4766 533.644 63.6529 516.612 64.8508 499.215L64.8638 499.025C66.0467 481.845 67.2538 464.314 69.2502 449.7C70.2531 442.359 71.4817 435.545 73.0715 429.752C74.6153 424.127 76.6962 418.702 79.8037 414.731C81.2081 412.936 83.5793 410.438 87.1147 409.605C91.5461 408.561 95.0767 410.632 97.1117 412.837C98.8942 414.769 99.9839 417.178 100.706 419.153C101.481 421.275 102.11 423.695 102.641 426.222C104.703 436.021 105.926 450.625 107.087 464.503L107.128 464.988C108.134 477.007 109.104 488.467 110.457 497.004C111.744 492.217 112.828 486.293 113.761 479.459C115.679 465.423 116.855 448.391 118.053 430.993L118.066 430.804C119.249 413.624 120.456 396.093 122.453 381.479C123.456 374.138 124.684 367.324 126.274 361.531C127.818 355.906 129.899 350.481 133.006 346.51C134.411 344.715 136.782 342.217 140.317 341.384C144.749 340.34 148.279 342.411 150.314 344.616C152.097 346.547 153.186 348.956 153.908 350.932C154.683 353.054 155.312 355.474 155.844 358.001C157.906 367.8 159.128 382.404 160.29 396.281L160.331 396.767C161.337 408.786 162.307 420.246 163.659 428.783C164.946 423.996 166.03 418.072 166.964 411.238C168.881 397.201 170.058 380.17 171.256 362.772L171.269 362.583C172.452 345.403 173.659 327.872 175.655 313.258C176.658 305.917 177.887 299.102 179.476 293.309C181.02 287.684 183.101 282.26 186.209 278.289C187.613 276.494 189.984 273.996 193.52 273.163C197.951 272.119 201.482 274.19 203.517 276.395C205.299 278.326 206.389 280.735 207.111 282.711C207.886 284.832 208.515 287.253 209.046 289.78C211.108 299.579 212.331 314.183 213.492 328.06L213.533 328.546C214.539 340.565 215.509 352.025 216.862 360.562C218.149 355.775 219.233 349.851 220.166 343.017C222.084 328.98 223.26 311.949 224.458 294.551L224.471 294.361C225.654 277.182 226.861 259.65 228.858 245.037C229.86 237.696 231.089 230.881 232.679 225.088C234.223 219.463 236.304 214.039 239.411 210.068C240.815 208.273 243.187 205.775 246.722 204.942C251.153 203.898 254.684 205.969 256.719 208.174C258.502 210.105 259.591 212.514 260.313 214.49C261.088 216.611 261.717 219.032 262.249 221.559C264.31 231.357 265.533 245.962 266.695 259.839L266.735 260.325C267.742 272.344 268.712 283.804 270.064 292.34C271.351 287.554 272.435 281.63 273.369 274.796C275.286 260.759 276.463 243.728 277.661 226.33L277.674 226.141C278.857 208.961 280.064 191.43 282.06 176.816C283.063 169.475 284.291 162.66 285.881 156.867C287.425 151.242 289.506 145.817 292.613 141.846C294.018 140.052 296.389 137.554 299.924 136.721C304.356 135.677 307.886 137.748 309.921 139.953C311.704 141.884 312.794 144.293 313.516 146.269C314.291 148.39 314.919 150.811 315.451 153.338C317.513 163.136 318.736 177.741 319.897 191.618L319.938 192.104C320.944 204.123 321.914 215.583 323.267 224.119C324.553 219.333 325.638 213.408 326.571 206.575C328.489 192.538 329.665 175.507 330.863 158.109L330.876 157.919C332.059 140.739 333.266 123.208 335.262 108.595C336.265 101.254 337.494 94.4391 339.084 88.6461C340.628 83.0212 342.708 77.5964 345.816 73.6253C347.22 71.8307 349.592 69.3324 353.127 68.4995C357.558 67.4556 361.089 69.5267 363.124 71.7317C364.906 73.663 365.996 76.0721 366.718 78.0478C367.493 80.1691 368.122 82.5894 368.654 85.1165C370.715 94.9153 371.938 109.52 373.1 123.397L373.14 123.883C374.147 135.902 375.116 147.361 376.469 155.898C377.756 151.112 378.84 145.187 379.774 138.354C381.691 124.317 382.868 107.286 384.065 89.888L384.079 89.6977C385.261 72.5183 386.469 54.987 388.465 40.3737C389.468 33.0328 390.696 26.218 392.286 20.425C393.83 14.8001 395.911 9.37527 399.018 5.40424C400.423 3.6096 402.794 1.11131 406.329 0.278445C410.761 -0.765516 414.291 1.30562 416.326 3.51056C418.109 5.44195 419.199 7.85096 419.92 9.82675C420.695 11.948 421.324 14.3683 421.856 16.8954C423.918 26.6942 425.14 41.2984 426.302 55.1758L426.343 55.6614C427.554 70.1241 428.712 83.7767 430.547 92.5013C430.996 94.6336 431.443 96.2574 431.865 97.4108C432.191 98.3024 432.4 98.6276 432.394 98.631C432.392 98.6325 432.345 98.5669 432.244 98.4574C431.67 97.8349 429.744 96.4232 427.085 97.0495C438 98.631 438 102.809 425.702 97.6023L438 107.231C436.596 109.026 434.224 111.524 430.689 112.357C426.258 113.401 422.727 111.33 420.692 109.125C418.909 107.193 417.82 104.784 417.098 102.809C416.323 100.687 415.694 98.2671 415.162 95.74C413.101 85.9412 411.878 71.337 410.716 57.4595L410.676 56.9739C409.669 44.9547 408.699 33.495 407.347 24.9582ZM438 100.517C438 100.514 425.308 97.8902 425.361 97.8448C425.308 97.9011 438 100.52 438 100.517ZM372.079 166.142C372.079 166.14 372.105 166.112 372.159 166.066C372.106 166.122 372.08 166.145 372.079 166.142ZM318.877 234.363C318.877 234.36 318.903 234.332 318.956 234.287C318.903 234.344 318.877 234.366 318.877 234.363ZM265.674 302.584C265.674 302.582 265.7 302.554 265.754 302.508C265.701 302.564 265.674 302.587 265.674 302.584ZM212.472 370.805C212.471 370.803 212.498 370.775 212.551 370.729C212.499 370.785 212.472 370.808 212.472 370.805ZM159.269 439.027C159.269 439.024 159.296 438.996 159.349 438.95C159.296 439.007 159.269 439.029 159.269 439.027ZM106.067 507.248C106.067 507.245 106.093 507.217 106.146 507.171C106.094 507.228 106.067 507.25 106.067 507.248ZM52.8644 575.469C52.8642 575.466 52.8906 575.438 52.9441 575.393C52.8913 575.449 52.8645 575.471 52.8644 575.469ZM39.3197 492.262C39.3199 492.265 39.2935 492.293 39.24 492.338C39.2928 492.282 39.3195 492.259 39.3197 492.262ZM92.5221 424.041C92.5224 424.044 92.496 424.072 92.4425 424.117C92.4952 424.061 92.5219 424.038 92.5221 424.041ZM145.725 355.82C145.725 355.823 145.698 355.851 145.645 355.896C145.698 355.84 145.724 355.817 145.725 355.82ZM198.927 287.599C198.927 287.601 198.901 287.63 198.847 287.675C198.9 287.619 198.927 287.596 198.927 287.599ZM252.129 219.378C252.13 219.38 252.103 219.408 252.05 219.454C252.103 219.398 252.129 219.375 252.129 219.378ZM305.332 151.157C305.332 151.159 305.306 151.187 305.252 151.233C305.305 151.176 305.332 151.154 305.332 151.157ZM358.534 82.9354C358.535 82.9381 358.508 82.9662 358.455 83.0116C358.507 82.9553 358.534 82.9326 358.534 82.9354Z" fill="#CEB6FA"></path></svg>